<svg xmlns="http://www.w3.org/2000/svg" viewBox="0 0 1711.21 146.96"><defs><style>.cls-1{opacity:0.2;}.cls-2{fill:#fbc54d;}.cls-2,.cls-4,.cls-6{opacity:0.5;}.cls-3{fill:#fcc54f;}.cls-4{fill:#a08b66;}.cls-5{fill:#a18c66;}.cls-6,.cls-7{fill:#f1883d;}.cls-8,.cls-9{fill:none;stroke:#a08b66;stroke-miterlimit:10;}.cls-8{stroke-dasharray:4;}.cls-10{fill:#2e2e2d;}</style></defs><title>viz4Artboard 5</title><g id="SFONDO"><polygon class="cls-2" points="736.65 89.33 744.71 52.23 752.76 89.33 736.65 89.33"/><path class="cls-3" d="M744.71,57l6.81,31.38H737.89L744.71,57m0-9.43-9.3,42.81H754l-9.29-42.81Z"/><polygon class="cls-2" points="44.6 89.33 80.26 7.23 115.91 89.33 44.6 89.33"/><path class="cls-3" d="M80.26,9.74l34.13,78.59H46.12L80.26,9.74m0-5L43.08,90.33h74.36L80.26,4.72Z"/><polygon class="cls-4" points="1379.28 89.33 1409.16 63.12 1439.04 89.33 1379.28 89.33"/><path class="cls-5" d="M1409.16,64.45l27.22,23.88h-54.44l27.22-23.88m0-2.66-32.53,28.54h65.06l-32.53-28.54Z"/><polygon class="cls-2" points="949.13 89.33 966.19 50.03 983.26 89.33 949.13 89.33"/><path class="cls-3" d="M966.19,52.54l15.54,35.79H950.65l15.54-35.79m0-5L947.6,90.33h37.18L966.19,47.52Z"/><polygon class="cls-2" points="1619.08 89.33 1630.64 77.49 1642.21 89.33 1619.08 89.33"/><path class="cls-3" d="M1630.64,78.92l9.2,9.41h-18.39l9.19-9.41m0-2.86L1616.7,90.33h27.89l-13.95-14.27Z"/><polygon class="cls-6" points="1148.22 89.33 1187.68 48.95 1227.13 89.33 1148.22 89.33"/><path class="cls-7" d="M1187.68,50.38l37.07,37.95H1150.6l37.08-37.95m0-2.86-41.83,42.81h83.65l-41.82-42.81Z"/><polygon class="cls-2" points="266.08 89.33 301.74 7.23 337.39 89.33 266.08 89.33"/><path class="cls-3" d="M301.74,9.74l34.13,78.59H267.61L301.74,9.74m0-5L264.56,90.33h74.36L301.74,4.72Z"/><polygon class="cls-2" points="506.01 89.33 523.22 36.48 540.43 89.33 506.01 89.33"/><path class="cls-3" d="M523.22,39.71l15.84,48.62H507.39l15.83-48.62m0-6.45L504.63,90.33h37.18L523.22,33.26Z"/><line class="cls-8" y1="19.4" x2="1711.21" y2="19.4"/><line class="cls-9" y1="90.87" x2="1711.21" y2="90.87"/><path class="cls-10" d="M464.59,109.71h8.88c6.09,0,10,3.93,10,9.87,0,5.61-3.63,10.14-9.72,10.14h-9.09V129c2.34-.24,2.61-.87,2.61-4V114.39c0-3.15-.21-3.81-2.73-4Zm8.76.87H471v14.34c0,2.85.33,3.93,2.22,3.93h.6c4.14,0,5.28-4.59,5.28-9.09S477.52,110.58,473.35,110.58Z"/><path class="cls-10" d="M489.46,122.28V123c0,3.42.87,6,3.48,6a5.07,5.07,0,0,0,4.14-2.31l.51.48a6.62,6.62,0,0,1-5.58,3c-4,0-6.36-3-6.36-7.2,0-4,2.16-7.68,6.36-7.68,3.81,0,5.76,2.82,5.76,7Zm0-.75H494c0-3.06-.3-5.43-2-5.43S489.7,118.23,489.49,121.53Z"/><path class="cls-10" d="M504.61,117.54a4.29,4.29,0,0,1,8,2.34v5.91c0,2.61.15,3,1.8,3.33v.6l-3.42-.06-3.57.06v-.6c1.5-.3,1.65-.72,1.65-3.39v-5.67c0-1.68-.6-3.45-2-3.45-1.08,0-1.92.9-2.52,2.19v7.32c0,2.25.06,2.73,1.68,3v.6l-3.66-.06-3.57.06v-.6c1.77-.24,2-.63,2-3.18V119c0-1.89-.21-2.31-2-2.43V116l5.49-.6.12.12Z"/><path class="cls-10" d="M520.9,117.66a4.24,4.24,0,0,1,7.68.21,4.54,4.54,0,0,1,4-2.55,4.15,4.15,0,0,1,4.26,4.47v5.94c0,2.73.18,3.18,2,3.39v.6l-3.57-.06-3.63.06v-.6c1.56-.21,1.68-.72,1.68-3.66V120c0-1.62-.54-3.36-1.8-3.36s-2.07,1-2.61,2.31v7.11c0,2.37.21,2.85,1.59,3.06v.6l-3.21-.06-3.51.06v-.6c1.38-.21,1.56-.72,1.56-2.91V120c0-1.68-.51-3.36-1.77-3.36s-2.19,1-2.64,2.52v6.9c0,2.4.18,2.82,1.71,3.06v.6l-3.75-.06-3.45.06v-.6c1.86-.24,1.92-.6,1.92-3.24V119c0-1.92-.15-2.25-2-2.43V116l5.46-.6.12.12Z"/><path class="cls-10" d="M544.06,130.2a3.75,3.75,0,0,1-4-3.84c0-2.4,1.68-3.63,4.44-4.26a25.48,25.48,0,0,1,2.94-.45v-1.83c0-2.31-.18-3.72-1.65-3.72s-1.59.51-1.89,2.64a1.88,1.88,0,0,1-1.89,1.68,1.65,1.65,0,0,1-1.62-1.62c0-2.22,3.24-3.48,5.64-3.48,3.06,0,4.95.9,4.95,4.11v7.41c0,1.29.18,1.95.84,1.95s1-.72,1.26-1.29l.57.36a3.56,3.56,0,0,1-3.24,2.34,2.6,2.6,0,0,1-2.88-2.16A3.84,3.84,0,0,1,544.06,130.2Zm1.44-1.47c.87,0,1.5-.78,2-1.71v-4.68a8.07,8.07,0,0,0-2,.48c-1.08.42-1.62,1.41-1.62,3.09C543.82,127.35,544.45,128.73,545.5,128.73Z"/><path class="cls-10" d="M559.57,118c.6-1.62,1.62-2.76,3.39-2.76a2.5,2.5,0,0,1,2.55,2.52,2,2,0,0,1-1.86,2.07,1.8,1.8,0,0,1-1.77-1.8c-.06-.78-.12-1.23-.48-1.23-.72,0-1.41,1.44-1.8,3.27v5.85c0,2.46.3,2.88,2.91,3.21v.57l-5-.06-3.63.06v-.57c1.92-.24,2.13-.66,2.13-3.24v-6.6c0-2-.24-2.55-2.28-2.7V116l5.73-.6.12.12Z"/><path class="cls-10" d="M568.15,112.17c0-1.8-.36-2.1-2.13-2.4v-.51l5.67-.72.21.24-.21,5.55V126c0,2.4.24,2.85,1.62,3.12v.6l-3.15-.06-4.08.06v-.6c1.71-.24,2.07-.75,2.07-3.3Zm3.78,9.93,3.72-3.51a2.13,2.13,0,0,0,.78-1.35c0-.42-.36-.66-1.41-.75v-.63H581v.63a6.84,6.84,0,0,0-4.2,2.13l-2.07,1.95,3.87,5.79c1.35,2,1.86,2.55,3.3,2.76v.6h-7v-.6c1.05-.15,1.17-.6.69-1.35Z"/><path class="cls-10" d="M708.86,116.18V123h-.72c-.27-2.22-1-3-2.79-3h-2v4.5c0,3.15.48,3.87,3.63,4v.69h-10v-.69c2.28-.24,2.64-.87,2.64-4V112.64c0-2-.51-2.46-2.61-2.73v-.69h14.55v6h-.84c-1-4.17-1.92-5.13-5.22-5.13H703.4v9.09h2c1.8,0,2.55-.63,2.79-3Z"/><path class="cls-10" d="M718.64,125.6c0,2.28.15,2.79,1.92,3.06v.57l-3.63-.06-3.87.06v-.57c1.83-.27,2-.69,2-3.21v-7c0-1.92-.21-2.25-2-2.37v-.57l5.46-.6.09.12Zm-1.92-17.13a2.16,2.16,0,1,1-2.19,2.16A2.2,2.2,0,0,1,716.72,108.47Z"/><path class="cls-10" d="M727,117.05a4.29,4.29,0,0,1,8,2.34v5.91c0,2.61.15,3,1.8,3.33v.6l-3.42-.06-3.57.06v-.6c1.5-.3,1.65-.72,1.65-3.39v-5.67c0-1.68-.6-3.45-2-3.45-1.08,0-1.92.9-2.52,2.19v7.32c0,2.25.06,2.73,1.68,3v.6l-3.66-.06-3.57.06v-.6c1.77-.24,2-.63,2-3.18v-6.9c0-1.89-.21-2.31-2-2.43v-.57l5.49-.6.12.12Z"/><path class="cls-10" d="M739.79,111.8c0-1.86-.24-2.19-2-2.52v-.51l5.61-.72.21.24-.24,5.55v11.67c0,2.31.18,2.85,1.92,3.12v.6l-3.78-.06-3.66.06v-.6c1.77-.21,2-.75,2-3.3Z"/><path class="cls-10" d="M750.71,129.71a3.75,3.75,0,0,1-4-3.84c0-2.4,1.68-3.63,4.44-4.26a25.48,25.48,0,0,1,2.94-.45v-1.83c0-2.31-.18-3.72-1.65-3.72s-1.59.51-1.89,2.64a1.88,1.88,0,0,1-1.89,1.68,1.65,1.65,0,0,1-1.62-1.62c0-2.22,3.24-3.48,5.64-3.48,3.06,0,4.95.9,4.95,4.11v7.41c0,1.29.18,2,.84,2s1-.72,1.26-1.29l.57.36a3.56,3.56,0,0,1-3.24,2.34,2.6,2.6,0,0,1-2.88-2.16A3.84,3.84,0,0,1,750.71,129.71Zm1.44-1.47c.87,0,1.5-.78,2-1.71v-4.68a8.07,8.07,0,0,0-2,.48c-1.08.42-1.62,1.41-1.62,3.09C750.47,126.86,751.1,128.24,752.15,128.24Z"/><path class="cls-10" d="M766.22,117.05a4.29,4.29,0,0,1,8,2.34v5.91c0,2.61.15,3,1.8,3.33v.6l-3.42-.06-3.57.06v-.6c1.5-.3,1.65-.72,1.65-3.39v-5.67c0-1.68-.6-3.45-2-3.45-1.08,0-1.92.9-2.52,2.19v7.32c0,2.25.06,2.73,1.68,3v.6l-3.66-.06-3.57.06v-.6c1.77-.24,2-.63,2-3.18v-6.9c0-1.89-.21-2.31-2-2.43v-.57l5.49-.6.12.12Z"/><path class="cls-10" d="M777.35,122.42c0-4.2,2.46-7.59,6.57-7.59a6,6,0,0,1,2.43.51v-3.57c0-2-.21-2.28-2.4-2.43v-.54l5.94-.69.24.18-.27,6.51v10.89c0,2.1.21,2.79,2.46,2.88l0,.54-5.58.66-.24-.18-.15-1.62a4.35,4.35,0,0,1-3.36,1.74C779,129.71,777.35,126.53,777.35,122.42Zm9-5.46a2.53,2.53,0,0,0-2.22-1.35c-2.34,0-2.94,3.24-2.94,6.3s.63,6.45,2.91,6.45a2.82,2.82,0,0,0,2.25-1.41Z"/><path class="cls-10" d="M36.4,126.15c0-3.24-.3-3.75-3-4v-.69h8.22v.69c-1.68.18-1.83.57-1.83,4v1.53l.09,1.14a19,19,0,0,1-7.29,1.41c-5.94,0-9.33-4.56-9.33-10.44,0-6.15,3.81-10.5,9.6-10.5,3.45,0,7.53,2,7.53,5.13a1.8,1.8,0,0,1-1.86,2,2,2,0,0,1-2-2c-.36-3.18-1-4.11-3.75-4.11-4.23,0-5.19,4.2-5.19,9.39,0,4.53.93,9.57,5,9.57A5.56,5.56,0,0,0,36.4,128Z"/><path class="cls-10" d="M47,122.28V123c0,3.42.87,6,3.48,6a5.07,5.07,0,0,0,4.14-2.31l.51.48a6.62,6.62,0,0,1-5.58,3c-4,0-6.36-3-6.36-7.2,0-4,2.16-7.68,6.36-7.68,3.81,0,5.76,2.82,5.76,7Zm0-.75h4.47c0-3.06-.3-5.43-2-5.43S47.2,118.23,47,121.53Z"/><path class="cls-10" d="M62.11,118c.6-1.62,1.62-2.76,3.39-2.76a2.5,2.5,0,0,1,2.55,2.52,2,2,0,0,1-1.86,2.07,1.8,1.8,0,0,1-1.77-1.8c-.06-.78-.12-1.23-.48-1.23-.72,0-1.41,1.44-1.8,3.27v5.85c0,2.46.3,2.88,2.91,3.21v.57l-5-.06-3.63.06v-.57c1.92-.24,2.13-.66,2.13-3.24v-6.6c0-2-.24-2.55-2.28-2.7V116l5.73-.6.12.12Z"/><path class="cls-10" d="M74.22,117.66a4.24,4.24,0,0,1,7.68.21,4.54,4.54,0,0,1,4-2.55,4.15,4.15,0,0,1,4.26,4.47v5.94c0,2.73.18,3.18,2,3.39v.6l-3.57-.06-3.63.06v-.6c1.56-.21,1.68-.72,1.68-3.66V120c0-1.62-.54-3.36-1.8-3.36s-2.07,1-2.61,2.31v7.11c0,2.37.21,2.85,1.59,3.06v.6l-3.21-.06-3.5.06v-.6c1.37-.21,1.56-.72,1.56-2.91V120c0-1.68-.52-3.36-1.77-3.36s-2.19,1-2.65,2.52v6.9c0,2.4.19,2.82,1.71,3.06v.6l-3.74-.06-3.45.06v-.6c1.86-.24,1.92-.6,1.92-3.24V119c0-1.92-.15-2.25-2-2.43V116l5.46-.6.11.12Z"/><path class="cls-10" d="M97.39,130.2a3.75,3.75,0,0,1-4-3.84c0-2.4,1.68-3.63,4.44-4.26a25.48,25.48,0,0,1,2.94-.45v-1.83c0-2.31-.18-3.72-1.65-3.72s-1.59.51-1.89,2.64a1.88,1.88,0,0,1-1.89,1.68,1.65,1.65,0,0,1-1.62-1.62c0-2.22,3.24-3.48,5.64-3.48,3.06,0,4.95.9,4.95,4.11v7.41c0,1.29.18,1.95.83,1.95s1-.72,1.27-1.29l.56.36a3.53,3.53,0,0,1-3.23,2.34A2.6,2.6,0,0,1,100.9,128,3.84,3.84,0,0,1,97.39,130.2Zm1.44-1.47c.87,0,1.5-.78,2-1.71v-4.68a8.07,8.07,0,0,0-2,.48c-1.08.42-1.62,1.41-1.62,3.09C97.15,127.35,97.78,128.73,98.83,128.73Z"/><path class="cls-10" d="M112.89,117.54a4.29,4.29,0,0,1,8,2.34v5.91c0,2.61.15,3,1.8,3.33v.6l-3.42-.06-3.57.06v-.6c1.5-.3,1.65-.72,1.65-3.39v-5.67c0-1.68-.6-3.45-2-3.45-1.08,0-1.92.9-2.52,2.19v7.32c0,2.25.06,2.73,1.69,3v.6l-3.66-.06-3.57.06v-.6c1.77-.24,2-.63,2-3.18V119c0-1.89-.21-2.31-2-2.43V116l5.49-.6.11.12Z"/><path class="cls-10" d="M129.43,132.39c-1,2.61-2.19,3.87-4.15,3.87a2,2,0,0,1-2.15-1.83,1.56,1.56,0,0,1,1.59-1.56c1,0,1.29,1.32,2.09,1.32s1.27-.72,1.74-1.95l.72-2-4.85-12.12a2.7,2.7,0,0,0-2.64-1.71v-.6l3.75.06,4.13-.06v.6c-2.21.18-2.25.78-1.73,2.07l3,7.44,2.88-7.86c.39-1-.3-1.62-2-1.65v-.6l3.24.06,2.25-.06v.6a2.47,2.47,0,0,0-2.58,1.83Z"/><path class="cls-10" d="M1380.77,115.3v10.59c0,3.21.36,3.81,2.91,4v.69h-9.45v-.69c2.55-.21,2.82-.84,2.82-4V115.3c0-3.21-.27-3.81-2.82-4v-.69h9.42v.69C1381.07,111.49,1380.77,112.06,1380.77,115.3Z"/><path class="cls-10" d="M1393,117a1.91,1.91,0,0,0,.68.33c.28,0,.49-.27.58-.87h.63l-.13,4.86h-.62c-.42-2.82-1.77-4.29-3.84-4.29a2.33,2.33,0,0,0-2.49,2.34c0,1.17.93,1.92,3,2.61,3.45,1.14,4.71,2.28,4.71,4.65,0,2.94-2,4.53-5.13,4.53a5.88,5.88,0,0,1-2.67-.72,2.43,2.43,0,0,0-.87-.36c-.36,0-.48.33-.54.84h-.63v-5h.63c.36,2.73,2,4.44,4.08,4.44,1.53,0,2.72-.72,2.72-2.22,0-1.05-.65-1.74-3.38-2.7s-4.32-2.22-4.32-4.74c0-2.79,2.28-4.47,4.86-4.47A5.28,5.28,0,0,1,1393,117Z"/><path class="cls-10" d="M1402.54,118.9c.61-1.62,1.63-2.76,3.4-2.76a2.5,2.5,0,0,1,2.55,2.52,2,2,0,0,1-1.86,2.07,1.79,1.79,0,0,1-1.77-1.8c-.07-.78-.12-1.23-.48-1.23-.72,0-1.42,1.44-1.8,3.27v5.85c0,2.46.3,2.88,2.91,3.21v.57l-5-.06-3.63.06V130c1.92-.24,2.13-.66,2.13-3.24v-6.6c0-2-.24-2.55-2.28-2.7v-.57l5.73-.6.11.12Z"/><path class="cls-10" d="M1413.17,131.08a3.75,3.75,0,0,1-4-3.84c0-2.4,1.67-3.63,4.44-4.26a25.48,25.48,0,0,1,2.94-.45V120.7c0-2.31-.18-3.72-1.65-3.72s-1.6.51-1.9,2.64a1.86,1.86,0,0,1-1.88,1.68,1.65,1.65,0,0,1-1.62-1.62c0-2.22,3.24-3.48,5.63-3.48,3.07,0,5,.9,5,4.11v7.41c0,1.29.17,1.95.83,1.95s1-.72,1.26-1.29l.57.36a3.54,3.54,0,0,1-3.24,2.34,2.61,2.61,0,0,1-2.88-2.16A3.81,3.81,0,0,1,1413.17,131.08Zm1.44-1.47c.86,0,1.5-.78,2-1.71v-4.68a8.25,8.25,0,0,0-2,.48c-1.08.42-1.62,1.41-1.62,3.09C1412.92,128.23,1413.55,129.61,1414.61,129.61Z"/><path class="cls-10" d="M1427.21,123.16v.69c0,3.42.87,6,3.47,6a5.09,5.09,0,0,0,4.15-2.31l.51.48a6.63,6.63,0,0,1-5.59,3c-4,0-6.35-3-6.35-7.2,0-4,2.16-7.68,6.35-7.68,3.81,0,5.76,2.82,5.76,7Zm0-.75h4.47c0-3.06-.3-5.43-2-5.43S1427.45,119.11,1427.24,122.41Z"/><path class="cls-10" d="M1438.63,113.17c0-1.86-.24-2.19-2-2.52v-.51l5.62-.72.21.24-.25,5.55v11.67c0,2.31.18,2.85,1.92,3.12v.6l-3.78-.06-3.65.06V130c1.76-.21,2-.75,2-3.3Z"/><path class="cls-10" d="M934.86,130.4h-1.29l-12.33-17v12.15c0,3,.18,3.63,3.3,3.9v.69h-7.2v-.69c2.61-.24,2.82-.93,2.82-3.81v-11c0-3-.18-3.36-2.85-3.72v-.75h6.27l10.2,14.31v-9.84c0-3-.24-3.57-3.27-3.78v-.69h7v.69c-2.28.24-2.67.84-2.67,3.72Z"/><path class="cls-10" d="M945.12,130.7c-3.75,0-6.63-2.85-6.63-7.47s3-7.47,6.63-7.47,6.6,2.85,6.6,7.47S948.81,130.7,945.12,130.7Zm0-14.1c-2.37,0-2.79,3.6-2.79,6.63s.45,6.63,2.82,6.63,2.76-3.6,2.76-6.63S947.43,116.6,945.09,116.6Z"/><path class="cls-10" d="M958.68,118.46c.6-1.62,1.62-2.76,3.39-2.76a2.5,2.5,0,0,1,2.55,2.52,2,2,0,0,1-1.86,2.07,1.8,1.8,0,0,1-1.77-1.8c-.06-.78-.12-1.23-.48-1.23-.72,0-1.41,1.44-1.8,3.27v5.85c0,2.46.3,2.88,2.91,3.21v.57l-5-.06-3.63.06v-.57c1.92-.24,2.13-.66,2.13-3.24v-6.6c0-2-.24-2.55-2.28-2.7v-.57l5.73-.6.12.12Z"/><path class="cls-10" d="M964.74,116.3l3.48.06,3.87-.06v.6c-1.44.09-1.8.54-1.53,1.29l2.91,8,2.37-6.18-.54-1.44a2.44,2.44,0,0,0-2.37-1.68v-.6l3.54.06,3.72-.06v.6c-1.47.12-2.13.63-1.8,1.44l3,8,2.7-7.71c.45-1.26,0-1.59-1.65-1.71v-.6l3,.06,2.43-.06v.6c-1.68.15-2.16.45-2.58,1.62l-4.35,12.18h-1l-3.54-9.33-3.57,9.33h-1l-4.56-12.12c-.42-1.11-.9-1.59-2.49-1.68Z"/><path class="cls-10" d="M991.83,130.64a3.75,3.75,0,0,1-4-3.84c0-2.4,1.68-3.63,4.44-4.26a25.48,25.48,0,0,1,2.94-.45v-1.83c0-2.31-.18-3.72-1.65-3.72s-1.59.51-1.89,2.64a1.88,1.88,0,0,1-1.89,1.68,1.65,1.65,0,0,1-1.62-1.62c0-2.22,3.24-3.48,5.64-3.48,3.06,0,4.95.9,4.95,4.11v7.41c0,1.29.18,1.95.84,1.95s1-.72,1.26-1.29l.57.36a3.56,3.56,0,0,1-3.24,2.34,2.6,2.6,0,0,1-2.88-2.16A3.84,3.84,0,0,1,991.83,130.64Zm1.44-1.47c.87,0,1.5-.78,2-1.71v-4.68a8.07,8.07,0,0,0-2,.48c-1.08.42-1.62,1.41-1.62,3.09C991.59,127.79,992.22,129.17,993.27,129.17Z"/><path class="cls-10" d="M1007.22,132.83c-1,2.61-2.19,3.87-4.14,3.87a2,2,0,0,1-2.16-1.83,1.56,1.56,0,0,1,1.59-1.56c1,0,1.29,1.32,2.1,1.32s1.26-.72,1.74-1.95l.72-2-4.86-12.12a2.7,2.7,0,0,0-2.64-1.71v-.6l3.75.06,4.14-.06v.6c-2.22.18-2.25.78-1.74,2.07l3,7.44,2.88-7.86c.39-1-.3-1.62-2-1.65v-.6l3.24.06,2.25-.06v.6a2.47,2.47,0,0,0-2.58,1.83Z"/><path class="cls-10" d="M1594.4,130.42a7.47,7.47,0,0,1-3.09.69c-2.42,0-3.84-1.2-5.21-3.75l-3.13-5.73h-1.53v4.23c0,3.33.31,3.84,3,4v.69h-9.51v-.69c2.4-.21,2.81-.57,2.81-4V114.79c0-2.88-.38-3.24-2.81-3.48v-.72h8.52c4.5,0,7.52,1.92,7.52,5.34a5.5,5.5,0,0,1-4.23,5.52l2.79,5.07c1.38,2.46,2.55,3.36,4.8,3.36Zm-11.51-18.9h-1.45v9.3h1.71c2.61,0,3.82-1.89,3.82-4.62C1587,112.81,1585.28,111.52,1582.89,111.52Z"/><path class="cls-10" d="M1600.94,131.14c-3.75,0-6.63-2.85-6.63-7.47s3-7.47,6.63-7.47,6.6,2.85,6.6,7.47S1604.64,131.14,1600.94,131.14Zm0-14.1c-2.36,0-2.78,3.6-2.78,6.63s.44,6.63,2.81,6.63,2.76-3.6,2.76-6.63S1603.26,117,1600.91,117Z"/><path class="cls-10" d="M1614.5,118.54a4.24,4.24,0,0,1,7.68.21,4.54,4.54,0,0,1,4-2.55,4.15,4.15,0,0,1,4.26,4.47v5.94c0,2.73.18,3.18,2,3.39v.6l-3.57-.06-3.63.06V130c1.56-.21,1.68-.72,1.68-3.66v-5.46c0-1.62-.54-3.36-1.8-3.36s-2.07,1-2.61,2.31v7.11c0,2.37.21,2.85,1.59,3.06v.6l-3.21-.06-3.51.06V130c1.38-.21,1.56-.72,1.56-2.91v-6.21c0-1.68-.51-3.36-1.77-3.36s-2.19,1-2.64,2.52v6.9c0,2.4.18,2.82,1.71,3.06v.6l-3.74-.06-3.46.06V130c1.86-.24,1.92-.6,1.92-3.24v-6.84c0-1.92-.15-2.25-2-2.43v-.57l5.46-.6.11.12Z"/><path class="cls-10" d="M1637.66,131.08a3.75,3.75,0,0,1-4-3.84c0-2.4,1.69-3.63,4.44-4.26a25.48,25.48,0,0,1,2.94-.45V120.7c0-2.31-.18-3.72-1.65-3.72s-1.59.51-1.89,2.64a1.88,1.88,0,0,1-1.89,1.68,1.65,1.65,0,0,1-1.62-1.62c0-2.22,3.24-3.48,5.64-3.48,3.06,0,4.95.9,4.95,4.11v7.41c0,1.29.18,1.95.84,1.95s1-.72,1.26-1.29l.57.36a3.56,3.56,0,0,1-3.24,2.34,2.6,2.6,0,0,1-2.88-2.16A3.84,3.84,0,0,1,1637.66,131.08Zm1.44-1.47c.87,0,1.5-.78,2-1.71v-4.68a8.07,8.07,0,0,0-2,.48c-1.08.42-1.62,1.41-1.62,3.09C1637.42,128.23,1638.05,129.61,1639.1,129.61Z"/><path class="cls-10" d="M1653.17,118.42a4.29,4.29,0,0,1,8,2.34v5.91c0,2.61.15,3,1.8,3.33v.6l-3.42-.06-3.57.06V130c1.5-.3,1.65-.72,1.65-3.39v-5.67c0-1.68-.6-3.45-2-3.45-1.08,0-1.92.9-2.52,2.19V127c0,2.25.06,2.73,1.68,3v.6l-3.66-.06-3.57.06V130c1.77-.24,2-.63,2-3.18v-6.9c0-1.89-.21-2.31-2-2.43v-.57l5.49-.6.12.12Z"/><path class="cls-10" d="M1669.49,127c0,2.28.15,2.79,1.92,3.06v.57l-3.63-.06-3.87.06V130c1.83-.27,2-.69,2-3.21v-7c0-1.92-.21-2.25-2-2.37v-.57l5.46-.6.09.12Zm-1.92-17.13a2.16,2.16,0,1,1-2.19,2.16A2.2,2.2,0,0,1,1667.57,109.84Z"/><path class="cls-10" d="M1676.75,131.08a3.75,3.75,0,0,1-4-3.84c0-2.4,1.68-3.63,4.44-4.26a25.48,25.48,0,0,1,2.94-.45V120.7c0-2.31-.18-3.72-1.65-3.72s-1.59.51-1.89,2.64a1.88,1.88,0,0,1-1.89,1.68,1.65,1.65,0,0,1-1.62-1.62c0-2.22,3.24-3.48,5.64-3.48,3.06,0,5,.9,5,4.11v7.41c0,1.29.18,1.95.84,1.95s1-.72,1.26-1.29l.57.36a3.56,3.56,0,0,1-3.24,2.34,2.6,2.6,0,0,1-2.88-2.16A3.84,3.84,0,0,1,1676.75,131.08Zm1.44-1.47c.87,0,1.5-.78,2-1.71v-4.68a8.07,8.07,0,0,0-2,.48c-1.08.42-1.62,1.41-1.62,3.09C1676.51,128.23,1677.14,129.61,1678.19,129.61Z"/><path class="cls-10" d="M1159.91,110.09a1,1,0,0,0,.54.24c.36,0,.6-.42.66-1.29h.9l0,6.69h-.84c-.63-3.78-2.13-6.06-5.31-6.06-2.4,0-3.84,1.53-3.84,3.48,0,1.68,1,2.61,4.35,3.9,4.41,1.68,6.24,3.27,6.24,6.6,0,3.84-2.88,6.15-6.54,6.15a7.07,7.07,0,0,1-4.38-1.59.94.94,0,0,0-.6-.33c-.33,0-.57.51-.63,1.44h-.9v-6.84h.9c.45,3.75,2.28,6.36,5.52,6.36,2.43,0,4-1.41,4-3.57,0-1.74-1.08-2.79-4.86-4.2s-5.67-3.15-5.67-6.54,2.61-5.79,6.3-5.79A7,7,0,0,1,1159.91,110.09Z"/><path class="cls-10" d="M1177.52,115.07c-.09.63-.18,5-.18,7.5v3.6c0,1.92.18,2.16,2.49,2.31v.57l-5.67.54-.15-.15-.15-2.1a4.33,4.33,0,0,1-8.22-2v-6.93c0-1.92-.18-2.28-2.22-2.43v-.57l5.82-.6.09.12c-.06.57-.12,4.71-.12,10,0,2.16.6,3.42,2,3.42,1.11,0,2-.9,2.55-2.4v-7.59c0-1.92-.21-2.28-2.13-2.43v-.57l5.73-.51Z"/><path class="cls-10" d="M1180.67,122.42c0-4.2,2.46-7.59,6.57-7.59a6,6,0,0,1,2.43.51v-3.57c0-2-.21-2.28-2.4-2.43v-.54l5.94-.69.24.18-.27,6.51v10.89c0,2.1.21,2.79,2.46,2.88l0,.54-5.58.66-.24-.18-.15-1.62a4.35,4.35,0,0,1-3.36,1.74C1182.35,129.71,1180.67,126.53,1180.67,122.42Zm9-5.46a2.53,2.53,0,0,0-2.22-1.35c-2.34,0-2.94,3.24-2.94,6.3s.63,6.45,2.91,6.45a2.82,2.82,0,0,0,2.25-1.41Z"/><path class="cls-10" d="M1200.53,129.71a3.75,3.75,0,0,1-4-3.84c0-2.4,1.68-3.63,4.44-4.26a25.48,25.48,0,0,1,2.94-.45v-1.83c0-2.31-.18-3.72-1.65-3.72s-1.59.51-1.89,2.64a1.88,1.88,0,0,1-1.89,1.68,1.65,1.65,0,0,1-1.62-1.62c0-2.22,3.24-3.48,5.64-3.48,3.06,0,5,.9,5,4.11v7.41c0,1.29.18,2,.84,2s1-.72,1.26-1.29l.57.36a3.56,3.56,0,0,1-3.24,2.34,2.6,2.6,0,0,1-2.88-2.16A3.84,3.84,0,0,1,1200.53,129.71Zm1.44-1.47c.87,0,1.5-.78,2-1.71v-4.68a8.07,8.07,0,0,0-2,.48c-1.08.42-1.62,1.41-1.62,3.09C1200.29,126.86,1200.92,128.24,1202,128.24Z"/><path class="cls-10" d="M1216,117.05a4.29,4.29,0,0,1,8,2.34v5.91c0,2.61.15,3,1.8,3.33v.6l-3.42-.06-3.57.06v-.6c1.5-.3,1.65-.72,1.65-3.39v-5.67c0-1.68-.6-3.45-2-3.45-1.08,0-1.92.9-2.52,2.19v7.32c0,2.25.06,2.73,1.68,3v.6l-3.66-.06-3.57.06v-.6c1.77-.24,2-.63,2-3.18v-6.9c0-1.89-.21-2.31-2-2.43v-.57l5.49-.6.12.12Z"/><path class="cls-10" d="M215.71,114.84c0-3.69-.3-4.17-3-4.44v-.69h6.9v.69c-2.58.27-2.81.75-2.81,4.44V123c0,4.29-1.92,7.26-6.94,7.26-4.67,0-7.43-2.79-7.43-7.44v-8.46c0-3.24-.39-3.72-2.79-4v-.69h9.48v.69c-2.43.24-2.91.63-2.91,4v8.37c0,3.81,1.08,6.45,4.11,6.45,4,0,5.39-2.37,5.39-6.3Z"/><path class="cls-10" d="M225.32,117.54a4.29,4.29,0,0,1,8,2.34v5.91c0,2.61.14,3,1.79,3.33v.6l-3.42-.06-3.56.06v-.6c1.5-.3,1.65-.72,1.65-3.39v-5.67c0-1.68-.61-3.45-2-3.45-1.09,0-1.92.9-2.52,2.19v7.32c0,2.25.06,2.73,1.68,3v.6l-3.66-.06-3.57.06v-.6c1.77-.24,2-.63,2-3.18V119c0-1.89-.21-2.31-2-2.43V116l5.49-.6.12.12Z"/><path class="cls-10" d="M241.64,126.09c0,2.28.15,2.79,1.92,3.06v.57l-3.63-.06-3.87.06v-.57c1.83-.27,2-.69,2-3.21v-7c0-1.92-.21-2.25-2-2.37V116l5.46-.6.09.12ZM239.72,109a2.16,2.16,0,1,1-2.19,2.16A2.2,2.2,0,0,1,239.72,109Z"/><path class="cls-10" d="M249.76,115.86h3.79v.84l-3.79-.06v10c0,1.65.37,2.43,1.29,2.43s1.59-.78,2.1-2.31l.57.24c-.57,1.92-1.65,3.24-3.57,3.24-2.63,0-4-1.47-4-4v-9.66h-2v-.78h2v-4l3.57-.48Z"/><path class="cls-10" d="M258.29,122.28V123c0,3.42.86,6,3.47,6a5,5,0,0,0,4.14-2.31l.51.48a6.62,6.62,0,0,1-5.57,3c-4,0-6.36-3-6.36-7.2,0-4,2.16-7.68,6.36-7.68,3.8,0,5.75,2.82,5.75,7Zm0-.75h4.46c0-3.06-.3-5.43-2-5.43S258.53,118.23,258.32,121.53Z"/><path class="cls-10" d="M268.28,122.91c0-4.2,2.45-7.59,6.56-7.59a6,6,0,0,1,2.43.51v-3.57c0-2-.21-2.28-2.4-2.43v-.54l5.94-.69.24.18-.27,6.51v10.89c0,2.1.21,2.79,2.46,2.88l0,.54-5.58.66-.24-.18-.15-1.62a4.34,4.34,0,0,1-3.36,1.74C270,130.2,268.28,127,268.28,122.91Zm9-5.46a2.53,2.53,0,0,0-2.22-1.35c-2.34,0-2.94,3.24-2.94,6.3s.63,6.45,2.92,6.45a2.82,2.82,0,0,0,2.24-1.41Z"/><path class="cls-10" d="M297.07,114.42V125c0,3.15.31,3.81,2.73,4v.69h-9.05V129c2.21-.21,2.61-.57,2.61-4V114.42c0-3.45-.4-3.81-2.64-4v-.69h8.91v.69C297.4,110.61,297.07,111.27,297.07,114.42Zm6.45-1.59c1.23-1.44,1.14-2.31-1.38-2.43v-.69h7.11v.69a5.79,5.79,0,0,0-4.26,2.49l-4.38,5.31,4.62,6.81c2.31,3.42,3,3.78,4.74,4v.69h-8.49V129c1.71-.21,1.71-.78-.51-4l-3.42-5Z"/><path class="cls-10" d="M316.06,126.09c0,2.28.15,2.79,1.92,3.06v.57l-3.63-.06-3.87.06v-.57c1.83-.27,2-.69,2-3.21v-7c0-1.92-.21-2.25-2-2.37V116l5.46-.6.09.12ZM314.14,109a2.16,2.16,0,1,1-2.19,2.16A2.2,2.2,0,0,1,314.14,109Z"/><path class="cls-10" d="M324.46,117.54a4.29,4.29,0,0,1,8,2.34v5.91c0,2.61.15,3,1.8,3.33v.6l-3.42-.06-3.57.06v-.6c1.5-.3,1.65-.72,1.65-3.39v-5.67c0-1.68-.6-3.45-2-3.45-1.08,0-1.92.9-2.52,2.19v7.32c0,2.25.06,2.73,1.68,3v.6l-3.66-.06-3.57.06v-.6c1.77-.24,2-.63,2-3.18V119c0-1.89-.21-2.31-2-2.43V116l5.49-.6.12.12Z"/><path class="cls-10" d="M342,136.17c2,0,3.93-1.32,3.93-3.18,0-1.59-.87-2.1-4.23-2.61-4-.63-5-1.17-5-2.7,0-1,1.2-2.1,2.16-2.58a4.87,4.87,0,0,1-3.27-4.62c0-3.24,2.58-5.16,5.73-5.16a6,6,0,0,1,3.48.93,4.28,4.28,0,0,1,2.94-1.8,1.8,1.8,0,0,1,2,1.74,1.36,1.36,0,0,1-1.35,1.41c-1.26,0-1.17-1.68-1.83-1.68a2.08,2.08,0,0,0-1.32.72,5.14,5.14,0,0,1,2,3.93c0,3.18-2.73,5-5.85,5a8.75,8.75,0,0,1-1.83-.21,1.48,1.48,0,0,0-.48.93c0,.48.9.69,4,1.17,4,.63,5.85,1.47,5.85,4.26,0,3.24-3.93,5.28-7.2,5.28-3,0-6.51-.87-6.51-3.54,0-1.65,2.28-2.91,4-3l.15.39a3.28,3.28,0,0,0-1.44,2.58C338.05,135.36,339.79,136.17,342,136.17ZM341.38,116c-1.68,0-2,2.16-2,4.44,0,2.13.3,4.32,2,4.32s2.13-1.86,2.13-4.2S343,116,341.38,116Z"/><path class="cls-10" d="M349.9,122.91c0-4.2,2.46-7.59,6.57-7.59a6,6,0,0,1,2.43.51v-3.57c0-2-.21-2.28-2.4-2.43v-.54l5.94-.69.24.18-.27,6.51v10.89c0,2.1.21,2.79,2.46,2.88l0,.54-5.58.66-.24-.18-.15-1.62a4.35,4.35,0,0,1-3.36,1.74C351.58,130.2,349.9,127,349.9,122.91Zm9-5.46a2.53,2.53,0,0,0-2.22-1.35c-2.34,0-2.94,3.24-2.94,6.3s.63,6.45,2.91,6.45a2.82,2.82,0,0,0,2.25-1.41Z"/><path class="cls-10" d="M372.37,130.26c-3.75,0-6.63-2.85-6.63-7.47s3-7.47,6.63-7.47,6.6,2.85,6.6,7.47S376.06,130.26,372.37,130.26Zm0-14.1c-2.37,0-2.79,3.6-2.79,6.63s.45,6.63,2.82,6.63,2.76-3.6,2.76-6.63S374.68,116.16,372.34,116.16Z"/><path class="cls-10" d="M385.93,117.66a4.24,4.24,0,0,1,7.68.21,4.54,4.54,0,0,1,4-2.55,4.15,4.15,0,0,1,4.26,4.47v5.94c0,2.73.18,3.18,2,3.39v.6l-3.57-.06-3.63.06v-.6c1.56-.21,1.68-.72,1.68-3.66V120c0-1.62-.54-3.36-1.8-3.36s-2.07,1-2.61,2.31v7.11c0,2.37.21,2.85,1.59,3.06v.6l-3.21-.06-3.51.06v-.6c1.38-.21,1.56-.72,1.56-2.91V120c0-1.68-.51-3.36-1.77-3.36s-2.19,1-2.64,2.52v6.9c0,2.4.18,2.82,1.71,3.06v.6l-3.75-.06-3.45.06v-.6c1.86-.24,1.92-.6,1.92-3.24V119c0-1.92-.15-2.25-2-2.43V116l5.46-.6.12.12Z"/></g></svg>