<svg xmlns="http://www.w3.org/2000/svg" viewBox="0 0 1711.21 528.56"><defs><style>.cls-1{opacity:0.2;}.cls-2{fill:#a08b66;}.cls-2,.cls-4{opacity:0.5;}.cls-3{fill:#a18c66;}.cls-4,.cls-5{fill:#f1883d;}.cls-6,.cls-7{fill:none;stroke:#a08b66;stroke-miterlimit:10;}.cls-6{stroke-dasharray:4;}.cls-8{fill:#2e2e2d;}</style></defs><title>viz4Artboard 4</title><g id="SFONDO"><polygon class="cls-2" points="1148.22 317.3 1187.68 276.93 1227.13 317.3 1148.22 317.3"/><path class="cls-3" d="M1187.68,278.36l37.07,37.94H1150.6l37.08-37.94m0-2.87-41.83,42.81h83.65l-41.82-42.81Z"/><polygon class="cls-4" points="261.88 317.3 301.74 262.92 341.6 317.3 261.88 317.3"/><path class="cls-5" d="M301.74,264.61l37.88,51.69H263.86l37.88-51.69m0-3.38L259.91,318.3h83.66l-41.83-57.07Z"/><polygon class="cls-2" points="54.74 485.72 80.26 459.62 105.77 485.72 54.74 485.72"/><path class="cls-3" d="M80.26,461.05l23.13,23.67H57.12l23.14-23.67m0-2.87L52.37,486.72h55.77L80.26,458.18Z"/><polygon class="cls-2" points="729.06 485.72 744.71 473.71 760.35 485.72 729.06 485.72"/><path class="cls-3" d="M744.71,475l12.7,9.75H732l12.7-9.75m0-2.52-18.59,14.27H763.3l-18.59-14.27Z"/><polygon class="cls-4" points="921.4 144.72 966.19 62.21 1010.99 144.72 921.4 144.72"/><path class="cls-5" d="M966.19,64.3l43.12,79.42H923.08L966.19,64.3m0-4.19-46.47,85.61h92.95L966.19,60.11Z"/><polygon class="cls-2" points="1590.56 144.72 1630.64 76.36 1670.73 144.72 1590.56 144.72"/><path class="cls-3" d="M1630.64,78.33,1669,143.72h-76.67l38.33-65.39m0-4-41.82,71.34h83.65l-41.83-71.34Z"/><polygon class="cls-2" points="261.29 144.72 301.74 20.54 342.19 144.72 261.29 144.72"/><path class="cls-3" d="M301.74,23.76l39.07,120H262.67l39.07-120m0-6.45L259.91,145.72h83.66L301.74,17.31Z"/><polygon class="cls-2" points="1374.17 317.3 1409.16 277.02 1444.15 317.3 1374.17 317.3"/><path class="cls-3" d="M1409.16,278.54,1442,316.3h-65.58l32.79-37.76m0-3.05L1372,318.3h74.36l-37.18-42.81Z"/><polygon class="cls-2" points="1373.51 144.72 1409.16 62.62 1444.82 144.72 1373.51 144.72"/><path class="cls-3" d="M1409.16,65.13l34.13,78.59H1375l34.13-78.59m0-5L1372,145.72h74.36l-37.18-85.61Z"/><polygon class="cls-4" points="1147.45 144.72 1187.68 62.39 1227.9 144.72 1147.45 144.72"/><path class="cls-5" d="M1187.68,64.67l38.62,79.05h-77.25l38.63-79m0-4.56-41.83,85.61h83.65l-41.82-85.61Z"/><polygon class="cls-2" points="487.89 317.3 523.22 263.06 558.56 317.3 487.89 317.3"/><path class="cls-3" d="M523.22,264.89l33.49,51.41h-67l33.49-51.41m0-3.66L486,318.3H560.4l-37.18-57.07Z"/><polygon class="cls-2" points="58.4 317.3 80.26 250.19 102.11 317.3 58.4 317.3"/><path class="cls-3" d="M80.26,253.42l20.48,62.88h-41l20.49-62.88m0-6.46L57,318.3h46.47L80.26,247Z"/><polygon class="cls-4" points="704.38 144.72 744.71 48.43 785.03 144.72 704.38 144.72"/><path class="cls-5" d="M744.71,51l38.82,92.7H705.89L744.71,51m0-5.18-41.83,99.88h83.66L744.71,45.84Z"/><polygon class="cls-2" points="695.82 317.3 744.71 262.73 793.59 317.3 695.82 317.3"/><path class="cls-3" d="M744.71,264.22l46.64,52.08H698.06l46.65-52.08m0-3L693.59,318.3H795.83l-51.12-57.07Z"/><polygon class="cls-2" points="271.86 485.72 301.74 459.51 331.62 485.72 271.86 485.72"/><path class="cls-3" d="M301.74,460.84,329,484.72H274.52l27.22-23.88m0-2.66-32.53,28.54h65.06l-32.53-28.54Z"/><polygon class="cls-2" points="482.77 144.72 523.22 20.54 563.67 144.72 482.77 144.72"/><path class="cls-3" d="M523.22,23.76l39.08,120H484.15l39.07-120m0-6.45L481.4,145.72h83.65L523.22,17.31Z"/><polygon class="cls-4" points="1591.19 317.3 1630.64 276.93 1670.1 317.3 1591.19 317.3"/><path class="cls-5" d="M1630.64,278.36l37.08,37.94h-74.15l37.07-37.94m0-2.87-41.82,42.81h83.65l-41.83-42.81Z"/><polygon class="cls-4" points="44.37 144.72 80.26 7.01 116.14 144.72 44.37 144.72"/><path class="cls-5" d="M80.26,11l34.59,132.75H45.66L80.26,11m0-7.93L43.08,145.72h74.36L80.26,3Z"/><polygon class="cls-2" points="488.99 485.72 523.22 459.45 557.46 485.72 488.99 485.72"/><path class="cls-3" d="M523.22,460.71l31.29,24H491.93l31.29-24m0-2.53L486,486.72H560.4l-37.18-28.54Z"/><polygon class="cls-2" points="930.86 317.3 966.19 263.06 1001.53 317.3 930.86 317.3"/><path class="cls-3" d="M966.19,264.89l33.49,51.41h-67l33.49-51.41m0-3.66L929,318.3h74.36l-37.18-57.07Z"/><line class="cls-6" y1="74.92" x2="1711.21" y2="74.92"/><line class="cls-6" y1="247.37" x2="1711.21" y2="247.37"/><line class="cls-6" y1="415.48" x2="1711.21" y2="415.48"/><line class="cls-7" y1="487.23" x2="1711.21" y2="487.23"/><line class="cls-7" y1="318.83" x2="1711.21" y2="318.83"/><line class="cls-7" y1="146.39" x2="1711.21" y2="146.39"/><path class="cls-8" d="M942.19,169v6.87h-.75c-.45-2.55-.87-3.33-2.76-3.33h-2.22v5.64c0,2.07.45,3.3,2.52,3.3h1.17c2.58,0,3.51-1.44,4.26-5.19h.84v6.06H930.16v-.66c2.37-.21,2.61-.87,2.61-4V165.77c0-2.13-.33-2.52-2.7-2.79v-.66H945l0,5.7h-.81c-.75-3.78-1.83-4.83-4.59-4.83h-3.15v8.49h2.22c1.89,0,2.34-.45,2.76-2.7Z"/><path class="cls-8" d="M953.35,188.78c2,0,3.93-1.32,3.93-3.18,0-1.59-.87-2.1-4.23-2.61-4-.63-5-1.17-5-2.7,0-1,1.2-2.1,2.16-2.58a4.87,4.87,0,0,1-3.27-4.62c0-3.24,2.58-5.16,5.73-5.16a6,6,0,0,1,3.48.93,4.28,4.28,0,0,1,2.94-1.8,1.8,1.8,0,0,1,2,1.74,1.36,1.36,0,0,1-1.35,1.41c-1.26,0-1.17-1.68-1.83-1.68a2.08,2.08,0,0,0-1.32.72,5.14,5.14,0,0,1,2,3.93c0,3.18-2.73,4.95-5.85,4.95a8.75,8.75,0,0,1-1.83-.21,1.48,1.48,0,0,0-.48.93c0,.48.9.69,4.05,1.17,4,.63,5.85,1.47,5.85,4.26,0,3.24-3.93,5.28-7.2,5.28-3,0-6.51-.87-6.51-3.54,0-1.65,2.28-2.91,4-3l.15.39a3.28,3.28,0,0,0-1.44,2.58C949.36,188,951.1,188.78,953.35,188.78Zm-.66-20.13c-1.68,0-2,2.16-2,4.44,0,2.13.3,4.32,2,4.32s2.13-1.86,2.13-4.2S954.34,168.65,952.69,168.65Z"/><path class="cls-8" d="M968.71,185c-1,2.61-2.19,3.87-4.14,3.87a2,2,0,0,1-2.16-1.83,1.56,1.56,0,0,1,1.59-1.56c1,0,1.29,1.32,2.1,1.32s1.26-.72,1.74-2l.72-1.95-4.86-12.12a2.7,2.7,0,0,0-2.64-1.71v-.6l3.75.06,4.14-.06v.6c-2.22.18-2.25.78-1.74,2.07l3,7.44,2.88-7.86c.39-1.05-.3-1.62-2-1.65v-.6l3.24.06,2.25-.06v.6A2.47,2.47,0,0,0,974,170.9Z"/><path class="cls-8" d="M982.57,169.88a4.26,4.26,0,0,1,3.54-1.95c3.69,0,5.49,3.24,5.49,7.23,0,4.35-2.13,7.71-6.54,7.71a4.84,4.84,0,0,1-2.49-.66v3.36c0,2.34.27,2.88,2.79,3.12v.57h-8.49v-.57c2-.24,2.16-.66,2.16-3.3V171.92c0-2-.21-2.49-2.13-2.7v-.57l5.49-.6.18.18Zm0,1.29v9.42a2.6,2.6,0,0,0,2.31,1.47c2.16,0,2.88-3.33,2.88-6.39s-.63-6.45-2.85-6.45C984,169.22,983.2,170,982.57,171.17Z"/><path class="cls-8" d="M998.35,168.47h3.78v.84l-3.78-.06v10c0,1.65.36,2.43,1.29,2.43s1.59-.78,2.1-2.31l.57.24c-.57,1.92-1.65,3.24-3.57,3.24-2.64,0-4-1.47-4-4v-9.66h-2v-.78h2v-4l3.57-.48Z"/><path class="cls-8" d="M1611.36,167v10.59c0,3.21.35,3.81,2.9,4v.69h-9.44v-.69c2.55-.21,2.81-.84,2.81-4V167c0-3.21-.26-3.81-2.81-4v-.69h9.42V163C1611.66,163.22,1611.36,163.79,1611.36,167Z"/><path class="cls-8" d="M1620.86,170.63c.6-1.62,1.62-2.76,3.39-2.76a2.5,2.5,0,0,1,2.55,2.52,2,2,0,0,1-1.86,2.07,1.8,1.8,0,0,1-1.77-1.8c-.06-.78-.12-1.23-.48-1.23-.72,0-1.41,1.44-1.8,3.27v5.85c0,2.46.3,2.88,2.91,3.21v.57l-5-.06-3.63.06v-.57c1.92-.24,2.13-.66,2.13-3.24v-6.6c0-2-.24-2.55-2.28-2.7v-.57l5.73-.6.12.12Z"/><path class="cls-8" d="M1631.48,182.81a3.75,3.75,0,0,1-4-3.84c0-2.4,1.68-3.63,4.44-4.26a25.48,25.48,0,0,1,2.94-.45v-1.83c0-2.31-.18-3.72-1.65-3.72s-1.59.51-1.89,2.64a1.88,1.88,0,0,1-1.89,1.68,1.65,1.65,0,0,1-1.62-1.62c0-2.22,3.24-3.48,5.64-3.48,3.06,0,5,.9,5,4.11v7.41c0,1.29.18,2,.84,2s1-.72,1.26-1.29l.57.36a3.56,3.56,0,0,1-3.24,2.34,2.6,2.6,0,0,1-2.88-2.16A3.84,3.84,0,0,1,1631.48,182.81Zm1.44-1.47c.87,0,1.5-.78,2-1.71V175a8.07,8.07,0,0,0-2,.48c-1.08.42-1.62,1.41-1.62,3.09C1631.24,180,1631.87,181.34,1632.92,181.34Z"/><path class="cls-8" d="M1654.4,185.63c0,2.46.18,2.76,2.07,3v.6h-8.16v-.6c2.28-.24,2.55-.51,2.55-3.09v-4.41a3.81,3.81,0,0,1-3.3,1.71c-3.93,0-5.73-3.33-5.73-7.17,0-4.47,2.58-7.77,6.42-7.77a6,6,0,0,1,3.3,1l2.79-.81.33.18c-.21,1.5-.27,5.91-.27,7.53Zm-3.54-15.12a2.35,2.35,0,0,0-2.4-1.74c-2.19,0-2.82,3.42-2.82,6.42s.72,6.36,3,6.36a2.69,2.69,0,0,0,2.25-1.59Z"/><path class="cls-8" d="M263.65,167.75c0-3.33-.39-3.81-2.91-4V163h9.39v.69c-2.37.21-2.76.57-2.76,4v12.84c0,3.75-2.52,6-6.57,7.44l-.27-.63c2.37-1.53,3.12-3.48,3.12-6.54Z"/><path class="cls-8" d="M277.63,183.59c-3.75,0-6.63-2.85-6.63-7.47s3-7.47,6.63-7.47,6.6,2.85,6.6,7.47S281.32,183.59,277.63,183.59Zm0-14.1c-2.37,0-2.78,3.6-2.78,6.63s.44,6.63,2.81,6.63,2.76-3.6,2.76-6.63S279.94,169.49,277.6,169.49Z"/><path class="cls-8" d="M291.19,171.35c.6-1.62,1.62-2.76,3.39-2.76a2.5,2.5,0,0,1,2.55,2.52,2,2,0,0,1-1.86,2.07,1.8,1.8,0,0,1-1.77-1.8c-.06-.78-.12-1.23-.48-1.23-.72,0-1.41,1.44-1.8,3.27v5.85c0,2.46.3,2.88,2.91,3.21v.57l-5-.06-3.63.06v-.57c1.92-.24,2.13-.66,2.13-3.24v-6.6c0-2-.24-2.55-2.28-2.7v-.57l5.73-.6.12.12Z"/><path class="cls-8" d="M297.73,176.24c0-4.2,2.46-7.59,6.57-7.59a6,6,0,0,1,2.43.51v-3.57c0-2-.21-2.28-2.4-2.43v-.54l5.94-.69.24.18-.27,6.51v10.89c0,2.1.21,2.79,2.46,2.88l0,.54-5.58.66-.24-.18-.15-1.62a4.35,4.35,0,0,1-3.36,1.74C299.42,183.53,297.73,180.35,297.73,176.24Zm9-5.46a2.53,2.53,0,0,0-2.22-1.35c-2.34,0-2.94,3.24-2.94,6.3s.63,6.45,2.91,6.45a2.82,2.82,0,0,0,2.25-1.41Z"/><path class="cls-8" d="M317.59,183.53a3.75,3.75,0,0,1-4-3.84c0-2.4,1.69-3.63,4.44-4.26A25.48,25.48,0,0,1,321,175v-1.83c0-2.31-.18-3.72-1.65-3.72s-1.59.51-1.89,2.64a1.88,1.88,0,0,1-1.89,1.68,1.65,1.65,0,0,1-1.62-1.62c0-2.22,3.24-3.48,5.64-3.48,3.06,0,4.95.9,4.95,4.11v7.41c0,1.29.18,2,.84,2s1-.72,1.26-1.29l.57.36a3.56,3.56,0,0,1-3.24,2.34,2.6,2.6,0,0,1-2.88-2.16A3.84,3.84,0,0,1,317.59,183.53Zm1.44-1.47c.87,0,1.5-.78,2-1.71v-4.68a8.07,8.07,0,0,0-2,.48c-1.08.42-1.62,1.41-1.62,3.09C317.35,180.68,318,182.06,319,182.06Z"/><path class="cls-8" d="M333.1,170.87a4.29,4.29,0,0,1,8,2.34v5.91c0,2.61.15,3,1.8,3.33v.6l-3.42-.06-3.57.06v-.6c1.5-.3,1.65-.72,1.65-3.39v-5.67c0-1.68-.6-3.45-2-3.45-1.08,0-1.92.9-2.52,2.19v7.32c0,2.25.06,2.73,1.68,3v.6l-3.66-.06-3.57.06v-.6c1.77-.24,2-.63,2-3.18v-6.9c0-1.89-.21-2.31-2-2.43v-.57l5.49-.6.12.12Z"/><path class="cls-8" d="M1358.25,177.62V167c0-3.21-.21-3.78-2.73-4v-.69h9.84V163c-3,.27-3.39.87-3.39,4v11.52c0,2.16.36,2.91,2.37,2.91h.75c2.88,0,3.81-1.35,4.77-5.7h.9l-.15,6.57H1355.4v-.69C1357.92,181.43,1358.25,180.86,1358.25,177.62Z"/><path class="cls-8" d="M1376.31,174.89v.69c0,3.42.87,6,3.48,6a5.07,5.07,0,0,0,4.14-2.31l.51.48a6.62,6.62,0,0,1-5.58,3c-4,0-6.36-3-6.36-7.2,0-4,2.16-7.68,6.36-7.68,3.81,0,5.76,2.82,5.76,7Zm0-.75h4.47c0-3.06-.3-5.43-2-5.43S1376.55,170.84,1376.34,174.14Z"/><path class="cls-8" d="M1393.65,182.87a13.31,13.31,0,0,1-6-1.35l.09-5.25V166c0-3.06-.18-3.36-2.25-3.63v-.54l5.88-.72.24.18a53.81,53.81,0,0,0-.33,6.51v12.78a2.68,2.68,0,0,0,2.34,1.44c2.28,0,2.88-3.75,2.88-7,0-2.76-.63-5.82-2.4-5.82a2.43,2.43,0,0,0-1.95,1.35l-.42-.42a4,4,0,0,1,3.45-2.25c3.27,0,5.16,3.06,5.16,6.93C1400.34,179.69,1397.85,182.87,1393.65,182.87Z"/><path class="cls-8" d="M1406.25,182.81a3.75,3.75,0,0,1-4-3.84c0-2.4,1.68-3.63,4.44-4.26a25.48,25.48,0,0,1,2.94-.45v-1.83c0-2.31-.18-3.72-1.65-3.72s-1.59.51-1.89,2.64a1.88,1.88,0,0,1-1.89,1.68,1.65,1.65,0,0,1-1.62-1.62c0-2.22,3.24-3.48,5.64-3.48,3.06,0,5,.9,5,4.11v7.41c0,1.29.18,2,.84,2s1-.72,1.26-1.29l.57.36a3.56,3.56,0,0,1-3.24,2.34,2.6,2.6,0,0,1-2.88-2.16A3.84,3.84,0,0,1,1406.25,182.81Zm1.44-1.47c.87,0,1.5-.78,2-1.71V175a8.07,8.07,0,0,0-2,.48c-1.08.42-1.62,1.41-1.62,3.09C1406,180,1406.64,181.34,1407.69,181.34Z"/><path class="cls-8" d="M1421.76,170.15a4.29,4.29,0,0,1,8,2.34v5.91c0,2.61.15,3,1.8,3.33v.6l-3.42-.06-3.57.06v-.6c1.5-.3,1.65-.72,1.65-3.39v-5.67c0-1.68-.6-3.45-2-3.45-1.08,0-1.92.9-2.52,2.19v7.32c0,2.25.06,2.73,1.68,3v.6l-3.66-.06-3.57.06v-.6c1.77-.24,2-.63,2-3.18v-6.9c0-1.89-.21-2.31-2-2.43v-.57l5.49-.6.12.12Z"/><path class="cls-8" d="M1439.52,182.87c-3.75,0-6.63-2.85-6.63-7.47s3-7.47,6.63-7.47,6.6,2.85,6.6,7.47S1443.21,182.87,1439.52,182.87Zm0-14.1c-2.37,0-2.79,3.6-2.79,6.63s.45,6.63,2.82,6.63,2.76-3.6,2.76-6.63S1441.83,168.77,1439.49,168.77Z"/><path class="cls-8" d="M1453.08,170.15a4.29,4.29,0,0,1,8,2.34v5.91c0,2.61.15,3,1.8,3.33v.6l-3.42-.06-3.57.06v-.6c1.5-.3,1.65-.72,1.65-3.39v-5.67c0-1.68-.6-3.45-2-3.45-1.08,0-1.92.9-2.52,2.19v7.32c0,2.25.06,2.73,1.68,3v.6l-3.66-.06-3.57.06v-.6c1.77-.24,2-.63,2-3.18v-6.9c0-1.89-.21-2.31-2-2.43v-.57l5.49-.6.12.12Z"/><path class="cls-8" d="M1156,177.62V167c0-3.21-.21-3.78-2.73-4v-.69h9.84V163c-3,.27-3.39.87-3.39,4v11.52c0,2.16.36,2.91,2.37,2.91h.75c2.88,0,3.81-1.35,4.77-5.7h.9l-.15,6.57h-15.21v-.69C1155.67,181.43,1156,180.86,1156,177.62Z"/><path class="cls-8" d="M1175.44,178.7c0,2.28.15,2.79,1.92,3.06v.57l-3.63-.06-3.87.06v-.57c1.83-.27,2-.69,2-3.21v-7c0-1.92-.21-2.25-2-2.37v-.57l5.46-.6.09.12Zm-1.92-17.13a2.16,2.16,0,1,1-2.19,2.16A2.2,2.2,0,0,1,1173.52,161.57Z"/><path class="cls-8" d="M1186,182.87a13.31,13.31,0,0,1-6-1.35l.09-5.25V166c0-3.06-.18-3.36-2.25-3.63v-.54l5.88-.72.24.18a53.81,53.81,0,0,0-.33,6.51v12.78a2.68,2.68,0,0,0,2.34,1.44c2.28,0,2.88-3.75,2.88-7,0-2.76-.63-5.82-2.4-5.82a2.43,2.43,0,0,0-2,1.35l-.42-.42a4,4,0,0,1,3.45-2.25c3.27,0,5.16,3.06,5.16,6.93C1192.72,179.69,1190.23,182.87,1186,182.87Z"/><path class="cls-8" d="M1200.7,185c-1,2.61-2.19,3.87-4.14,3.87a2,2,0,0,1-2.16-1.83,1.56,1.56,0,0,1,1.59-1.56c1,0,1.29,1.32,2.1,1.32s1.26-.72,1.74-2l.72-1.95-4.86-12.12a2.7,2.7,0,0,0-2.64-1.71v-.6l3.75.06,4.14-.06v.6c-2.22.18-2.25.78-1.74,2.07l3,7.44,2.88-7.86c.39-1.05-.3-1.62-2-1.65v-.6l3.24.06,2.25-.06v.6a2.47,2.47,0,0,0-2.58,1.83Z"/><path class="cls-8" d="M1212.58,182.81a3.75,3.75,0,0,1-4-3.84c0-2.4,1.68-3.63,4.44-4.26a25.48,25.48,0,0,1,2.94-.45v-1.83c0-2.31-.18-3.72-1.65-3.72s-1.59.51-1.89,2.64a1.88,1.88,0,0,1-1.89,1.68,1.65,1.65,0,0,1-1.62-1.62c0-2.22,3.24-3.48,5.64-3.48,3.06,0,5,.9,5,4.11v7.41c0,1.29.18,2,.84,2s1-.72,1.26-1.29l.57.36a3.56,3.56,0,0,1-3.24,2.34,2.6,2.6,0,0,1-2.88-2.16A3.84,3.84,0,0,1,1212.58,182.81Zm1.44-1.47c.87,0,1.5-.78,2-1.71V175a8.07,8.07,0,0,0-2,.48c-1.08.42-1.62,1.41-1.62,3.09C1212.34,180,1213,181.34,1214,181.34Z"/><path class="cls-8" d="M703.55,183.2h-.9l-7.71-18.06v13.08c0,3.42.15,4,3,4.2v.63H691v-.63c2.73-.21,2.82-.78,2.82-4.11V167.39c0-3.12-.18-3.42-2.85-3.66V163h7.26l6.3,15.18,4.32-10.77A44.68,44.68,0,0,0,710.3,163h6.84v.69c-2.7.3-2.85.69-2.85,3.57v11.43c0,2.94.21,3.45,2.94,3.69v.63h-9.3v-.63c2.25-.21,2.64-.9,2.64-3.6v-13Z"/><path class="cls-8" d="M725.12,183.59c-3.75,0-6.63-2.85-6.63-7.47s3-7.47,6.63-7.47,6.6,2.85,6.6,7.47S728.81,183.59,725.12,183.59Zm0-14.1c-2.37,0-2.79,3.6-2.79,6.63s.45,6.63,2.82,6.63,2.76-3.6,2.76-6.63S727.43,169.49,725.09,169.49Z"/><path class="cls-8" d="M738.68,171.35c.6-1.62,1.62-2.76,3.39-2.76a2.5,2.5,0,0,1,2.55,2.52,2,2,0,0,1-1.86,2.07,1.8,1.8,0,0,1-1.77-1.8c-.06-.78-.12-1.23-.48-1.23-.72,0-1.41,1.44-1.8,3.27v5.85c0,2.46.3,2.88,2.91,3.21v.57l-5-.06-3.63.06v-.57c1.92-.24,2.13-.66,2.13-3.24v-6.6c0-2-.24-2.55-2.28-2.7v-.57l5.73-.6.12.12Z"/><path class="cls-8" d="M751.85,183.59c-3.75,0-6.63-2.85-6.63-7.47s3-7.47,6.63-7.47,6.6,2.85,6.6,7.47S755.54,183.59,751.85,183.59Zm0-14.1c-2.37,0-2.79,3.6-2.79,6.63s.45,6.63,2.82,6.63,2.76-3.6,2.76-6.63S754.16,169.49,751.82,169.49Z"/><path class="cls-8" d="M766.4,169.4c-1.77,0-2.31,2.67-2.31,6.3,0,3,.81,6.57,3.21,6.57a4.42,4.42,0,0,0,3.66-2l.54.54a6.08,6.08,0,0,1-5,2.82c-4.08,0-6.3-3.09-6.3-7.29s2.55-7.65,6.27-7.65c2.34,0,5,1.26,5,3.42a1.73,1.73,0,0,1-1.68,1.8A1.83,1.83,0,0,1,768,172.1C767.78,169.91,767.66,169.4,766.4,169.4Z"/><path class="cls-8" d="M778.88,169.4c-1.77,0-2.31,2.67-2.31,6.3,0,3,.81,6.57,3.21,6.57a4.42,4.42,0,0,0,3.66-2l.54.54a6.08,6.08,0,0,1-5,2.82c-4.08,0-6.3-3.09-6.3-7.29s2.55-7.65,6.27-7.65c2.34,0,5,1.26,5,3.42a1.73,1.73,0,0,1-1.68,1.8,1.83,1.83,0,0,1-1.77-1.77C780.26,169.91,780.14,169.4,778.88,169.4Z"/><path class="cls-8" d="M791.84,183.59c-3.75,0-6.63-2.85-6.63-7.47s3-7.47,6.63-7.47,6.6,2.85,6.6,7.47S795.53,183.59,791.84,183.59Zm0-14.1c-2.37,0-2.79,3.6-2.79,6.63s.45,6.63,2.82,6.63,2.76-3.6,2.76-6.63S794.15,169.49,791.81,169.49Z"/><path class="cls-8" d="M453.34,163.91a1,1,0,0,0,.54.24c.36,0,.6-.42.66-1.29h.9l0,6.69h-.84c-.63-3.78-2.13-6.06-5.31-6.06-2.4,0-3.84,1.53-3.84,3.48,0,1.68,1,2.61,4.35,3.9,4.41,1.67,6.24,3.27,6.24,6.59,0,3.84-2.88,6.16-6.54,6.16a7.07,7.07,0,0,1-4.38-1.59.94.94,0,0,0-.6-.33c-.33,0-.57.51-.63,1.43H443v-6.84h.9c.45,3.75,2.28,6.37,5.52,6.37,2.43,0,4-1.41,4-3.57,0-1.74-1.08-2.8-4.86-4.21s-5.67-3.14-5.67-6.53,2.61-5.79,6.3-5.79A7,7,0,0,1,453.34,163.91Z"/><path class="cls-8" d="M462,183.53a3.75,3.75,0,0,1-4-3.84c0-2.4,1.68-3.63,4.44-4.26a25.48,25.48,0,0,1,2.94-.45v-1.83c0-2.31-.18-3.72-1.65-3.72s-1.59.51-1.89,2.64a1.88,1.88,0,0,1-1.89,1.68,1.65,1.65,0,0,1-1.62-1.63c0-2.21,3.24-3.47,5.64-3.47,3.06,0,5,.9,5,4.11v7.41c0,1.29.18,2,.84,2s1-.73,1.26-1.29l.57.36a3.56,3.56,0,0,1-3.24,2.34,2.61,2.61,0,0,1-2.88-2.16A3.84,3.84,0,0,1,462,183.53Zm1.44-1.48c.87,0,1.5-.77,2-1.7v-4.68a8.07,8.07,0,0,0-2,.48c-1.08.42-1.62,1.4-1.62,3.09C461.77,180.68,462.4,182.05,463.45,182.05Z"/><path class="cls-8" d="M485.62,168.89c-.09.63-.18,5-.18,7.49V180c0,1.92.18,2.15,2.49,2.3v.58l-5.67.54-.15-.15-.15-2.1a4.33,4.33,0,0,1-8.22-1.95v-6.93c0-1.92-.18-2.28-2.22-2.43v-.57l5.82-.6.09.12c-.06.57-.12,4.71-.12,10,0,2.16.6,3.42,2,3.42,1.11,0,1.95-.9,2.55-2.4v-7.59c0-1.92-.21-2.28-2.13-2.43v-.57l5.73-.51Z"/><path class="cls-8" d="M488.77,176.24c0-4.2,2.46-7.59,6.57-7.59a6,6,0,0,1,2.43.51v-3.57c0-2-.21-2.28-2.4-2.43v-.54l5.94-.69.24.18-.27,6.51v10.89c0,2.1.21,2.78,2.46,2.87l0,.55-5.58.66-.24-.18-.15-1.62a4.38,4.38,0,0,1-3.36,1.74C490.45,183.53,488.77,180.35,488.77,176.24Zm9-5.46a2.51,2.51,0,0,0-2.22-1.35c-2.34,0-2.94,3.24-2.94,6.3s.63,6.45,2.91,6.45a2.85,2.85,0,0,0,2.25-1.41Z"/><path class="cls-8" d="M509.8,179.42c0,2.28.15,2.79,1.92,3.05V183l-3.63,0-3.87,0v-.57c1.83-.26,2-.68,2-3.2v-7c0-1.92-.21-2.25-2-2.37v-.57l5.46-.6.09.12Zm-1.92-17.13a2.16,2.16,0,1,1-2.19,2.16A2.2,2.2,0,0,1,507.88,162.29Z"/><path class="cls-8" d="M530.8,176.78h-6.72l-.6,1.68c-1.05,3-.69,3.57,1.77,3.92V183H519v-.66c1.89-.33,2.46-1,3.51-3.92l5.73-15.87h1.17l6.21,16.28c1.11,2.95,1.44,3.31,3.39,3.51V183h-8.85v-.66c2.28-.24,2.43-.77,1.47-3.33Zm-6.42-.87h6.12l-3.06-8.61Z"/><path class="cls-8" d="M545.05,171.35c.6-1.62,1.62-2.76,3.39-2.76a2.5,2.5,0,0,1,2.55,2.52,2,2,0,0,1-1.86,2.07,1.8,1.8,0,0,1-1.77-1.81c-.06-.77-.12-1.22-.48-1.22-.72,0-1.41,1.44-1.8,3.27v5.85c0,2.45.3,2.87,2.91,3.2V183l-5,0-3.63,0v-.57c1.92-.23,2.13-.65,2.13-3.23v-6.6c0-2-.24-2.55-2.28-2.7v-.57l5.73-.6.12.12Z"/><path class="cls-8" d="M555.67,183.53a3.75,3.75,0,0,1-4-3.84c0-2.4,1.68-3.63,4.44-4.26a25.48,25.48,0,0,1,2.94-.45v-1.83c0-2.31-.18-3.72-1.65-3.72s-1.59.51-1.89,2.64a1.88,1.88,0,0,1-1.89,1.68,1.65,1.65,0,0,1-1.62-1.63c0-2.21,3.24-3.47,5.64-3.47,3.06,0,5,.9,5,4.11v7.41c0,1.29.18,2,.84,2s1-.73,1.26-1.29l.57.36a3.56,3.56,0,0,1-3.24,2.34,2.61,2.61,0,0,1-2.88-2.16A3.84,3.84,0,0,1,555.67,183.53Zm1.44-1.48c.87,0,1.5-.77,2-1.7v-4.68a8.07,8.07,0,0,0-2,.48c-1.08.42-1.62,1.4-1.62,3.09C555.43,180.68,556.06,182.05,557.11,182.05Z"/><path class="cls-8" d="M572.89,183.59a13.31,13.31,0,0,1-6-1.35L567,177V166.76c0-3.06-.18-3.36-2.25-3.63v-.54l5.88-.72.24.18a53.81,53.81,0,0,0-.33,6.51v12.78a2.68,2.68,0,0,0,2.34,1.44c2.28,0,2.88-3.75,2.88-7,0-2.76-.63-5.82-2.4-5.82a2.43,2.43,0,0,0-2,1.35l-.42-.42a4,4,0,0,1,3.45-2.25c3.27,0,5.16,3.06,5.16,6.93C579.58,180.41,577.09,183.59,572.89,183.59Z"/><path class="cls-8" d="M586.66,179.42c0,2.28.15,2.79,1.92,3.05V183L585,183l-3.87,0v-.57c1.83-.26,2-.68,2-3.2v-7c0-1.92-.21-2.25-2-2.37v-.57l5.46-.6.09.12Zm-1.92-17.13a2.16,2.16,0,1,1-2.19,2.16A2.2,2.2,0,0,1,584.74,162.29Z"/><path class="cls-8" d="M593.92,183.53a3.75,3.75,0,0,1-4-3.84c0-2.4,1.68-3.63,4.44-4.26a25.48,25.48,0,0,1,2.94-.45v-1.83c0-2.31-.18-3.72-1.65-3.72s-1.59.51-1.89,2.64a1.88,1.88,0,0,1-1.89,1.68,1.65,1.65,0,0,1-1.62-1.63c0-2.21,3.24-3.47,5.64-3.47,3.06,0,5,.9,5,4.11v7.41c0,1.29.18,2,.84,2s1-.73,1.26-1.29l.57.36a3.56,3.56,0,0,1-3.24,2.34,2.61,2.61,0,0,1-2.88-2.16A3.84,3.84,0,0,1,593.92,183.53Zm1.44-1.48c.87,0,1.5-.77,2-1.7v-4.68a8.07,8.07,0,0,0-2,.48c-1.08.42-1.62,1.4-1.62,3.09C593.68,180.68,594.31,182.05,595.36,182.05Z"/><path class="cls-8" d="M39.86,163.28H38.45c-3,0-4,1.95-4.44,5.49h-.84l0-6.45H50.06l0,6.45h-.81c-.51-3.54-1.47-5.49-4.47-5.49H43.58v14.34c0,3.15.3,3.78,3.27,4v.69H36.59v-.69c3-.24,3.27-.87,3.27-4Z"/><path class="cls-8" d="M65.12,168.17c-.09.63-.18,5-.18,7.5v3.6c0,1.92.18,2.16,2.49,2.31v.57l-5.67.54-.15-.15-.15-2.1a4.33,4.33,0,0,1-8.22-1.95v-6.93c0-1.92-.18-2.28-2.22-2.43v-.57l5.82-.6.09.12c-.06.57-.12,4.71-.12,10,0,2.16.6,3.42,2,3.42,1.11,0,2-.9,2.55-2.4v-7.59c0-1.92-.21-2.28-2.13-2.43v-.57l5.73-.51Z"/><path class="cls-8" d="M73.43,170.15a4.29,4.29,0,0,1,8,2.34v5.91c0,2.61.15,3,1.8,3.33v.6l-3.42-.06-3.57.06v-.6c1.5-.3,1.65-.72,1.65-3.39v-5.67c0-1.68-.6-3.45-2-3.45-1.08,0-1.92.9-2.52,2.19v7.32c0,2.25.06,2.73,1.68,3v.6l-3.66-.06-3.57.06v-.6c1.77-.24,2-.63,2-3.18v-6.9c0-1.89-.21-2.31-2-2.43v-.57l5.49-.6.12.12Z"/><path class="cls-8" d="M89.75,178.7c0,2.28.15,2.79,1.92,3.06v.57L88,182.27l-3.87.06v-.57c1.83-.27,2-.69,2-3.21v-7c0-1.92-.21-2.25-2-2.37v-.57l5.46-.6.09.12Zm-1.92-17.13a2.16,2.16,0,1,1-2.19,2.16A2.2,2.2,0,0,1,87.83,161.57Z"/><path class="cls-8" d="M100.82,168.71a1.93,1.93,0,0,0,.69.33c.27,0,.48-.27.57-.87h.63l-.12,4.86H102c-.42-2.82-1.77-4.29-3.84-4.29a2.33,2.33,0,0,0-2.49,2.34c0,1.17.93,1.92,3,2.61,3.45,1.14,4.71,2.28,4.71,4.65,0,2.94-2,4.53-5.13,4.53a5.88,5.88,0,0,1-2.67-.72,2.43,2.43,0,0,0-.87-.36c-.36,0-.48.33-.54.84h-.63v-5h.63c.36,2.73,2,4.44,4.08,4.44,1.53,0,2.73-.72,2.73-2.22,0-1.05-.66-1.74-3.39-2.7s-4.32-2.22-4.32-4.74c0-2.79,2.28-4.47,4.86-4.47A5.28,5.28,0,0,1,100.82,168.71Z"/><path class="cls-8" d="M110.45,178.7c0,2.28.15,2.79,1.92,3.06v.57l-3.63-.06-3.87.06v-.57c1.83-.27,2-.69,2-3.21v-7c0-1.92-.21-2.25-2-2.37v-.57l5.46-.6.09.12Zm-1.92-17.13a2.16,2.16,0,1,1-2.19,2.16A2.2,2.2,0,0,1,108.53,161.57Z"/><path class="cls-8" d="M117.71,182.81a3.75,3.75,0,0,1-4-3.84c0-2.4,1.68-3.63,4.44-4.26a25.48,25.48,0,0,1,2.94-.45v-1.83c0-2.31-.18-3.72-1.65-3.72s-1.59.51-1.89,2.64A1.88,1.88,0,0,1,115.7,173a1.65,1.65,0,0,1-1.62-1.62c0-2.22,3.24-3.48,5.64-3.48,3.06,0,5,.9,5,4.11v7.41c0,1.29.18,2,.84,2s1-.72,1.26-1.29l.57.36a3.56,3.56,0,0,1-3.24,2.34,2.6,2.6,0,0,1-2.88-2.16A3.84,3.84,0,0,1,117.71,182.81Zm1.44-1.47c.87,0,1.5-.78,2-1.71V175a8.07,8.07,0,0,0-2,.48c-1.08.42-1.62,1.41-1.62,3.09C117.47,180,118.1,181.34,119.15,181.34Z"/><path class="cls-8" d="M1123.66,349.31h-6.72l-.6,1.68c-1,3-.69,3.57,1.77,3.93v.66h-6.27v-.66c1.89-.33,2.46-1.05,3.51-3.93l5.73-15.87h1.17l6.21,16.29c1.11,2.94,1.44,3.3,3.39,3.51v.66H1123v-.66c2.28-.24,2.43-.78,1.47-3.33Zm-6.42-.87h6.12l-3.06-8.61Z"/><path class="cls-8" d="M1137.88,351.86c0,2.58.27,2.91,3.06,3.09v.63l-4.86-.06-3.78.06V355c1.89-.15,2-.63,2-3.27v-9.15h-1.89v-.81h1.89v-1.2c0-4,1.89-6.36,4.83-6.36,1.86,0,3.84,1,3.84,2.85a1.64,1.64,0,0,1-1.62,1.71,1.68,1.68,0,0,1-1.71-1.68c-.06-1.86-.18-2.07-.69-2.07-.84,0-1.11,1.32-1.11,3.63v3.12h3.45v.84l-3.45,0Z"/><path class="cls-8" d="M1148.11,362c2,0,3.93-1.32,3.93-3.18,0-1.59-.87-2.1-4.23-2.61-4-.63-5-1.17-5-2.7,0-1,1.2-2.1,2.16-2.58a4.87,4.87,0,0,1-3.27-4.62c0-3.24,2.58-5.16,5.73-5.16a6,6,0,0,1,3.48.93,4.28,4.28,0,0,1,2.94-1.8,1.8,1.8,0,0,1,2,1.74,1.36,1.36,0,0,1-1.35,1.41c-1.26,0-1.17-1.68-1.83-1.68a2.08,2.08,0,0,0-1.32.72,5.14,5.14,0,0,1,2,3.93c0,3.18-2.73,4.95-5.85,4.95a8.75,8.75,0,0,1-1.83-.21,1.48,1.48,0,0,0-.48.93c0,.48.9.69,4,1.17,4,.63,5.85,1.47,5.85,4.26,0,3.24-3.93,5.28-7.2,5.28-3,0-6.51-.87-6.51-3.54,0-1.65,2.28-2.91,4.05-3l.15.39a3.28,3.28,0,0,0-1.44,2.58C1144.12,361.22,1145.86,362,1148.11,362Zm-.66-20.13c-1.68,0-2,2.16-2,4.44s.3,4.32,2,4.32,2.13-1.86,2.13-4.2S1149.1,341.9,1147.45,341.9Z"/><path class="cls-8" d="M1157.86,338.42c0-2.07-.21-2.49-2.19-2.76v-.54l5.67-.72.24.24-.18,5.55v3.09a4.17,4.17,0,0,1,3.63-2.1,4.28,4.28,0,0,1,4.47,4.44v5.91c0,2.76.12,3.18,1.92,3.48v.57l-3.81-.06-3.36.06V355c1.53-.21,1.71-.54,1.71-3.72v-5.43c0-1.83-.66-3.45-2-3.45-1,0-1.92.75-2.58,2.1v7.26c0,2.58.15,3,1.71,3.24v.57l-3.87-.06-3.42.06V355c1.83-.27,2-.63,2-3.42Z"/><path class="cls-8" d="M1176.73,356.06a3.75,3.75,0,0,1-4-3.84c0-2.4,1.68-3.63,4.44-4.26a25.48,25.48,0,0,1,2.94-.45v-1.83c0-2.31-.18-3.72-1.65-3.72s-1.59.51-1.89,2.64a1.88,1.88,0,0,1-1.89,1.68,1.65,1.65,0,0,1-1.62-1.62c0-2.22,3.24-3.48,5.64-3.48,3.06,0,5,.9,5,4.11v7.41c0,1.29.18,1.95.84,1.95s1-.72,1.26-1.29l.57.36a3.56,3.56,0,0,1-3.24,2.34,2.6,2.6,0,0,1-2.88-2.16A3.84,3.84,0,0,1,1176.73,356.06Zm1.44-1.47c.87,0,1.5-.78,2-1.71V348.2a8.07,8.07,0,0,0-2,.48c-1.08.42-1.62,1.41-1.62,3.09C1176.49,353.21,1177.12,354.59,1178.17,354.59Z"/><path class="cls-8" d="M1192.24,343.4a4.29,4.29,0,0,1,8,2.34v5.91c0,2.61.15,3,1.8,3.33v.6l-3.42-.06-3.57.06V355c1.5-.3,1.65-.72,1.65-3.39v-5.67c0-1.68-.6-3.45-2-3.45-1.08,0-1.92.9-2.52,2.19V352c0,2.25.06,2.73,1.68,3v.6l-3.66-.06-3.57.06V355c1.77-.24,2-.63,2-3.18v-6.9c0-1.89-.21-2.31-2-2.43v-.57l5.49-.6.12.12Z"/><path class="cls-8" d="M1208.56,352c0,2.28.15,2.79,1.92,3.06v.57l-3.63-.06-3.87.06V355c1.83-.27,2-.69,2-3.21v-7c0-1.92-.21-2.25-2-2.37v-.57l5.46-.6.09.12Zm-1.92-17.13a2.16,2.16,0,1,1-2.19,2.16A2.2,2.2,0,0,1,1206.64,334.82Z"/><path class="cls-8" d="M1219.63,342a1.93,1.93,0,0,0,.69.33c.27,0,.48-.27.57-.87h.63l-.12,4.86h-.63c-.42-2.82-1.77-4.29-3.84-4.29a2.33,2.33,0,0,0-2.49,2.34c0,1.17.93,1.92,3,2.61,3.45,1.14,4.71,2.28,4.71,4.65,0,2.94-2,4.53-5.13,4.53a5.88,5.88,0,0,1-2.67-.72,2.43,2.43,0,0,0-.87-.36c-.36,0-.48.33-.54.84h-.63v-5h.63c.36,2.73,2,4.44,4.08,4.44,1.53,0,2.73-.72,2.73-2.22,0-1-.66-1.74-3.39-2.7s-4.32-2.22-4.32-4.74c0-2.79,2.28-4.47,4.86-4.47A5.28,5.28,0,0,1,1219.63,342Z"/><path class="cls-8" d="M1229,341.72h3.78v.84l-3.78-.06v10c0,1.65.36,2.43,1.29,2.43s1.59-.78,2.1-2.31l.57.24c-.57,1.92-1.65,3.24-3.57,3.24-2.64,0-4-1.47-4-4V342.5h-2v-.78h2v-4l3.57-.48Z"/><path class="cls-8" d="M1238.17,356.06a3.75,3.75,0,0,1-4-3.84c0-2.4,1.68-3.63,4.44-4.26a25.48,25.48,0,0,1,2.94-.45v-1.83c0-2.31-.18-3.72-1.65-3.72s-1.59.51-1.89,2.64a1.88,1.88,0,0,1-1.89,1.68,1.65,1.65,0,0,1-1.62-1.62c0-2.22,3.24-3.48,5.64-3.48,3.06,0,5,.9,5,4.11v7.41c0,1.29.18,1.95.84,1.95s1-.72,1.26-1.29l.57.36a3.56,3.56,0,0,1-3.24,2.34,2.6,2.6,0,0,1-2.88-2.16A3.84,3.84,0,0,1,1238.17,356.06Zm1.44-1.47c.87,0,1.5-.78,2-1.71V348.2a8.07,8.07,0,0,0-2,.48c-1.08.42-1.62,1.41-1.62,3.09C1237.93,353.21,1238.56,354.59,1239.61,354.59Z"/><path class="cls-8" d="M1253.68,343.4a4.29,4.29,0,0,1,8,2.34v5.91c0,2.61.15,3,1.79,3.33v.6l-3.42-.06-3.56.06V355c1.5-.3,1.65-.72,1.65-3.39v-5.67c0-1.68-.6-3.45-2-3.45-1.08,0-1.92.9-2.52,2.19V352c0,2.25.06,2.73,1.68,3v.6l-3.66-.06-3.57.06V355c1.77-.24,2-.63,2-3.18v-6.9c0-1.89-.21-2.31-2-2.43v-.57l5.49-.6.12.12Z"/><path class="cls-8" d="M267.69,349.31H261l-.6,1.67c-1.05,3-.69,3.58,1.77,3.93v.66h-6.27v-.66c1.89-.33,2.46-1.05,3.51-3.93l5.73-15.86h1.17l6.21,16.28c1.11,3,1.44,3.3,3.39,3.51v.66H267v-.66c2.28-.24,2.43-.77,1.47-3.33Zm-6.42-.87h6.12l-3.06-8.61Z"/><path class="cls-8" d="M278.4,338.15c0-1.86-.24-2.19-2-2.52v-.51l5.61-.72.21.24-.24,5.55v11.67c0,2.3.18,2.84,1.92,3.12v.59l-3.78-.05-3.66.05V355c1.77-.21,2-.75,2-3.3Z"/><path class="cls-8" d="M291.75,362c2,0,3.93-1.32,3.93-3.18,0-1.59-.87-2.1-4.23-2.61-4-.62-5-1.17-5-2.7,0-1,1.2-2.09,2.16-2.58a4.86,4.86,0,0,1-3.27-4.61c0-3.24,2.58-5.16,5.73-5.16a6,6,0,0,1,3.48.93,4.28,4.28,0,0,1,2.94-1.8,1.8,1.8,0,0,1,2,1.74,1.36,1.36,0,0,1-1.35,1.41c-1.26,0-1.17-1.69-1.83-1.69a2.09,2.09,0,0,0-1.32.73,5.13,5.13,0,0,1,2,3.93c0,3.18-2.73,4.94-5.85,4.94a8.75,8.75,0,0,1-1.83-.21,1.48,1.48,0,0,0-.48.94c0,.47.9.68,4.05,1.17,4,.63,5.85,1.46,5.85,4.25,0,3.24-3.93,5.28-7.2,5.28-3,0-6.51-.87-6.51-3.54,0-1.65,2.28-2.9,4.05-3l.15.39a3.28,3.28,0,0,0-1.44,2.58C287.76,361.21,289.5,362,291.75,362Zm-.66-20.12c-1.68,0-2,2.16-2,4.44s.3,4.31,2,4.31,2.13-1.85,2.13-4.19S292.74,341.9,291.09,341.9Z"/><path class="cls-8" d="M303.42,348.14v.68c0,3.42.87,6,3.48,6a5.08,5.08,0,0,0,4.14-2.32l.51.48a6.61,6.61,0,0,1-5.58,3c-4,0-6.36-3-6.36-7.2,0-4,2.16-7.68,6.36-7.68,3.81,0,5.76,2.82,5.76,7Zm0-.75h4.47c0-3.07-.3-5.43-2-5.43S303.66,344.09,303.45,347.39Z"/><path class="cls-8" d="M318.57,343.88c.6-1.62,1.62-2.76,3.39-2.76a2.5,2.5,0,0,1,2.55,2.52,2,2,0,0,1-1.86,2.07,1.8,1.8,0,0,1-1.77-1.81c-.06-.77-.12-1.22-.48-1.22-.72,0-1.41,1.43-1.8,3.26v5.85c0,2.46.3,2.88,2.91,3.21v.57l-5-.05-3.63.05V355c1.92-.23,2.13-.65,2.13-3.23v-6.6c0-2-.24-2.55-2.28-2.7v-.57l5.73-.6.12.12Z"/><path class="cls-8" d="M330.72,351.94c0,2.29.15,2.79,1.92,3.06v.57l-3.63-.05-3.87.05V355c1.83-.27,2-.69,2-3.21v-7c0-1.92-.21-2.25-2-2.37v-.57l5.46-.6.09.12Zm-1.92-17.12a2.16,2.16,0,1,1-2.19,2.16A2.2,2.2,0,0,1,328.8,334.82Z"/><path class="cls-8" d="M338,356.06a3.75,3.75,0,0,1-4-3.84c0-2.41,1.68-3.63,4.44-4.27a25.13,25.13,0,0,1,2.94-.44v-1.83c0-2.32-.18-3.72-1.65-3.72s-1.59.51-1.89,2.64a1.87,1.87,0,0,1-1.89,1.67,1.65,1.65,0,0,1-1.62-1.62c0-2.21,3.24-3.47,5.64-3.47,3.06,0,4.95.9,4.95,4.1v7.41c0,1.29.18,2,.84,2s1-.73,1.26-1.29l.57.35a3.57,3.57,0,0,1-3.24,2.35,2.61,2.61,0,0,1-2.88-2.16A3.85,3.85,0,0,1,338,356.06Zm1.44-1.48c.87,0,1.5-.77,2-1.71v-4.68a8.55,8.55,0,0,0-2,.49c-1.08.42-1.62,1.4-1.62,3.09C337.74,353.2,338.37,354.58,339.42,354.58Z"/><path class="cls-8" d="M1371.2,340.28v10.59c0,3.15.3,3.81,2.72,4v.69h-9.05v-.69c2.22-.21,2.61-.57,2.61-4V340.28c0-3.45-.39-3.81-2.64-4v-.69h8.91v.69C1371.53,336.47,1371.2,337.13,1371.2,340.28Zm6.44-1.59c1.24-1.44,1.15-2.31-1.38-2.43v-.69h7.12v.69a5.78,5.78,0,0,0-4.26,2.49l-4.38,5.31,4.61,6.81c2.32,3.42,3,3.78,4.74,4v.69h-8.48v-.69c1.71-.21,1.71-.78-.52-4l-3.42-5Z"/><path class="cls-8" d="M1396.75,341.42c-.08.63-.17,5-.17,7.5v3.6c0,1.92.17,2.16,2.48,2.31v.57l-5.67.54-.14-.15-.16-2.1a4.32,4.32,0,0,1-8.21-1.95v-6.93c0-1.92-.18-2.28-2.22-2.43v-.57l5.82-.6.09.12c-.07.57-.12,4.71-.12,10.05,0,2.16.59,3.42,2,3.42,1.11,0,2-.9,2.54-2.4v-7.59c0-1.92-.21-2.28-2.12-2.43v-.57l5.72-.51Z"/><path class="cls-8" d="M1398.77,341.72l3.48.06,3.87-.06v.6c-1.45.09-1.8.54-1.53,1.29l2.91,8,2.37-6.18-.54-1.44a2.45,2.45,0,0,0-2.37-1.68v-.6l3.54.06,3.71-.06v.6c-1.46.12-2.12.63-1.79,1.44l3,8,2.7-7.71c.45-1.26,0-1.59-1.64-1.71v-.6l3,.06,2.43-.06v.6c-1.68.15-2.16.45-2.58,1.62L1415,356.12h-1l-3.53-9.33-3.57,9.33h-1L1401.25,344c-.41-1.11-.89-1.59-2.48-1.68Z"/><path class="cls-8" d="M1425.86,356.06a3.74,3.74,0,0,1-4-3.84c0-2.4,1.68-3.63,4.44-4.26a25.16,25.16,0,0,1,2.94-.45v-1.83c0-2.31-.19-3.72-1.65-3.72s-1.59.51-1.89,2.64a1.88,1.88,0,0,1-1.9,1.68,1.65,1.65,0,0,1-1.61-1.62c0-2.22,3.23-3.48,5.64-3.48,3.05,0,4.94.9,4.94,4.11v7.41c0,1.29.19,1.95.84,1.95s1-.72,1.27-1.29l.56.36a3.55,3.55,0,0,1-3.23,2.34,2.59,2.59,0,0,1-2.88-2.16A3.85,3.85,0,0,1,1425.86,356.06Zm1.43-1.47c.88,0,1.5-.78,2-1.71V348.2a7.88,7.88,0,0,0-2,.48c-1.08.42-1.62,1.41-1.62,3.09C1425.62,353.21,1426.25,354.59,1427.29,354.59Z"/><path class="cls-8" d="M1441.39,352c0,2.28.15,2.79,1.92,3.06v.57l-3.63-.06-3.87.06V355c1.83-.27,2-.69,2-3.21v-7c0-1.92-.21-2.25-2-2.37v-.57l5.46-.6.09.12Zm-1.92-17.13a2.16,2.16,0,1,1-2.18,2.16A2.2,2.2,0,0,1,1439.47,334.82Z"/><path class="cls-8" d="M1449.52,341.72h3.78v.84l-3.78-.06v10c0,1.65.36,2.43,1.29,2.43s1.59-.78,2.1-2.31l.57.24c-.57,1.92-1.65,3.24-3.57,3.24-2.64,0-4-1.47-4-4V342.5h-2v-.78h2v-4l3.57-.48Z"/><path class="cls-8" d="M479.74,355.73h-.9l-7.71-18.06v13.07c0,3.42.15,4,3,4.2v.63h-6.9v-.63c2.73-.21,2.82-.78,2.82-4.11V339.92c0-3.12-.18-3.42-2.85-3.66v-.69h7.26l6.3,15.17L485.05,340a44.68,44.68,0,0,0,1.44-4.41h6.84v.69c-2.7.3-2.85.69-2.85,3.57v11.42c0,2.94.21,3.45,2.94,3.69v.63h-9.3v-.63c2.25-.21,2.64-.9,2.64-3.59v-13Z"/><path class="cls-8" d="M498.7,356.06a3.75,3.75,0,0,1-4-3.84c0-2.41,1.68-3.63,4.44-4.27a25.13,25.13,0,0,1,2.94-.44v-1.83c0-2.32-.18-3.72-1.65-3.72s-1.59.51-1.89,2.64a1.87,1.87,0,0,1-1.89,1.67,1.65,1.65,0,0,1-1.62-1.62c0-2.21,3.24-3.47,5.64-3.47,3.06,0,5,.9,5,4.1v7.41c0,1.29.18,2,.84,2s1-.73,1.26-1.29l.57.35a3.57,3.57,0,0,1-3.24,2.35,2.61,2.61,0,0,1-2.88-2.16A3.85,3.85,0,0,1,498.7,356.06Zm1.44-1.48c.87,0,1.5-.77,2-1.71v-4.68a8.55,8.55,0,0,0-2,.49c-1.08.42-1.62,1.4-1.62,3.09C498.46,353.2,499.09,354.58,500.14,354.58Z"/><path class="cls-8" d="M510.67,338.15c0-1.86-.24-2.19-2-2.52v-.51l5.61-.72.21.24-.24,5.55v11.67c0,2.3.18,2.84,1.92,3.12v.59l-3.78-.05-3.66.05V355c1.77-.21,2-.75,2-3.3Z"/><path class="cls-8" d="M521.59,356.06a3.75,3.75,0,0,1-4-3.84c0-2.41,1.68-3.63,4.44-4.27a25.13,25.13,0,0,1,2.94-.44v-1.83c0-2.32-.18-3.72-1.65-3.72s-1.59.51-1.89,2.64a1.87,1.87,0,0,1-1.89,1.67,1.65,1.65,0,0,1-1.62-1.62c0-2.21,3.24-3.47,5.64-3.47,3.06,0,4.95.9,4.95,4.1v7.41c0,1.29.18,2,.84,2s1-.73,1.26-1.29l.57.35a3.57,3.57,0,0,1-3.24,2.35,2.61,2.61,0,0,1-2.88-2.16A3.85,3.85,0,0,1,521.59,356.06Zm1.44-1.48c.87,0,1.5-.77,2-1.71v-4.68a8.55,8.55,0,0,0-2,.49c-1.08.42-1.62,1.4-1.62,3.09C521.35,353.2,522,354.58,523,354.58Z"/><path class="cls-8" d="M537,358.24c-1,2.61-2.19,3.87-4.14,3.87a2,2,0,0,1-2.16-1.83,1.56,1.56,0,0,1,1.59-1.56c1,0,1.29,1.32,2.1,1.32s1.26-.72,1.74-2l.72-1.94L532,344c-.45-1.1-1.2-1.55-2.64-1.71v-.59l3.75,0,4.14,0v.59c-2.22.19-2.25.79-1.74,2.08l3,7.43,2.88-7.85c.39-1.05-.3-1.62-2-1.66v-.59l3.24,0,2.25,0v.59a2.48,2.48,0,0,0-2.58,1.84Z"/><path class="cls-8" d="M552.76,342a1.93,1.93,0,0,0,.69.33c.27,0,.48-.27.57-.87h.63l-.12,4.85h-.63c-.42-2.81-1.77-4.29-3.84-4.29a2.33,2.33,0,0,0-2.49,2.34c0,1.17.93,1.92,3,2.62,3.45,1.13,4.71,2.28,4.71,4.64,0,2.94-2,4.53-5.13,4.53a6,6,0,0,1-2.67-.71,2.3,2.3,0,0,0-.87-.37c-.36,0-.48.33-.54.84h-.63v-5h.63c.36,2.74,1.95,4.45,4.08,4.45,1.53,0,2.73-.73,2.73-2.23,0-1.05-.66-1.73-3.39-2.69s-4.32-2.23-4.32-4.74c0-2.79,2.28-4.47,4.86-4.47A5.28,5.28,0,0,1,552.76,342Z"/><path class="cls-8" d="M562.39,351.94c0,2.29.15,2.79,1.92,3.06v.57l-3.63-.05-3.87.05V355c1.83-.27,2-.69,2-3.21v-7c0-1.92-.21-2.25-2-2.37v-.57l5.46-.6.09.12Zm-1.92-17.12a2.16,2.16,0,1,1-2.19,2.16A2.2,2.2,0,0,1,560.47,334.82Z"/><path class="cls-8" d="M569.65,356.06a3.75,3.75,0,0,1-4-3.84c0-2.41,1.68-3.63,4.44-4.27a25.13,25.13,0,0,1,2.94-.44v-1.83c0-2.32-.18-3.72-1.65-3.72s-1.59.51-1.89,2.64a1.87,1.87,0,0,1-1.89,1.67,1.65,1.65,0,0,1-1.62-1.62c0-2.21,3.24-3.47,5.64-3.47,3.06,0,5,.9,5,4.1v7.41c0,1.29.18,2,.84,2s1-.73,1.26-1.29l.57.35a3.57,3.57,0,0,1-3.24,2.35,2.61,2.61,0,0,1-2.88-2.16A3.85,3.85,0,0,1,569.65,356.06Zm1.44-1.48c.87,0,1.5-.77,2-1.71v-4.68a8.55,8.55,0,0,0-2,.49c-1.08.42-1.62,1.4-1.62,3.09C569.41,353.2,570,354.58,571.09,354.58Z"/><path class="cls-8" d="M36.76,355.73h-.9l-7.71-18.06v13.08c0,3.42.15,3.95,3,4.19v.64h-6.9v-.64c2.73-.2,2.82-.77,2.82-4.1V339.92c0-3.12-.18-3.42-2.85-3.66v-.69h7.26l6.3,15.18L42.07,340a44.68,44.68,0,0,0,1.43-4.41h6.84v.69c-2.69.3-2.84.69-2.84,3.57v11.43c0,2.93.21,3.44,2.93,3.68v.64H41.14v-.64c2.25-.2,2.63-.9,2.63-3.59v-13Z"/><path class="cls-8" d="M55.72,356.06a3.75,3.75,0,0,1-4-3.84c0-2.4,1.68-3.63,4.44-4.27a27.48,27.48,0,0,1,2.94-.44v-1.83c0-2.32-.18-3.72-1.65-3.72s-1.59.51-1.89,2.64a1.87,1.87,0,0,1-1.89,1.67,1.65,1.65,0,0,1-1.62-1.61c0-2.22,3.24-3.48,5.64-3.48,3.06,0,4.94.9,4.94,4.1v7.41c0,1.3.19,2,.84,2s1-.72,1.26-1.29l.57.35a3.54,3.54,0,0,1-3.23,2.35,2.6,2.6,0,0,1-2.88-2.16A3.87,3.87,0,0,1,55.72,356.06Zm1.44-1.47c.86,0,1.5-.78,2-1.72v-4.68a8.55,8.55,0,0,0-2,.49c-1.08.42-1.62,1.41-1.62,3.09C55.48,353.2,56.11,354.59,57.16,354.59Z"/><path class="cls-8" d="M67.69,338.15c0-1.86-.25-2.19-2-2.52v-.51l5.6-.72.21.24-.24,5.55v11.67c0,2.31.18,2.84,1.92,3.12v.6l-3.78-.06-3.65.06V355c1.77-.21,2-.75,2-3.3Z"/><path class="cls-8" d="M74.59,348.77c0-4.2,2.45-7.59,6.56-7.59a6,6,0,0,1,2.43.51v-3.57c0-1.95-.21-2.28-2.4-2.43v-.54l5.94-.69.24.18-.27,6.51V352c0,2.11.21,2.8,2.46,2.89l0,.53-5.58.66-.24-.17-.15-1.62a4.35,4.35,0,0,1-3.36,1.74C76.27,356.06,74.59,352.87,74.59,348.77Zm9-5.46A2.53,2.53,0,0,0,81.36,342c-2.34,0-2.94,3.23-2.94,6.3s.63,6.44,2.92,6.44a2.8,2.8,0,0,0,2.24-1.41Z"/><path class="cls-8" d="M95.62,351.94c0,2.29.15,2.8,1.92,3.07v.57l-3.63-.06-3.87.06V355c1.83-.27,2-.69,2-3.22v-7c0-1.92-.21-2.25-2-2.37v-.57l5.46-.6.09.12ZM93.7,334.82A2.16,2.16,0,1,1,91.51,337,2.2,2.2,0,0,1,93.7,334.82Z"/><path class="cls-8" d="M97.48,341.72l3.48,0,4.31,0v.6c-1.56.09-2.16.51-1.74,1.68l2.67,7.74,2.7-7.32c.57-1.59.18-2-1.74-2.1v-.6l3.06,0,2.28,0v.6c-1.68.15-2.13.62-2.67,2.1l-4.29,11.69h-1L99.9,344a2.36,2.36,0,0,0-2.42-1.68Z"/><path class="cls-8" d="M116,348.14v.69c0,3.42.86,6,3.47,6a5.08,5.08,0,0,0,4.14-2.32l.51.48a6.61,6.61,0,0,1-5.58,3c-4,0-6.35-3-6.35-7.2,0-4,2.16-7.68,6.35-7.68,3.81,0,5.76,2.82,5.76,7Zm0-.75h4.47c0-3.06-.3-5.43-2-5.43S116.19,344.09,116,347.39Z"/><path class="cls-8" d="M133.77,342a1.93,1.93,0,0,0,.69.33c.27,0,.48-.27.57-.87h.63l-.12,4.85h-.63c-.42-2.81-1.77-4.28-3.84-4.28a2.32,2.32,0,0,0-2.48,2.34c0,1.17.92,1.92,3,2.61,3.45,1.14,4.71,2.28,4.71,4.65,0,2.93-2,4.52-5.13,4.52a6,6,0,0,1-2.67-.71,2.3,2.3,0,0,0-.87-.37c-.36,0-.48.33-.54.84h-.63v-5h.63c.36,2.74,2,4.45,4.08,4.45,1.53,0,2.73-.72,2.73-2.22,0-1.06-.66-1.74-3.39-2.7s-4.32-2.22-4.32-4.74c0-2.79,2.28-4.47,4.86-4.47A5.28,5.28,0,0,1,133.77,342Z"/><path class="cls-8" d="M697.53,350.86c0,3.33.54,3.79,3.57,4v.69H690.87v-.69c2.13-.21,2.94-.69,2.94-4v-12c0-1.89-.63-2.37-2.94-2.64v-.69h9c4,0,7.14,1.68,7.14,5.61,0,4.26-3.51,6.42-8.25,6.59l-.18-.71c3.42-.37,4.47-2.2,4.47-5.58,0-3-1.38-5-4.08-5h-1.47Z"/><path class="cls-8" d="M711.87,356.06a3.75,3.75,0,0,1-4-3.84c0-2.41,1.68-3.63,4.44-4.27a25.13,25.13,0,0,1,2.94-.44v-1.83c0-2.32-.18-3.72-1.65-3.72s-1.59.51-1.89,2.64a1.87,1.87,0,0,1-1.89,1.67,1.65,1.65,0,0,1-1.62-1.62c0-2.21,3.24-3.47,5.64-3.47,3.06,0,5,.9,5,4.1v7.41c0,1.29.18,2,.84,2s1-.73,1.26-1.29l.57.35a3.57,3.57,0,0,1-3.24,2.35,2.61,2.61,0,0,1-2.88-2.16A3.85,3.85,0,0,1,711.87,356.06Zm1.44-1.48c.87,0,1.5-.77,2-1.71v-4.68a8.55,8.55,0,0,0-2,.49c-1.08.42-1.62,1.4-1.62,3.09C711.63,353.2,712.26,354.58,713.31,354.58Z"/><path class="cls-8" d="M723.84,338c0-1.8-.36-2.1-2.13-2.4v-.51l5.67-.72.21.24-.21,5.55v11.67c0,2.39.24,2.84,1.62,3.12v.59l-3.15-.05-4.08.05V355c1.71-.25,2.07-.75,2.07-3.3Zm3.78,9.92,3.72-3.51a2.09,2.09,0,0,0,.78-1.34c0-.42-.36-.66-1.41-.75v-.63h5.94v.63a6.84,6.84,0,0,0-4.2,2.13l-2.07,1.95,3.87,5.79c1.35,2,1.86,2.55,3.3,2.76v.59h-7V355c1-.16,1.17-.61.69-1.36Z"/><path class="cls-8" d="M743.58,351.94c0,2.29.15,2.79,1.92,3.06v.57l-3.63-.05-3.87.05V355c1.83-.27,2-.69,2-3.21v-7c0-1.92-.21-2.25-2-2.37v-.57l5.46-.6.09.12Zm-1.92-17.12a2.16,2.16,0,1,1-2.19,2.16A2.2,2.2,0,0,1,741.66,334.82Z"/><path class="cls-8" d="M754.65,342a1.93,1.93,0,0,0,.69.33c.27,0,.48-.27.57-.87h.63l-.12,4.85h-.63C755.37,343.46,754,342,752,342a2.33,2.33,0,0,0-2.49,2.34c0,1.17.93,1.92,3,2.62,3.45,1.13,4.71,2.28,4.71,4.64,0,2.94-2,4.53-5.13,4.53a6,6,0,0,1-2.67-.71,2.3,2.3,0,0,0-.87-.37c-.36,0-.48.33-.54.84h-.63v-5H748c.36,2.74,2,4.45,4.08,4.45,1.53,0,2.73-.73,2.73-2.23,0-1.05-.66-1.73-3.39-2.69s-4.32-2.23-4.32-4.74c0-2.79,2.28-4.47,4.86-4.47A5.28,5.28,0,0,1,754.65,342Z"/><path class="cls-8" d="M764,341.72h3.78v.84L764,342.5v10c0,1.64.36,2.42,1.29,2.42s1.59-.78,2.1-2.3l.57.23c-.57,1.92-1.65,3.24-3.57,3.24-2.64,0-4-1.46-4-4V342.5h-2v-.78h2v-4l3.57-.48Z"/><path class="cls-8" d="M773.19,356.06a3.75,3.75,0,0,1-4-3.84c0-2.41,1.68-3.63,4.44-4.27a25.13,25.13,0,0,1,2.94-.44v-1.83c0-2.32-.18-3.72-1.65-3.72s-1.59.51-1.89,2.64a1.87,1.87,0,0,1-1.89,1.67,1.65,1.65,0,0,1-1.62-1.62c0-2.21,3.24-3.47,5.64-3.47,3.06,0,4.95.9,4.95,4.1v7.41c0,1.29.18,2,.84,2s1-.73,1.26-1.29l.57.35a3.57,3.57,0,0,1-3.24,2.35,2.61,2.61,0,0,1-2.88-2.16A3.85,3.85,0,0,1,773.19,356.06Zm1.44-1.48c.87,0,1.5-.77,2-1.71v-4.68a8.55,8.55,0,0,0-2,.49c-1.08.42-1.62,1.4-1.62,3.09C773,353.2,773.58,354.58,774.63,354.58Z"/><path class="cls-8" d="M788.7,343.4a4.29,4.29,0,0,1,8,2.33v5.92c0,2.6.15,3,1.8,3.33v.59l-3.42-.05-3.57.05V355c1.5-.31,1.65-.73,1.65-3.4v-5.66c0-1.69-.6-3.45-2-3.45-1.08,0-1.92.89-2.52,2.18V352c0,2.25.06,2.72,1.68,3v.59l-3.66-.05-3.57.05V355c1.77-.25,2-.63,2-3.19V344.9c0-1.89-.21-2.31-2-2.43v-.57l5.49-.6.12.12Z"/><path class="cls-8" d="M1591.24,336.44a1,1,0,0,0,.54.24c.36,0,.6-.42.66-1.29h.9l0,6.69h-.84c-.63-3.78-2.13-6.06-5.31-6.06-2.4,0-3.84,1.53-3.84,3.48,0,1.68,1,2.61,4.35,3.9,4.41,1.68,6.24,3.27,6.24,6.6,0,3.84-2.88,6.15-6.54,6.15a7.07,7.07,0,0,1-4.38-1.59.94.94,0,0,0-.6-.33c-.33,0-.57.51-.63,1.44h-.9v-6.84h.9c.45,3.75,2.28,6.36,5.52,6.36,2.43,0,4-1.41,4-3.57,0-1.74-1.08-2.79-4.86-4.2s-5.67-3.15-5.67-6.54,2.61-5.79,6.3-5.79A7,7,0,0,1,1591.24,336.44Z"/><path class="cls-8" d="M1602.82,356.12c-3.75,0-6.63-2.85-6.63-7.47s3-7.47,6.63-7.47,6.6,2.85,6.6,7.47S1606.51,356.12,1602.82,356.12Zm0-14.1c-2.37,0-2.79,3.6-2.79,6.63s.45,6.63,2.82,6.63,2.76-3.6,2.76-6.63S1605.13,342,1602.79,342Z"/><path class="cls-8" d="M1616.38,343.52a4.24,4.24,0,0,1,7.68.21,4.54,4.54,0,0,1,4-2.55,4.15,4.15,0,0,1,4.26,4.47v5.94c0,2.73.18,3.18,2,3.39v.6l-3.57-.06-3.63.06V355c1.56-.21,1.68-.72,1.68-3.66v-5.46c0-1.62-.54-3.36-1.8-3.36s-2.07,1-2.61,2.31v7.11c0,2.37.21,2.85,1.59,3.06v.6l-3.21-.06-3.51.06V355c1.38-.21,1.56-.72,1.56-2.91v-6.21c0-1.68-.51-3.36-1.77-3.36s-2.19,1-2.64,2.52v6.9c0,2.4.18,2.82,1.71,3.06v.6l-3.75-.06-3.45.06V355c1.86-.24,1.92-.6,1.92-3.24V344.9c0-1.92-.15-2.25-2-2.43v-.57l5.46-.6.12.12Z"/><path class="cls-8" d="M1639.54,356.06a3.75,3.75,0,0,1-4-3.84c0-2.4,1.68-3.63,4.44-4.26a25.48,25.48,0,0,1,2.94-.45v-1.83c0-2.31-.18-3.72-1.65-3.72s-1.59.51-1.89,2.64a1.88,1.88,0,0,1-1.89,1.68,1.65,1.65,0,0,1-1.62-1.62c0-2.22,3.24-3.48,5.64-3.48,3.06,0,5,.9,5,4.11v7.41c0,1.29.18,1.95.84,1.95s1-.72,1.26-1.29l.57.36a3.56,3.56,0,0,1-3.24,2.34,2.6,2.6,0,0,1-2.88-2.16A3.84,3.84,0,0,1,1639.54,356.06Zm1.44-1.47c.87,0,1.5-.78,2-1.71V348.2a8.07,8.07,0,0,0-2,.48c-1.08.42-1.62,1.41-1.62,3.09C1639.3,353.21,1639.93,354.59,1641,354.59Z"/><path class="cls-8" d="M1651.51,338.15c0-1.86-.24-2.19-2-2.52v-.51l5.61-.72.21.24-.24,5.55v11.67c0,2.31.18,2.85,1.92,3.12v.6l-3.78-.06-3.66.06V355c1.77-.21,2-.75,2-3.3Z"/><path class="cls-8" d="M1663.6,352c0,2.28.15,2.79,1.92,3.06v.57l-3.63-.06-3.87.06V355c1.83-.27,2-.69,2-3.21v-7c0-1.92-.21-2.25-2-2.37v-.57l5.46-.6.09.12Zm-1.92-17.13a2.16,2.16,0,1,1-2.19,2.16A2.2,2.2,0,0,1,1661.68,334.82Z"/><path class="cls-8" d="M1670.86,356.06a3.75,3.75,0,0,1-4-3.84c0-2.4,1.68-3.63,4.44-4.26a25.48,25.48,0,0,1,2.94-.45v-1.83c0-2.31-.18-3.72-1.65-3.72s-1.59.51-1.89,2.64a1.88,1.88,0,0,1-1.89,1.68,1.65,1.65,0,0,1-1.62-1.62c0-2.22,3.24-3.48,5.64-3.48,3.06,0,5,.9,5,4.11v7.41c0,1.29.18,1.95.84,1.95s1-.72,1.26-1.29l.57.36a3.56,3.56,0,0,1-3.24,2.34,2.6,2.6,0,0,1-2.88-2.16A3.84,3.84,0,0,1,1670.86,356.06Zm1.44-1.47c.87,0,1.5-.78,2-1.71V348.2a8.07,8.07,0,0,0-2,.48c-1.08.42-1.62,1.41-1.62,3.09C1670.62,353.21,1671.25,354.59,1672.3,354.59Z"/><path class="cls-8" d="M924.4,335.57h9.21v.69c-2.22.12-2.46.63-1.62,2.1l3.81,6.48,3-5.85c1-2,.75-2.58-1.62-2.73v-.69h6.63v.69c-2.25.18-2.88.69-4,2.91l-3.48,6.69v5.07c0,2.93.3,3.75,3,3.95v.7h-9.66v-.7c2.67-.2,3-1,3-3.95v-4.62l-4.65-7.5c-1.17-1.86-1.77-2.43-3.54-2.55Z"/><path class="cls-8" d="M944.89,348.14v.69c0,3.42.87,6,3.48,6a5.08,5.08,0,0,0,4.14-2.32l.51.48a6.61,6.61,0,0,1-5.58,3c-4,0-6.36-3-6.36-7.2,0-4,2.16-7.68,6.36-7.68,3.81,0,5.76,2.82,5.76,7Zm0-.75h4.47c0-3.06-.3-5.43-2-5.43S945.13,344.09,944.92,347.39Z"/><path class="cls-8" d="M960,343.52a4.24,4.24,0,0,1,7.68.21,4.54,4.54,0,0,1,4-2.55,4.15,4.15,0,0,1,4.26,4.47v5.94c0,2.73.18,3.18,2,3.39v.6l-3.57-.06-3.63.06V355c1.56-.21,1.68-.72,1.68-3.66v-5.46c0-1.62-.54-3.36-1.8-3.36s-2.07,1-2.61,2.31v7.11c0,2.36.21,2.85,1.59,3.06v.6l-3.21-.06-3.51.06V355c1.38-.21,1.56-.72,1.56-2.91v-6.21c0-1.68-.51-3.36-1.77-3.36s-2.19,1-2.64,2.52v6.9c0,2.4.18,2.82,1.71,3.06v.6l-3.75-.06-3.45.06V355c1.86-.24,1.92-.61,1.92-3.24V344.9c0-1.92-.15-2.25-2-2.43v-.57l5.46-.6.12.12Z"/><path class="cls-8" d="M983,348.14v.69c0,3.42.87,6,3.48,6a5.08,5.08,0,0,0,4.14-2.32l.51.48a6.61,6.61,0,0,1-5.58,3c-4,0-6.36-3-6.36-7.2,0-4,2.16-7.68,6.36-7.68,3.81,0,5.76,2.82,5.76,7Zm0-.75h4.47c0-3.06-.3-5.43-2-5.43S983.23,344.09,983,347.39Z"/><path class="cls-8" d="M998.14,343.4a4.29,4.29,0,0,1,8,2.34v5.91c0,2.61.15,3,1.8,3.33v.6l-3.42-.06-3.57.06V355c1.5-.3,1.65-.72,1.65-3.39v-5.67c0-1.68-.6-3.45-2-3.45-1.08,0-1.92.89-2.52,2.19V352c0,2.25.06,2.72,1.68,3v.6l-3.66-.06-3.57.06V355c1.77-.24,2-.63,2-3.19V344.9c0-1.89-.21-2.31-2-2.43v-.57l5.49-.6.12.12Z"/><path class="cls-8" d="M42.08,510.31v.06c3.39.42,5.4,2.31,5.4,5,0,3.84-2.67,5.61-6.9,5.61H31v-.63c2.52-.21,2.79-.78,2.79-4v-12c0-2.16-.39-2.58-2.79-2.76v-.63h8.82c3.36,0,6.54,1.71,6.54,4.86C46.37,508.42,44.48,509.92,42.08,510.31ZM39.14,510c2.52,0,3.48-1.41,3.48-4.11s-1.35-4.17-3.48-4.17H37.52V510Zm-.06.84H37.52v6.87c0,1.53.51,2.34,2.43,2.34,2.43,0,3.72-1.44,3.72-4.71C43.67,512.47,42.23,510.88,39.08,510.88Z"/><path class="cls-8" d="M53.15,521.41a3.75,3.75,0,0,1-4-3.84c0-2.4,1.68-3.63,4.44-4.26a25.48,25.48,0,0,1,2.94-.45V511c0-2.31-.18-3.72-1.65-3.72s-1.59.51-1.89,2.64a1.88,1.88,0,0,1-1.89,1.68A1.65,1.65,0,0,1,49.52,510c0-2.22,3.24-3.48,5.64-3.48,3.06,0,5,.9,5,4.11v7.41c0,1.29.18,2,.84,2s1-.72,1.26-1.29l.57.36a3.56,3.56,0,0,1-3.24,2.34,2.6,2.6,0,0,1-2.88-2.16A3.84,3.84,0,0,1,53.15,521.41Zm1.44-1.47c.87,0,1.5-.78,2-1.71v-4.68a8.07,8.07,0,0,0-2,.48c-1.08.42-1.62,1.41-1.62,3.09C52.91,518.56,53.54,519.94,54.59,519.94Z"/><path class="cls-8" d="M65.09,503.77c0-2.07-.21-2.49-2.19-2.76v-.54l5.67-.72.24.24-.18,5.55v3.09a4.17,4.17,0,0,1,3.63-2.1A4.28,4.28,0,0,1,76.73,511v5.91c0,2.76.12,3.18,1.92,3.48v.57l-3.81-.06-3.36.06v-.57c1.53-.21,1.71-.54,1.71-3.72v-5.43c0-1.83-.66-3.45-2-3.45-1,0-1.92.75-2.58,2.1v7.26c0,2.58.15,3,1.71,3.24v.57l-3.87-.06-3.42.06v-.57c1.83-.27,2-.63,2-3.42Z"/><path class="cls-8" d="M85.1,509.23c.6-1.62,1.62-2.76,3.39-2.76A2.5,2.5,0,0,1,91,509a2,2,0,0,1-1.86,2.07,1.8,1.8,0,0,1-1.77-1.8c-.06-.78-.12-1.23-.48-1.23-.72,0-1.41,1.44-1.8,3.27v5.85c0,2.46.3,2.88,2.91,3.21v.57l-5-.06-3.63.06v-.57c1.92-.24,2.13-.66,2.13-3.24v-6.6c0-2-.24-2.55-2.28-2.7v-.57l5.73-.6.12.12Z"/><path class="cls-8" d="M95.72,521.41a3.75,3.75,0,0,1-4-3.84c0-2.4,1.68-3.63,4.44-4.26a25.48,25.48,0,0,1,2.94-.45V511c0-2.31-.18-3.72-1.65-3.72s-1.59.51-1.89,2.64a1.88,1.88,0,0,1-1.89,1.68A1.65,1.65,0,0,1,92.09,510c0-2.22,3.24-3.48,5.64-3.48,3.06,0,5,.9,5,4.11v7.41c0,1.29.18,2,.84,2s1-.72,1.26-1.29l.57.36a3.56,3.56,0,0,1-3.24,2.34,2.6,2.6,0,0,1-2.88-2.16A3.84,3.84,0,0,1,95.72,521.41Zm1.44-1.47c.87,0,1.5-.78,2-1.71v-4.68a8.07,8.07,0,0,0-2,.48c-1.08.42-1.62,1.41-1.62,3.09C95.48,518.56,96.11,519.94,97.16,519.94Z"/><path class="cls-8" d="M111.26,517.3c0,2.28.15,2.79,1.92,3.06v.57l-3.63-.06-3.87.06v-.57c1.83-.27,2-.69,2-3.21v-7c0-1.92-.21-2.25-2-2.37v-.57l5.46-.6.09.12Zm-1.92-17.13a2.16,2.16,0,1,1-2.19,2.16A2.2,2.2,0,0,1,109.34,500.17Z"/><path class="cls-8" d="M119.66,508.75a4.29,4.29,0,0,1,8,2.34V517c0,2.61.15,3,1.8,3.33v.6l-3.42-.06-3.57.06v-.6c1.5-.3,1.65-.72,1.65-3.39v-5.67c0-1.68-.6-3.45-2-3.45-1.08,0-1.92.9-2.52,2.19v7.32c0,2.25.06,2.73,1.68,3v.6l-3.66-.06-3.57.06v-.6c1.77-.24,2-.63,2-3.18v-6.9c0-1.89-.21-2.31-2-2.43v-.57l5.49-.6.12.12Z"/><path class="cls-8" d="M698.19,517.27c-1.62,2.58-3.6,4.23-6.72,4.23-5.73,0-9.06-4.44-9.06-10.32,0-6,3.54-10.62,8.85-10.62,3.27,0,6.93,2.16,6.93,5a1.91,1.91,0,0,1-1.86,2,2.12,2.12,0,0,1-2-1.92c-.45-3.09-.78-4.14-3.15-4.14-3.33,0-4.41,4-4.41,8.7s1.2,10,5.34,10c2.34,0,3.9-1.26,5.28-3.42Z"/><path class="cls-8" d="M703.47,521.41a3.75,3.75,0,0,1-4-3.84c0-2.4,1.68-3.63,4.44-4.26a25.48,25.48,0,0,1,2.94-.45V511c0-2.31-.18-3.72-1.65-3.72s-1.59.51-1.89,2.64a1.88,1.88,0,0,1-1.89,1.68,1.65,1.65,0,0,1-1.62-1.62c0-2.22,3.24-3.48,5.64-3.48,3.06,0,4.95.9,4.95,4.11v7.41c0,1.29.18,2,.84,2s1-.72,1.26-1.29l.57.36a3.56,3.56,0,0,1-3.24,2.34,2.6,2.6,0,0,1-2.88-2.16A3.84,3.84,0,0,1,703.47,521.41Zm1.44-1.47c.87,0,1.5-.78,2-1.71v-4.68a8.07,8.07,0,0,0-2,.48c-1.08.42-1.62,1.41-1.62,3.09C703.23,518.56,703.86,519.94,704.91,519.94Z"/><path class="cls-8" d="M719,508.87a4.24,4.24,0,0,1,7.68.21,4.54,4.54,0,0,1,4-2.55,4.15,4.15,0,0,1,4.26,4.47v5.94c0,2.73.18,3.18,2,3.39v.6l-3.57-.06-3.63.06v-.6c1.56-.21,1.68-.72,1.68-3.66v-5.46c0-1.62-.54-3.36-1.8-3.36s-2.07,1-2.61,2.31v7.11c0,2.37.21,2.85,1.59,3.06v.6l-3.21-.06-3.51.06v-.6c1.38-.21,1.56-.72,1.56-2.91v-6.21c0-1.68-.51-3.36-1.77-3.36s-2.19,1-2.64,2.52v6.9c0,2.4.18,2.82,1.71,3.06v.6l-3.75-.06-3.45.06v-.6c1.86-.24,1.92-.6,1.92-3.24v-6.84c0-1.92-.15-2.25-2-2.43v-.57l5.46-.6.12.12Z"/><path class="cls-8" d="M745.47,521.47a13.31,13.31,0,0,1-6-1.35l.09-5.25V504.64c0-3.06-.18-3.36-2.25-3.63v-.54l5.88-.72.24.18a53.81,53.81,0,0,0-.33,6.51v12.78a2.68,2.68,0,0,0,2.34,1.44c2.28,0,2.88-3.75,2.88-7,0-2.76-.63-5.82-2.4-5.82A2.43,2.43,0,0,0,744,509.2l-.42-.42a4,4,0,0,1,3.45-2.25c3.27,0,5.16,3.06,5.16,6.93C752.16,518.29,749.67,521.47,745.47,521.47Z"/><path class="cls-8" d="M760.68,521.47c-3.75,0-6.63-2.85-6.63-7.47s3-7.47,6.63-7.47,6.6,2.85,6.6,7.47S764.37,521.47,760.68,521.47Zm0-14.1c-2.37,0-2.79,3.6-2.79,6.63s.45,6.63,2.82,6.63,2.76-3.6,2.76-6.63S763,507.37,760.65,507.37Z"/><path class="cls-8" d="M769.08,514.12c0-4.2,2.46-7.59,6.57-7.59a6,6,0,0,1,2.43.51v-3.57c0-2-.21-2.28-2.4-2.43v-.54l5.94-.69.24.18-.27,6.51v10.89c0,2.1.21,2.79,2.46,2.88l0,.54-5.58.66-.24-.18-.15-1.62a4.35,4.35,0,0,1-3.36,1.74C770.76,521.41,769.08,518.23,769.08,514.12Zm9-5.46a2.53,2.53,0,0,0-2.22-1.35c-2.34,0-2.94,3.24-2.94,6.3s.63,6.45,2.91,6.45a2.82,2.82,0,0,0,2.25-1.41Z"/><path class="cls-8" d="M790.11,517.3c0,2.28.15,2.79,1.92,3.06v.57l-3.63-.06-3.87.06v-.57c1.83-.27,2-.69,2-3.21v-7c0-1.92-.21-2.25-2-2.37v-.57l5.46-.6.09.12Zm-1.92-17.13a2.16,2.16,0,1,1-2.19,2.16A2.2,2.2,0,0,1,788.19,500.17Z"/><path class="cls-8" d="M797.37,521.41a3.75,3.75,0,0,1-4-3.84c0-2.4,1.68-3.63,4.44-4.26a25.48,25.48,0,0,1,2.94-.45V511c0-2.31-.18-3.72-1.65-3.72s-1.59.51-1.89,2.64a1.88,1.88,0,0,1-1.89,1.68,1.65,1.65,0,0,1-1.62-1.62c0-2.22,3.24-3.48,5.64-3.48,3.06,0,5,.9,5,4.11v7.41c0,1.29.18,2,.84,2s1-.72,1.26-1.29l.57.36a3.56,3.56,0,0,1-3.24,2.34,2.6,2.6,0,0,1-2.88-2.16A3.84,3.84,0,0,1,797.37,521.41Zm1.44-1.47c.87,0,1.5-.78,2-1.71v-4.68a8.07,8.07,0,0,0-2,.48c-1.08.42-1.62,1.41-1.62,3.09C797.13,518.56,797.76,519.94,798.81,519.94Z"/><path class="cls-8" d="M279.79,520.72c3.06,3,5.88,5,9.18,5a8,8,0,0,0,3.75-.9l.33.66a10.55,10.55,0,0,1-5.43,1.53c-4.56,0-7.2-1.65-11.49-5.55h-.36c-6,0-9.44-4.56-9.44-10.47s3.54-10.47,9.44-10.47,9.51,4.56,9.51,10.47C285.28,515.62,283.3,519.13,279.79,520.72Zm-4-19.14c-4.19,0-5.07,4.83-5.07,9.45s.9,9.45,5.07,9.45,5.13-4.83,5.13-9.45S279.94,501.58,275.77,501.58Z"/><path class="cls-8" d="M291.43,521.41a3.75,3.75,0,0,1-4-3.84c0-2.4,1.68-3.63,4.44-4.26a25.48,25.48,0,0,1,2.94-.45V511c0-2.31-.18-3.72-1.65-3.72s-1.59.51-1.89,2.64a1.88,1.88,0,0,1-1.89,1.68A1.65,1.65,0,0,1,287.8,510c0-2.22,3.24-3.48,5.64-3.48,3.06,0,4.95.9,4.95,4.11v7.41c0,1.29.18,2,.84,2s1-.72,1.26-1.29l.57.36a3.56,3.56,0,0,1-3.24,2.34,2.6,2.6,0,0,1-2.88-2.16A3.84,3.84,0,0,1,291.43,521.41Zm1.44-1.47c.87,0,1.5-.78,2-1.71v-4.68a8.07,8.07,0,0,0-2,.48c-1.08.42-1.62,1.41-1.62,3.09C291.19,518.56,291.82,519.94,292.87,519.94Z"/><path class="cls-8" d="M306.49,507.07h3.78v.84l-3.78-.06v10c0,1.65.36,2.43,1.29,2.43s1.59-.78,2.1-2.31l.57.24c-.57,1.92-1.65,3.24-3.57,3.24-2.64,0-4-1.47-4-4v-9.66h-2v-.78h2v-4l3.57-.48Z"/><path class="cls-8" d="M315.7,521.41a3.75,3.75,0,0,1-4-3.84c0-2.4,1.68-3.63,4.44-4.26a25.48,25.48,0,0,1,2.94-.45V511c0-2.31-.18-3.72-1.65-3.72s-1.59.51-1.89,2.64a1.88,1.88,0,0,1-1.89,1.68,1.65,1.65,0,0,1-1.62-1.62c0-2.22,3.24-3.48,5.64-3.48,3.06,0,5,.9,5,4.11v7.41c0,1.29.18,2,.84,2s1-.72,1.26-1.29l.57.36a3.56,3.56,0,0,1-3.24,2.34,2.6,2.6,0,0,1-2.88-2.16A3.84,3.84,0,0,1,315.7,521.41Zm1.44-1.47c.87,0,1.5-.78,2-1.71v-4.68a8.07,8.07,0,0,0-2,.48c-1.08.42-1.62,1.41-1.62,3.09C315.46,518.56,316.09,519.94,317.14,519.94Z"/><path class="cls-8" d="M331.21,509.23c.6-1.62,1.62-2.76,3.39-2.76a2.5,2.5,0,0,1,2.55,2.52,2,2,0,0,1-1.86,2.07,1.8,1.8,0,0,1-1.77-1.8c-.06-.78-.12-1.23-.48-1.23-.72,0-1.41,1.44-1.8,3.27v5.85c0,2.46.3,2.88,2.91,3.21v.57l-5-.06-3.63.06v-.57c1.92-.24,2.13-.66,2.13-3.24v-6.6c0-2-.24-2.55-2.28-2.7v-.57l5.73-.6.12.12Z"/><path class="cls-8" d="M512.41,506.05c0-3.69-.3-4.17-3-4.44v-.69h6.9v.69c-2.58.27-2.82.75-2.82,4.44v8.16c0,4.29-1.92,7.26-6.93,7.26-4.68,0-7.44-2.79-7.44-7.44v-8.46c0-3.24-.39-3.72-2.79-4v-.69h9.48v.69c-2.43.24-2.91.63-2.91,4v8.37c0,3.81,1.08,6.45,4.11,6.45,4,0,5.4-2.37,5.4-6.3Z"/><path class="cls-8" d="M526.12,514.66H519.4l-.6,1.68c-1,3-.69,3.57,1.77,3.93v.66H514.3v-.66c1.89-.33,2.46-1,3.51-3.93l5.73-15.87h1.17l6.21,16.29c1.11,2.94,1.44,3.3,3.39,3.51v.66h-8.85v-.66c2.28-.24,2.43-.78,1.47-3.33Zm-6.42-.87h6.12l-3.06-8.61Z"/><path class="cls-8" d="M547.06,507.58v6.87h-.75c-.45-2.55-.87-3.33-2.76-3.33h-2.22v5.64c0,2.07.45,3.3,2.52,3.3H545c2.58,0,3.51-1.44,4.26-5.19h.84v6.06H535v-.66c2.37-.21,2.61-.87,2.61-4V504.37c0-2.13-.33-2.52-2.7-2.79v-.66h14.91l0,5.7h-.81c-.75-3.78-1.83-4.83-4.59-4.83h-3.15v8.49h2.22c1.89,0,2.34-.45,2.76-2.7Z"/></g></svg>