<svg id="SFONDO" xmlns="http://www.w3.org/2000/svg" viewBox="0 0 1711.21 146.96"><defs><style>.cls-1{fill:#2e2e2d;}.cls-2{fill:#fbc54d;}.cls-2,.cls-4,.cls-6{opacity:0.5;}.cls-3{fill:#fcc54f;}.cls-4{fill:#a08b66;}.cls-5{fill:#a18c66;}.cls-6,.cls-7{fill:#f1883d;}.cls-8,.cls-9{fill:none;stroke:#a08b66;stroke-miterlimit:10;}.cls-8{stroke-dasharray:4;}</style></defs><title>testArtboard 5</title><path class="cls-1" d="M455.05,109.85h8.88c6.09,0,10.05,3.93,10.05,9.87,0,5.61-3.63,10.14-9.72,10.14h-9.09v-.72c2.34-.24,2.61-.87,2.61-4V114.53c0-3.15-.21-3.81-2.73-4Zm8.76.87H461.5v14.34c0,2.85.33,3.93,2.22,3.93h.6c4.14,0,5.28-4.59,5.28-9.09S468,110.72,463.81,110.72Z"/><path class="cls-1" d="M479.68,130.34a3.75,3.75,0,0,1-4-3.84c0-2.4,1.68-3.63,4.44-4.26a25.48,25.48,0,0,1,2.94-.45V120c0-2.31-.18-3.72-1.65-3.72s-1.59.51-1.89,2.64a1.88,1.88,0,0,1-1.89,1.68,1.65,1.65,0,0,1-1.62-1.62c0-2.22,3.24-3.48,5.64-3.48,3.06,0,4.95.9,4.95,4.11V127c0,1.29.18,2,.84,2s1-.72,1.26-1.29l.57.36a3.56,3.56,0,0,1-3.24,2.34,2.6,2.6,0,0,1-2.88-2.16A3.84,3.84,0,0,1,479.68,130.34Zm1.44-1.47c.87,0,1.5-.78,2-1.71v-4.68a8.07,8.07,0,0,0-2,.48c-1.08.42-1.62,1.41-1.62,3.09C479.44,127.49,480.07,128.87,481.12,128.87Z"/><path class="cls-1" d="M495.19,117.68a4.29,4.29,0,0,1,8,2.34v5.91c0,2.61.15,3,1.8,3.33v.6l-3.42-.06-3.57.06v-.6c1.5-.3,1.65-.72,1.65-3.39V120.2c0-1.68-.6-3.45-2-3.45-1.08,0-1.92.9-2.52,2.19v7.32c0,2.25.06,2.73,1.68,3v.6l-3.66-.06-3.57.06v-.6c1.77-.24,2-.63,2-3.18v-6.9c0-1.89-.21-2.31-2-2.43v-.57l5.49-.6.12.12Z"/><path class="cls-1" d="M511.51,126.23c0,2.28.15,2.79,1.92,3.06v.57l-3.63-.06-3.87.06v-.57c1.83-.27,2-.69,2-3.21v-7c0-1.92-.21-2.25-2-2.37v-.57l5.46-.6.09.12Zm-1.92-17.13a2.16,2.16,0,1,1-2.19,2.16A2.2,2.2,0,0,1,509.59,109.1Z"/><path class="cls-1" d="M519.91,117.8a4.24,4.24,0,0,1,7.68.21,4.54,4.54,0,0,1,4-2.55,4.15,4.15,0,0,1,4.26,4.47v5.94c0,2.73.18,3.18,2,3.39v.6l-3.57-.06-3.63.06v-.6c1.56-.21,1.68-.72,1.68-3.66v-5.46c0-1.62-.54-3.36-1.8-3.36s-2.07,1-2.61,2.31v7.11c0,2.37.21,2.85,1.59,3.06v.6l-3.21-.06-3.51.06v-.6c1.38-.21,1.56-.72,1.56-2.91v-6.21c0-1.68-.51-3.36-1.77-3.36s-2.19,1-2.64,2.52v6.9c0,2.4.18,2.82,1.71,3.06v.6l-3.75-.06-3.45.06v-.6c1.86-.24,1.92-.6,1.92-3.24v-6.84c0-1.92-.15-2.25-2-2.43v-.57l5.46-.6.12.12Z"/><path class="cls-1" d="M543.07,130.34a3.75,3.75,0,0,1-4-3.84c0-2.4,1.68-3.63,4.44-4.26a25.48,25.48,0,0,1,2.94-.45V120c0-2.31-.18-3.72-1.65-3.72s-1.59.51-1.89,2.64a1.88,1.88,0,0,1-1.89,1.68,1.65,1.65,0,0,1-1.62-1.62c0-2.22,3.24-3.48,5.64-3.48,3.06,0,4.95.9,4.95,4.11V127c0,1.29.18,2,.84,2s1-.72,1.26-1.29l.57.36a3.56,3.56,0,0,1-3.24,2.34,2.6,2.6,0,0,1-2.88-2.16A3.84,3.84,0,0,1,543.07,130.34Zm1.44-1.47c.87,0,1.5-.78,2-1.71v-4.68a8.07,8.07,0,0,0-2,.48c-1.08.42-1.62,1.41-1.62,3.09C542.83,127.49,543.46,128.87,544.51,128.87Z"/><path class="cls-1" d="M558.58,118.16c.6-1.62,1.62-2.76,3.39-2.76a2.5,2.5,0,0,1,2.55,2.52,2,2,0,0,1-1.86,2.07,1.8,1.8,0,0,1-1.77-1.8c-.06-.78-.12-1.23-.48-1.23-.72,0-1.41,1.44-1.8,3.27v5.85c0,2.46.3,2.88,2.91,3.21v.57l-5-.06-3.63.06v-.57c1.92-.24,2.13-.66,2.13-3.24v-6.6c0-2-.24-2.55-2.28-2.7v-.57l5.73-.6.12.12Z"/><path class="cls-1" d="M571.27,116.21c-1.77,0-2.31,2.67-2.31,6.3,0,3,.81,6.57,3.21,6.57a4.42,4.42,0,0,0,3.66-2l.54.54a6.08,6.08,0,0,1-5,2.82c-4.08,0-6.3-3.09-6.3-7.29s2.55-7.65,6.27-7.65c2.34,0,5,1.26,5,3.42a1.73,1.73,0,0,1-1.68,1.8,1.83,1.83,0,0,1-1.77-1.77C572.65,116.72,572.53,116.21,571.27,116.21Z"/><path class="cls-1" d="M581.77,130.34a3.75,3.75,0,0,1-4-3.84c0-2.4,1.68-3.63,4.44-4.26a25.48,25.48,0,0,1,2.94-.45V120c0-2.31-.18-3.72-1.65-3.72s-1.59.51-1.89,2.64a1.88,1.88,0,0,1-1.89,1.68,1.65,1.65,0,0,1-1.62-1.62c0-2.22,3.24-3.48,5.64-3.48,3.06,0,5,.9,5,4.11V127c0,1.29.18,2,.84,2s1-.72,1.26-1.29l.57.36a3.56,3.56,0,0,1-3.24,2.34,2.6,2.6,0,0,1-2.88-2.16A3.84,3.84,0,0,1,581.77,130.34Zm1.44-1.47c.87,0,1.5-.78,2-1.71v-4.68a8.07,8.07,0,0,0-2,.48c-1.08.42-1.62,1.41-1.62,3.09C581.53,127.49,582.16,128.87,583.21,128.87Z"/><polygon class="cls-2" points="736.65 89.33 744.71 52.23 752.76 89.33 736.65 89.33"/><path class="cls-3" d="M744.71,57l6.81,31.38H737.89L744.71,57m0-9.43-9.3,42.81H754l-9.29-42.81Z"/><path class="cls-1" d="M697.4,116.32v6.84h-.72c-.27-2.22-1-3-2.79-3h-1.95v4.5c0,3.16.48,3.87,3.63,4v.69h-10v-.69c2.28-.24,2.64-.86,2.64-4V112.79c0-2-.51-2.46-2.61-2.73v-.69h14.55v6h-.84c-1-4.17-1.92-5.13-5.22-5.13h-2.19v9.09h1.95c1.8,0,2.55-.63,2.79-3Z"/><path class="cls-1" d="M707.18,125.74c0,2.29.15,2.79,1.92,3.06v.57l-3.63-.05-3.87.05v-.57c1.83-.27,2-.69,2-3.21v-7c0-1.92-.21-2.25-2-2.37v-.58l5.46-.59.09.12Zm-1.92-17.12a2.2,2.2,0,0,1,2.19,2.16,2.19,2.19,0,0,1-4.38,0A2.2,2.2,0,0,1,705.26,108.62Z"/><path class="cls-1" d="M715.58,117.19a4.29,4.29,0,0,1,8,2.34v5.91c0,2.61.15,3,1.8,3.34v.59l-3.42-.05-3.57.05v-.59c1.5-.31,1.65-.73,1.65-3.4v-5.66c0-1.69-.6-3.45-2-3.45-1.08,0-1.92.89-2.52,2.18v7.33c0,2.25.06,2.72,1.68,3v.59l-3.66-.05-3.57.05v-.59c1.77-.25,2-.63,2-3.19v-6.9c0-1.88-.21-2.3-2-2.42v-.58l5.49-.59.12.12Z"/><path class="cls-1" d="M728.33,111.94c0-1.85-.24-2.18-2-2.51v-.51l5.61-.72.21.24-.24,5.55v11.66c0,2.31.18,2.85,1.92,3.13v.59l-3.78-.05-3.66.05v-.59c1.77-.21,2-.75,2-3.3Z"/><path class="cls-1" d="M739.25,129.86a3.75,3.75,0,0,1-4-3.84c0-2.41,1.68-3.63,4.44-4.27a25.13,25.13,0,0,1,2.94-.44v-1.83c0-2.32-.18-3.72-1.65-3.72s-1.59.51-1.89,2.64a1.88,1.88,0,0,1-1.89,1.67,1.65,1.65,0,0,1-1.62-1.62c0-2.21,3.24-3.47,5.64-3.47,3.06,0,5,.9,5,4.1v7.41c0,1.29.18,2,.84,2s1-.72,1.26-1.29l.57.36a3.57,3.57,0,0,1-3.24,2.35,2.61,2.61,0,0,1-2.88-2.17A3.85,3.85,0,0,1,739.25,129.86Zm1.44-1.48c.87,0,1.5-.77,2-1.71V122a8.55,8.55,0,0,0-2,.49c-1.08.42-1.62,1.4-1.62,3.09C739,127,739.64,128.38,740.69,128.38Z"/><path class="cls-1" d="M754.76,117.19a4.29,4.29,0,0,1,8,2.34v5.91c0,2.61.15,3,1.8,3.34v.59l-3.42-.05-3.57.05v-.59c1.5-.31,1.65-.73,1.65-3.4v-5.66c0-1.69-.6-3.45-2-3.45-1.08,0-1.92.89-2.52,2.18v7.33c0,2.25.06,2.72,1.68,3v.59l-3.66-.05-3.57.05v-.59c1.77-.25,2-.63,2-3.19v-6.9c0-1.88-.21-2.3-2-2.42v-.58l5.49-.59.12.12Z"/><path class="cls-1" d="M765.89,122.57c0-4.21,2.46-7.59,6.57-7.59a6,6,0,0,1,2.43.51v-3.57c0-2-.21-2.28-2.4-2.43V109l5.94-.69.24.18-.27,6.5v10.89c0,2.11.21,2.79,2.46,2.88l0,.54-5.58.66-.24-.17-.15-1.63a4.36,4.36,0,0,1-3.36,1.75C767.57,129.86,765.89,126.67,765.89,122.57Zm9-5.46a2.51,2.51,0,0,0-2.22-1.35c-2.34,0-2.94,3.23-2.94,6.3s.63,6.44,2.91,6.44a2.82,2.82,0,0,0,2.25-1.41Z"/><path class="cls-1" d="M786.92,125.74c0,2.29.15,2.79,1.92,3.06v.57l-3.63-.05-3.87.05v-.57c1.83-.27,2-.69,2-3.21v-7c0-1.92-.21-2.25-2-2.37v-.58l5.46-.59.09.12ZM785,108.62a2.2,2.2,0,0,1,2.19,2.16,2.19,2.19,0,0,1-4.38,0A2.2,2.2,0,0,1,785,108.62Z"/><path class="cls-1" d="M794.18,129.86a3.75,3.75,0,0,1-4-3.84c0-2.41,1.68-3.63,4.44-4.27a25.13,25.13,0,0,1,2.94-.44v-1.83c0-2.32-.18-3.72-1.65-3.72s-1.59.51-1.89,2.64a1.88,1.88,0,0,1-1.89,1.67,1.65,1.65,0,0,1-1.62-1.62c0-2.21,3.24-3.47,5.64-3.47,3.06,0,4.95.9,4.95,4.1v7.41c0,1.29.18,2,.84,2s1-.72,1.26-1.29l.57.36a3.57,3.57,0,0,1-3.24,2.35,2.61,2.61,0,0,1-2.88-2.17A3.85,3.85,0,0,1,794.18,129.86Zm1.44-1.48c.87,0,1.5-.77,2-1.71V122a8.55,8.55,0,0,0-2,.49c-1.08.42-1.62,1.4-1.62,3.09C793.94,127,794.57,128.38,795.62,128.38Z"/><polygon class="cls-2" points="44.6 89.33 80.26 7.23 115.91 89.33 44.6 89.33"/><path class="cls-3" d="M80.26,9.74l34.13,78.59H46.12L80.26,9.74m0-5L43.08,90.33h74.36L80.26,4.72Z"/><path class="cls-1" d="M32,126.29c0-3.24-.3-3.75-3-4v-.69h8.22v.69c-1.68.18-1.83.57-1.83,4v1.53l.09,1.14a19,19,0,0,1-7.29,1.41c-5.94,0-9.33-4.56-9.33-10.44,0-6.15,3.81-10.5,9.6-10.5,3.45,0,7.53,2,7.53,5.13a1.8,1.8,0,0,1-1.86,2,2,2,0,0,1-2-2c-.36-3.18-1-4.11-3.75-4.11-4.23,0-5.19,4.2-5.19,9.39,0,4.53.93,9.57,4.95,9.57A5.56,5.56,0,0,0,32,128.15Z"/><path class="cls-1" d="M42.55,122.42v.69c0,3.42.87,6,3.48,6a5.07,5.07,0,0,0,4.14-2.31l.51.48a6.62,6.62,0,0,1-5.58,3c-4,0-6.36-3-6.36-7.2,0-4,2.16-7.68,6.36-7.68,3.81,0,5.76,2.82,5.76,7Zm0-.75h4.47c0-3.06-.3-5.43-2-5.43S42.79,118.37,42.58,121.67Z"/><path class="cls-1" d="M57.7,118.16c.6-1.62,1.62-2.76,3.39-2.76a2.5,2.5,0,0,1,2.55,2.52A2,2,0,0,1,61.78,120a1.8,1.8,0,0,1-1.77-1.8c-.06-.78-.12-1.23-.48-1.23-.72,0-1.41,1.44-1.8,3.27v5.85c0,2.46.3,2.88,2.91,3.21v.57l-5-.06-3.63.06v-.57c1.92-.24,2.13-.66,2.13-3.24v-6.6c0-2-.24-2.55-2.28-2.7v-.57l5.73-.6.12.12Z"/><path class="cls-1" d="M69.82,117.8a4.23,4.23,0,0,1,7.67.21,4.54,4.54,0,0,1,4-2.55,4.15,4.15,0,0,1,4.26,4.47v5.94c0,2.73.18,3.18,2,3.39v.6l-3.57-.06-3.63.06v-.6c1.56-.21,1.68-.72,1.68-3.66v-5.46c0-1.62-.54-3.36-1.8-3.36s-2.06,1-2.61,2.31v7.11c0,2.37.21,2.85,1.59,3.06v.6l-3.21-.06-3.5.06v-.6c1.37-.21,1.56-.72,1.56-2.91v-6.21c0-1.68-.52-3.36-1.77-3.36s-2.19,1-2.64,2.52v6.9c0,2.4.18,2.82,1.7,3.06v.6l-3.74-.06-3.45.06v-.6c1.86-.24,1.92-.6,1.92-3.24v-6.84c0-1.92-.15-2.25-2-2.43v-.57l5.46-.6.12.12Z"/><path class="cls-1" d="M93,130.34a3.75,3.75,0,0,1-4-3.84c0-2.4,1.68-3.63,4.44-4.26a25.48,25.48,0,0,1,2.94-.45V120c0-2.31-.18-3.72-1.65-3.72s-1.59.51-1.89,2.64A1.88,1.88,0,0,1,91,120.56a1.65,1.65,0,0,1-1.62-1.62c0-2.22,3.24-3.48,5.64-3.48,3.06,0,5,.9,5,4.11V127c0,1.29.18,2,.83,2s1-.72,1.27-1.29l.57.36a3.56,3.56,0,0,1-3.24,2.34,2.6,2.6,0,0,1-2.88-2.16A3.84,3.84,0,0,1,93,130.34Zm1.44-1.47c.87,0,1.5-.78,2-1.71v-4.68a8.07,8.07,0,0,0-2,.48c-1.08.42-1.62,1.41-1.62,3.09C92.74,127.49,93.37,128.87,94.42,128.87Z"/><path class="cls-1" d="M108.48,117.68a4.29,4.29,0,0,1,8,2.34v5.91c0,2.61.15,3,1.8,3.33v.6l-3.42-.06-3.56.06v-.6c1.5-.3,1.64-.72,1.64-3.39V120.2c0-1.68-.6-3.45-2-3.45-1.08,0-1.91.9-2.52,2.19v7.32c0,2.25.06,2.73,1.69,3v.6l-3.66-.06-3.57.06v-.6c1.77-.24,2-.63,2-3.18v-6.9c0-1.89-.21-2.31-2-2.43v-.57l5.49-.6.11.12Z"/><path class="cls-1" d="M124.81,126.23c0,2.28.15,2.79,1.92,3.06v.57l-3.63-.06-3.87.06v-.57c1.83-.27,2-.69,2-3.21v-7c0-1.92-.21-2.25-2-2.37v-.57l5.46-.6.09.12Zm-1.92-17.13a2.16,2.16,0,1,1-2.19,2.16A2.2,2.2,0,0,1,122.89,109.1Z"/><path class="cls-1" d="M132.07,130.34a3.74,3.74,0,0,1-4-3.84c0-2.4,1.67-3.63,4.43-4.26a25.48,25.48,0,0,1,2.94-.45V120c0-2.31-.18-3.72-1.64-3.72s-1.6.51-1.9,2.64a1.88,1.88,0,0,1-1.89,1.68,1.65,1.65,0,0,1-1.61-1.62c0-2.22,3.23-3.48,5.63-3.48,3.06,0,5,.9,5,4.11V127c0,1.29.18,2,.84,2s1-.72,1.26-1.29l.57.36a3.56,3.56,0,0,1-3.24,2.34,2.6,2.6,0,0,1-2.88-2.16A3.82,3.82,0,0,1,132.07,130.34Zm1.43-1.47c.87,0,1.5-.78,2-1.71v-4.68a8.07,8.07,0,0,0-2,.48c-1.08.42-1.62,1.41-1.62,3.09C131.82,127.49,132.45,128.87,133.5,128.87Z"/><polygon class="cls-4" points="1379.28 89.33 1409.16 63.12 1439.04 89.33 1379.28 89.33"/><path class="cls-5" d="M1409.16,64.45l27.22,23.88h-54.44l27.22-23.88m0-2.66-32.53,28.54h65.06l-32.53-28.54Z"/><path class="cls-1" d="M1374,115.44V126c0,3.21.36,3.81,2.91,4v.69h-9.45v-.69c2.55-.21,2.82-.84,2.82-4V115.44c0-3.2-.27-3.81-2.82-4v-.68h9.42v.68C1374.29,111.63,1374,112.2,1374,115.44Z"/><path class="cls-1" d="M1386.16,117.12a2,2,0,0,0,.7.33c.26,0,.47-.27.57-.87h.63l-.12,4.86h-.63c-.42-2.82-1.78-4.29-3.84-4.29a2.33,2.33,0,0,0-2.49,2.34c0,1.17.92,1.92,3,2.61,3.44,1.14,4.7,2.28,4.7,4.65,0,2.94-2,4.53-5.12,4.53a5.85,5.85,0,0,1-2.67-.72,2.43,2.43,0,0,0-.87-.36c-.36,0-.49.33-.54.84h-.63v-5h.63c.35,2.73,2,4.44,4.08,4.44,1.52,0,2.72-.72,2.72-2.22,0-1-.66-1.74-3.38-2.7s-4.32-2.22-4.32-4.74c0-2.79,2.28-4.47,4.86-4.47A5.27,5.27,0,0,1,1386.16,117.12Z"/><path class="cls-1" d="M1395.77,119c.59-1.62,1.62-2.76,3.38-2.76a2.5,2.5,0,0,1,2.55,2.52,2,2,0,0,1-1.85,2.07,1.81,1.81,0,0,1-1.78-1.8c0-.78-.12-1.23-.47-1.23-.72,0-1.41,1.44-1.8,3.27V127c0,2.46.3,2.88,2.9,3.21v.57l-5-.06-3.63.06v-.57c1.92-.24,2.13-.66,2.13-3.24v-6.6c0-2-.23-2.55-2.27-2.7v-.57l5.73-.6.12.12Z"/><path class="cls-1" d="M1406.39,131.22a3.74,3.74,0,0,1-4-3.84c0-2.4,1.68-3.63,4.43-4.26a25.6,25.6,0,0,1,3-.45v-1.83c0-2.31-.19-3.72-1.66-3.72s-1.59.51-1.88,2.64a1.89,1.89,0,0,1-1.9,1.68,1.65,1.65,0,0,1-1.61-1.62c0-2.22,3.23-3.48,5.64-3.48,3,0,4.94.9,4.94,4.11v7.41c0,1.29.18,2,.84,2s1-.72,1.26-1.29l.57.36a3.56,3.56,0,0,1-3.24,2.34,2.59,2.59,0,0,1-2.87-2.16A3.86,3.86,0,0,1,1406.39,131.22Zm1.43-1.47c.87,0,1.5-.78,2-1.71v-4.68a7.88,7.88,0,0,0-2,.48c-1.08.42-1.62,1.41-1.62,3.09C1406.15,128.37,1406.77,129.75,1407.82,129.75Z"/><path class="cls-1" d="M1420.43,123.3V124c0,3.42.86,6,3.47,6a5.06,5.06,0,0,0,4.14-2.31l.51.48a6.62,6.62,0,0,1-5.57,3c-4,0-6.37-3-6.37-7.2,0-4,2.16-7.68,6.37-7.68,3.8,0,5.75,2.82,5.75,7Zm0-.75h4.47c0-3.06-.3-5.43-2-5.43S1420.66,119.25,1420.45,122.55Z"/><path class="cls-1" d="M1431.86,113.31c0-1.86-.25-2.19-2-2.52v-.51l5.61-.71.21.23-.24,5.55V127c0,2.31.18,2.85,1.92,3.12v.6l-3.78-.06-3.66.06v-.6c1.78-.21,2-.75,2-3.3Z"/><path class="cls-1" d="M1442.56,123.3V124c0,3.42.87,6,3.48,6a5.07,5.07,0,0,0,4.14-2.31l.51.48a6.62,6.62,0,0,1-5.58,3c-4,0-6.36-3-6.36-7.2,0-4,2.16-7.68,6.36-7.68,3.81,0,5.76,2.82,5.76,7Zm0-.75h4.47c0-3.06-.3-5.43-2-5.43S1442.8,119.25,1442.59,122.55Z"/><polygon class="cls-2" points="949.13 89.33 966.19 50.03 983.26 89.33 949.13 89.33"/><path class="cls-3" d="M966.19,52.54l15.54,35.79H950.65l15.54-35.79m0-5L947.6,90.33h37.18L966.19,47.52Z"/><path class="cls-1" d="M927.22,130.54h-1.29l-12.33-17v12.15c0,3,.18,3.63,3.3,3.9v.69h-7.2v-.69c2.61-.24,2.82-.93,2.82-3.81v-11c0-3-.18-3.36-2.85-3.72v-.75h6.27l10.2,14.31v-9.84c0-3-.24-3.57-3.27-3.78v-.69h7V111c-2.28.24-2.67.84-2.67,3.72Z"/><path class="cls-1" d="M937.48,130.84c-3.75,0-6.63-2.85-6.63-7.47s3-7.47,6.63-7.47,6.6,2.85,6.6,7.47S941.17,130.84,937.48,130.84Zm0-14.1c-2.37,0-2.79,3.6-2.79,6.63s.45,6.63,2.82,6.63,2.76-3.6,2.76-6.63S939.79,116.74,937.45,116.74Z"/><path class="cls-1" d="M951,118.6c.6-1.62,1.62-2.76,3.39-2.76a2.5,2.5,0,0,1,2.55,2.52,2,2,0,0,1-1.86,2.07,1.8,1.8,0,0,1-1.77-1.8c-.06-.78-.12-1.23-.48-1.23-.72,0-1.41,1.44-1.8,3.27v5.85c0,2.46.3,2.88,2.91,3.21v.57l-5-.06-3.63.06v-.57c1.92-.24,2.13-.66,2.13-3.24v-6.6c0-2-.24-2.55-2.28-2.7v-.57l5.73-.6.12.12Z"/><path class="cls-1" d="M957.1,116.44l3.48.06,4.32-.06v.6c-1.56.09-2.16.51-1.74,1.68l2.67,7.74,2.7-7.32c.57-1.59.18-2-1.74-2.1v-.6l3.06.06,2.28-.06v.6c-1.68.15-2.13.63-2.67,2.1l-4.29,11.7h-1l-4.68-12.12A2.39,2.39,0,0,0,957.1,117Z"/><path class="cls-1" d="M975.58,122.86v.69c0,3.42.87,6,3.48,6a5.07,5.07,0,0,0,4.14-2.31l.51.48a6.62,6.62,0,0,1-5.58,3c-4,0-6.36-3-6.36-7.2,0-4,2.16-7.68,6.36-7.68,3.81,0,5.76,2.82,5.76,7Zm0-.75h4.47c0-3.06-.3-5.43-2-5.43S975.82,118.81,975.61,122.11Z"/><path class="cls-1" d="M992,136.75c2,0,3.93-1.32,3.93-3.18,0-1.59-.87-2.1-4.23-2.61-4-.63-5-1.17-5-2.7,0-1,1.2-2.1,2.16-2.58a4.87,4.87,0,0,1-3.27-4.62c0-3.24,2.58-5.16,5.73-5.16a6,6,0,0,1,3.48.93,4.28,4.28,0,0,1,2.94-1.8,1.8,1.8,0,0,1,2,1.74,1.36,1.36,0,0,1-1.35,1.41c-1.26,0-1.17-1.68-1.83-1.68a2.08,2.08,0,0,0-1.32.72,5.14,5.14,0,0,1,2,3.93c0,3.18-2.73,4.95-5.85,4.95a8.75,8.75,0,0,1-1.83-.21,1.48,1.48,0,0,0-.48.93c0,.48.9.69,4,1.17,4,.63,5.85,1.47,5.85,4.26,0,3.24-3.93,5.28-7.2,5.28-3,0-6.51-.87-6.51-3.54,0-1.65,2.28-2.91,4.05-3l.15.39a3.28,3.28,0,0,0-1.44,2.58C988,135.94,989.77,136.75,992,136.75Zm-.66-20.13c-1.68,0-2,2.16-2,4.44,0,2.13.3,4.32,2,4.32s2.13-1.86,2.13-4.2S993,116.62,991.36,116.62Z"/><path class="cls-1" d="M1005.82,126.67c0,2.28.15,2.79,1.92,3.06v.57l-3.63-.06-3.87.06v-.57c1.83-.27,2-.69,2-3.21v-7c0-1.92-.21-2.25-2-2.37v-.57l5.46-.6.09.12Zm-1.92-17.13a2.16,2.16,0,1,1-2.19,2.16A2.2,2.2,0,0,1,1003.9,109.54Z"/><path class="cls-1" d="M1013.08,130.78a3.75,3.75,0,0,1-4-3.84c0-2.4,1.68-3.63,4.44-4.26a25.48,25.48,0,0,1,2.94-.45V120.4c0-2.31-.18-3.72-1.65-3.72s-1.59.51-1.89,2.64a1.88,1.88,0,0,1-1.89,1.68,1.65,1.65,0,0,1-1.62-1.62c0-2.22,3.24-3.48,5.64-3.48,3.06,0,4.95.9,4.95,4.11v7.41c0,1.29.18,2,.84,2s1-.72,1.26-1.29l.57.36a3.56,3.56,0,0,1-3.24,2.34,2.6,2.6,0,0,1-2.88-2.16A3.84,3.84,0,0,1,1013.08,130.78Zm1.44-1.47c.87,0,1.5-.78,2-1.71v-4.68a8.07,8.07,0,0,0-2,.48c-1.08.42-1.62,1.41-1.62,3.09C1012.84,127.93,1013.47,129.31,1014.52,129.31Z"/><polygon class="cls-2" points="1619.08 89.33 1630.64 77.49 1642.21 89.33 1619.08 89.33"/><path class="cls-3" d="M1630.64,78.92l9.2,9.41h-18.39l9.19-9.41m0-2.86L1616.7,90.33h27.89l-13.95-14.27Z"/><path class="cls-1" d="M1594.4,130.56a7.47,7.47,0,0,1-3.09.69c-2.42,0-3.84-1.2-5.21-3.75l-3.13-5.73h-1.53V126c0,3.33.31,3.84,3,4.05v.69h-9.51v-.69c2.4-.21,2.81-.57,2.81-4V114.93c0-2.88-.38-3.24-2.81-3.48v-.71h8.52c4.5,0,7.52,1.91,7.52,5.33a5.5,5.5,0,0,1-4.23,5.52l2.79,5.07c1.38,2.46,2.55,3.36,4.8,3.36Zm-11.51-18.9h-1.45V121h1.71c2.61,0,3.82-1.89,3.82-4.62C1587,113,1585.28,111.66,1582.89,111.66Z"/><path class="cls-1" d="M1600.94,131.28c-3.75,0-6.63-2.85-6.63-7.47s3-7.47,6.63-7.47,6.6,2.85,6.6,7.47S1604.64,131.28,1600.94,131.28Zm0-14.1c-2.36,0-2.78,3.6-2.78,6.63s.44,6.63,2.81,6.63,2.76-3.6,2.76-6.63S1603.26,117.18,1600.91,117.18Z"/><path class="cls-1" d="M1614.5,118.68a4.24,4.24,0,0,1,7.68.21,4.54,4.54,0,0,1,4-2.55,4.15,4.15,0,0,1,4.26,4.47v5.94c0,2.73.18,3.18,2,3.39v.6l-3.57-.06-3.63.06v-.6c1.56-.21,1.68-.72,1.68-3.66V121c0-1.62-.54-3.36-1.8-3.36s-2.07,1-2.61,2.31v7.11c0,2.37.21,2.85,1.59,3.06v.6l-3.21-.06-3.51.06v-.6c1.38-.21,1.56-.72,1.56-2.91V121c0-1.68-.51-3.36-1.77-3.36s-2.19,1-2.64,2.52v6.9c0,2.4.18,2.82,1.71,3.06v.6l-3.74-.06-3.46.06v-.6c1.86-.24,1.92-.6,1.92-3.24v-6.84c0-1.92-.15-2.25-2-2.43v-.57l5.46-.6.11.12Z"/><path class="cls-1" d="M1637.66,131.22a3.75,3.75,0,0,1-4-3.84c0-2.4,1.69-3.63,4.44-4.26a25.48,25.48,0,0,1,2.94-.45v-1.83c0-2.31-.18-3.72-1.65-3.72s-1.59.51-1.89,2.64a1.88,1.88,0,0,1-1.89,1.68,1.65,1.65,0,0,1-1.62-1.62c0-2.22,3.24-3.48,5.64-3.48,3.06,0,4.95.9,4.95,4.11v7.41c0,1.29.18,2,.84,2s1-.72,1.26-1.29l.57.36a3.56,3.56,0,0,1-3.24,2.34,2.6,2.6,0,0,1-2.88-2.16A3.84,3.84,0,0,1,1637.66,131.22Zm1.44-1.47c.87,0,1.5-.78,2-1.71v-4.68a8.07,8.07,0,0,0-2,.48c-1.08.42-1.62,1.41-1.62,3.09C1637.42,128.37,1638.05,129.75,1639.1,129.75Z"/><path class="cls-1" d="M1653.17,118.56a4.29,4.29,0,0,1,8,2.34v5.91c0,2.61.15,3,1.8,3.33v.6l-3.42-.06-3.57.06v-.6c1.5-.3,1.65-.72,1.65-3.39v-5.67c0-1.68-.6-3.45-2-3.45-1.08,0-1.92.9-2.52,2.19v7.32c0,2.25.06,2.73,1.68,3v.6l-3.66-.06-3.57.06v-.6c1.77-.24,2-.63,2-3.18v-6.9c0-1.89-.21-2.31-2-2.43v-.57l5.49-.6.12.12Z"/><path class="cls-1" d="M1669.49,127.11c0,2.28.15,2.79,1.92,3.06v.57l-3.63-.06-3.87.06v-.57c1.83-.27,2-.69,2-3.21v-7c0-1.92-.21-2.25-2-2.37v-.57l5.46-.6.09.12ZM1667.57,110a2.19,2.19,0,0,1,2.19,2.15,2.19,2.19,0,0,1-4.38,0A2.19,2.19,0,0,1,1667.57,110Z"/><path class="cls-1" d="M1676.75,131.22a3.75,3.75,0,0,1-4-3.84c0-2.4,1.68-3.63,4.44-4.26a25.48,25.48,0,0,1,2.94-.45v-1.83c0-2.31-.18-3.72-1.65-3.72s-1.59.51-1.89,2.64a1.88,1.88,0,0,1-1.89,1.68,1.65,1.65,0,0,1-1.62-1.62c0-2.22,3.24-3.48,5.64-3.48,3.06,0,5,.9,5,4.11v7.41c0,1.29.18,2,.84,2s1-.72,1.26-1.29l.57.36a3.56,3.56,0,0,1-3.24,2.34,2.6,2.6,0,0,1-2.88-2.16A3.84,3.84,0,0,1,1676.75,131.22Zm1.44-1.47c.87,0,1.5-.78,2-1.71v-4.68a8.07,8.07,0,0,0-2,.48c-1.08.42-1.62,1.41-1.62,3.09C1676.51,128.37,1677.14,129.75,1678.19,129.75Z"/><polygon class="cls-6" points="1148.22 89.33 1187.68 48.95 1227.13 89.33 1148.22 89.33"/><path class="cls-7" d="M1187.68,50.38l37.07,37.95H1150.6l37.08-37.95m0-2.86-41.83,42.81h83.65l-41.82-42.81Z"/><path class="cls-1" d="M1159.91,110.24a1,1,0,0,0,.54.24c.36,0,.6-.42.66-1.29h.9l0,6.69h-.84c-.63-3.78-2.13-6.06-5.31-6.06-2.4,0-3.84,1.53-3.84,3.48,0,1.68,1,2.6,4.35,3.9,4.41,1.68,6.24,3.27,6.24,6.6,0,3.84-2.88,6.15-6.54,6.15a7.13,7.13,0,0,1-4.38-1.59.89.89,0,0,0-.6-.33c-.33,0-.57.51-.63,1.44h-.9v-6.84h.9c.45,3.75,2.28,6.36,5.52,6.36,2.43,0,4-1.42,4-3.58,0-1.74-1.08-2.78-4.86-4.19s-5.67-3.15-5.67-6.54,2.61-5.79,6.3-5.79A7,7,0,0,1,1159.91,110.24Z"/><path class="cls-1" d="M1177.52,115.22c-.09.63-.18,5-.18,7.5v3.6c0,1.92.18,2.16,2.49,2.31v.57l-5.67.54-.15-.16-.15-2.09a4.18,4.18,0,0,1-3.75,2.42,4.13,4.13,0,0,1-4.47-4.37v-6.93c0-1.92-.18-2.29-2.22-2.43v-.57l5.82-.6.09.12c-.06.57-.12,4.7-.12,10,0,2.16.6,3.42,2,3.42,1.11,0,2-.89,2.55-2.39v-7.59c0-1.92-.21-2.29-2.13-2.43v-.57l5.73-.51Z"/><path class="cls-1" d="M1180.67,122.57c0-4.2,2.46-7.59,6.57-7.59a6,6,0,0,1,2.43.51v-3.57c0-2-.21-2.28-2.4-2.43V109l5.94-.69.24.18-.27,6.51v10.88c0,2.11.21,2.8,2.46,2.89l0,.53-5.58.66-.24-.17-.15-1.62a4.35,4.35,0,0,1-3.36,1.74C1182.35,129.86,1180.67,126.67,1180.67,122.57Zm9-5.46a2.53,2.53,0,0,0-2.22-1.35c-2.34,0-2.94,3.23-2.94,6.3s.63,6.44,2.91,6.44a2.8,2.8,0,0,0,2.25-1.41Z"/><path class="cls-1" d="M1200.53,129.86a3.75,3.75,0,0,1-4-3.84c0-2.4,1.68-3.63,4.44-4.27a27.48,27.48,0,0,1,2.94-.44v-1.83c0-2.32-.18-3.72-1.65-3.72s-1.59.51-1.89,2.64a1.87,1.87,0,0,1-1.89,1.67,1.65,1.65,0,0,1-1.62-1.61c0-2.22,3.24-3.48,5.64-3.48,3.06,0,5,.9,5,4.1v7.41c0,1.3.18,2,.84,2s1-.72,1.26-1.3l.57.36a3.55,3.55,0,0,1-3.24,2.35,2.6,2.6,0,0,1-2.88-2.16A3.85,3.85,0,0,1,1200.53,129.86Zm1.44-1.47c.87,0,1.5-.78,2-1.72V122a8.55,8.55,0,0,0-2,.49c-1.08.42-1.62,1.41-1.62,3.09C1200.29,127,1200.92,128.39,1202,128.39Z"/><path class="cls-1" d="M1216,117.2a4.29,4.29,0,0,1,8,2.34v5.91c0,2.61.15,3,1.8,3.33v.6l-3.42-.06-3.57.06v-.6c1.5-.3,1.65-.72,1.65-3.39v-5.67c0-1.68-.6-3.45-2-3.45-1.08,0-1.92.89-2.52,2.19v7.32c0,2.25.06,2.72,1.68,3v.6l-3.66-.06-3.57.06v-.6c1.77-.24,2-.63,2-3.19V118.7c0-1.89-.21-2.31-2-2.43v-.57l5.49-.6.12.12Z"/><polygon class="cls-2" points="266.08 89.33 301.74 7.23 337.39 89.33 266.08 89.33"/><path class="cls-3" d="M301.74,9.74l34.13,78.59H267.61L301.74,9.74m0-5L264.56,90.33h74.36L301.74,4.72Z"/><path class="cls-1" d="M244.26,129.68a7.47,7.47,0,0,1-3.09.69c-2.43,0-3.84-1.2-5.22-3.75l-3.12-5.73H231.3v4.23c0,3.33.3,3.84,3,4v.69h-9.51v-.69c2.4-.21,2.82-.57,2.82-4V114.05c0-2.88-.39-3.24-2.82-3.48v-.72h8.52c4.5,0,7.53,1.92,7.53,5.34a5.52,5.52,0,0,1-4.23,5.52l2.79,5.07c1.38,2.46,2.55,3.36,4.8,3.36Zm-11.52-18.9H231.3v9.3H233c2.61,0,3.81-1.89,3.81-4.62C236.82,112.07,235.14,110.78,232.74,110.78Z"/><path class="cls-1" d="M248,122.42v.69c0,3.42.87,6,3.48,6a5.07,5.07,0,0,0,4.14-2.31l.51.48a6.62,6.62,0,0,1-5.58,3c-4,0-6.36-3-6.36-7.2,0-4,2.16-7.68,6.36-7.68,3.81,0,5.76,2.82,5.76,7Zm0-.75h4.47c0-3.06-.3-5.43-2-5.43S248.22,118.37,248,121.67Z"/><path class="cls-1" d="M264.42,136.31c2,0,3.93-1.32,3.93-3.18,0-1.59-.87-2.1-4.23-2.61-4-.63-5-1.17-5-2.7,0-1,1.2-2.1,2.16-2.58a4.87,4.87,0,0,1-3.27-4.62c0-3.24,2.58-5.16,5.73-5.16a6,6,0,0,1,3.48.93,4.28,4.28,0,0,1,2.94-1.8,1.8,1.8,0,0,1,2,1.74,1.36,1.36,0,0,1-1.35,1.41c-1.26,0-1.17-1.68-1.83-1.68a2.08,2.08,0,0,0-1.32.72,5.14,5.14,0,0,1,2,3.93c0,3.18-2.73,5-5.85,5a8.75,8.75,0,0,1-1.83-.21,1.48,1.48,0,0,0-.48.93c0,.48.9.69,4,1.17,4,.63,5.85,1.47,5.85,4.26,0,3.24-3.93,5.28-7.2,5.28-3,0-6.51-.87-6.51-3.54,0-1.65,2.28-2.91,4.05-3l.15.39a3.28,3.28,0,0,0-1.44,2.58C260.43,135.5,262.17,136.31,264.42,136.31Zm-.66-20.13c-1.68,0-2,2.16-2,4.44,0,2.13.3,4.32,2,4.32s2.13-1.86,2.13-4.2S265.41,116.18,263.76,116.18Z"/><path class="cls-1" d="M278.19,117.68a4.29,4.29,0,0,1,8,2.34v5.91c0,2.61.15,3,1.8,3.33v.6l-3.42-.06-3.57.06v-.6c1.5-.3,1.65-.72,1.65-3.39V120.2c0-1.68-.6-3.45-2-3.45-1.08,0-1.92.9-2.52,2.19v7.32c0,2.25.06,2.73,1.68,3v.6l-3.66-.06-3.57.06v-.6c1.77-.24,2-.63,2-3.18v-6.9c0-1.89-.21-2.31-2-2.43v-.57l5.49-.6.12.12Z"/><path class="cls-1" d="M296,130.4c-3.75,0-6.63-2.85-6.63-7.47s3-7.47,6.63-7.47,6.6,2.85,6.6,7.47S299.64,130.4,296,130.4Zm0-14.1c-2.37,0-2.79,3.6-2.79,6.63s.45,6.63,2.82,6.63,2.76-3.6,2.76-6.63S298.26,116.3,295.92,116.3Z"/><path class="cls-1" d="M326.73,115c0-3.69-.3-4.17-3-4.44v-.69h6.9v.69c-2.58.27-2.82.75-2.82,4.44v8.16c0,4.29-1.92,7.26-6.93,7.26-4.68,0-7.44-2.79-7.44-7.44V114.5c0-3.24-.39-3.72-2.79-4v-.69h9.48v.69c-2.43.24-2.91.63-2.91,4v8.37c0,3.81,1.08,6.45,4.11,6.45,4,0,5.4-2.37,5.4-6.3Z"/><path class="cls-1" d="M336.33,117.68a4.29,4.29,0,0,1,8,2.34v5.91c0,2.61.15,3,1.8,3.33v.6l-3.42-.06-3.57.06v-.6c1.5-.3,1.65-.72,1.65-3.39V120.2c0-1.68-.6-3.45-2-3.45-1.08,0-1.92.9-2.52,2.19v7.32c0,2.25.06,2.73,1.68,3v.6l-3.66-.06-3.57.06v-.6c1.77-.24,2-.63,2-3.18v-6.9c0-1.89-.21-2.31-2-2.43v-.57l5.49-.6.12.12Z"/><path class="cls-1" d="M352.65,126.23c0,2.28.15,2.79,1.92,3.06v.57l-3.63-.06-3.87.06v-.57c1.83-.27,2-.69,2-3.21v-7c0-1.92-.21-2.25-2-2.37v-.57l5.46-.6.09.12Zm-1.92-17.13a2.16,2.16,0,1,1-2.19,2.16A2.2,2.2,0,0,1,350.73,109.1Z"/><path class="cls-1" d="M360.78,116h3.78v.84l-3.78-.06v10c0,1.65.36,2.43,1.29,2.43s1.59-.78,2.1-2.31l.57.24c-.57,1.92-1.65,3.24-3.57,3.24-2.64,0-4-1.47-4-4v-9.66h-2V116h2v-4l3.57-.48Z"/><path class="cls-1" d="M372.12,130.4c-3.75,0-6.63-2.85-6.63-7.47s3-7.47,6.63-7.47,6.6,2.85,6.6,7.47S375.81,130.4,372.12,130.4Zm0-14.1c-2.37,0-2.79,3.6-2.79,6.63s.45,6.63,2.82,6.63,2.76-3.6,2.76-6.63S374.43,116.3,372.09,116.3Z"/><polygon class="cls-2" points="506.01 89.33 523.22 36.48 540.43 89.33 506.01 89.33"/><path class="cls-3" d="M523.22,39.71l15.84,48.62H507.39l15.83-48.62m0-6.45L504.63,90.33h37.18L523.22,33.26Z"/><line class="cls-8" y1="19.4" x2="1711.21" y2="19.4"/><line class="cls-9" y1="90.87" x2="1711.21" y2="90.87"/></svg>