<svg id="SFONDO" xmlns="http://www.w3.org/2000/svg" viewBox="0 0 1711.21 556.35"><defs><style>.cls-1{fill:#a08b66;}.cls-1,.cls-4{opacity:0.5;}.cls-2{fill:#a18c66;}.cls-3{fill:#2e2e2d;}.cls-4,.cls-5{fill:#f1883d;}.cls-6,.cls-7{fill:none;stroke:#a08b66;stroke-miterlimit:10;}.cls-6{stroke-dasharray:4;}</style></defs><title>testArtboard 4</title><polygon class="cls-1" points="1148.22 317.3 1187.68 276.93 1227.13 317.3 1148.22 317.3"/><path class="cls-2" d="M1187.68,278.36l37.07,37.94H1150.6l37.08-37.94m0-2.87-41.83,42.81h83.65l-41.82-42.81Z"/><path class="cls-3" d="M1123.66,349.31h-6.72l-.6,1.68c-1,3-.69,3.57,1.77,3.93v.66h-6.27v-.66c1.89-.33,2.46-1.05,3.51-3.93l5.73-15.87h1.17l6.21,16.29c1.11,2.94,1.44,3.3,3.39,3.51v.66H1123v-.66c2.28-.24,2.43-.78,1.47-3.33Zm-6.42-.87h6.12l-3.06-8.61Z"/><path class="cls-3" d="M1137.88,351.86c0,2.58.27,2.91,3.06,3.09v.63l-4.86-.06-3.78.06V355c1.89-.15,2-.63,2-3.27v-9.15h-1.89v-.81h1.89v-1.2c0-4,1.89-6.36,4.83-6.36,1.86,0,3.84,1,3.84,2.85a1.64,1.64,0,0,1-1.62,1.71,1.68,1.68,0,0,1-1.71-1.68c-.06-1.86-.18-2.07-.69-2.07-.84,0-1.11,1.32-1.11,3.63v3.12h3.45v.84l-3.45,0Z"/><path class="cls-3" d="M1148.11,362c2,0,3.93-1.32,3.93-3.18,0-1.59-.87-2.1-4.23-2.61-4-.63-5-1.17-5-2.7,0-1,1.2-2.1,2.16-2.58a4.87,4.87,0,0,1-3.27-4.62c0-3.24,2.58-5.16,5.73-5.16a6,6,0,0,1,3.48.93,4.28,4.28,0,0,1,2.94-1.8,1.8,1.8,0,0,1,2,1.74,1.36,1.36,0,0,1-1.35,1.41c-1.26,0-1.17-1.68-1.83-1.68a2.08,2.08,0,0,0-1.32.72,5.14,5.14,0,0,1,2,3.93c0,3.18-2.73,4.95-5.85,4.95a8.75,8.75,0,0,1-1.83-.21,1.48,1.48,0,0,0-.48.93c0,.48.9.69,4,1.17,4,.63,5.85,1.47,5.85,4.26,0,3.24-3.93,5.28-7.2,5.28-3,0-6.51-.87-6.51-3.54,0-1.65,2.28-2.91,4.05-3l.15.39a3.28,3.28,0,0,0-1.44,2.58C1144.12,361.22,1145.86,362,1148.11,362Zm-.66-20.13c-1.68,0-2,2.16-2,4.44s.3,4.32,2,4.32,2.13-1.86,2.13-4.2S1149.1,341.9,1147.45,341.9Z"/><path class="cls-3" d="M1157.86,338.42c0-2.07-.21-2.49-2.19-2.76v-.54l5.67-.72.24.24-.18,5.55v3.09a4.17,4.17,0,0,1,3.63-2.1,4.28,4.28,0,0,1,4.47,4.44v5.91c0,2.76.12,3.18,1.92,3.48v.57l-3.81-.06-3.36.06V355c1.53-.21,1.71-.54,1.71-3.72v-5.43c0-1.83-.66-3.45-2-3.45-1,0-1.92.75-2.58,2.1v7.26c0,2.58.15,3,1.71,3.24v.57l-3.87-.06-3.42.06V355c1.83-.27,2-.63,2-3.42Z"/><path class="cls-3" d="M1176.73,356.06a3.75,3.75,0,0,1-4-3.84c0-2.4,1.68-3.63,4.44-4.26a25.48,25.48,0,0,1,2.94-.45v-1.83c0-2.31-.18-3.72-1.65-3.72s-1.59.51-1.89,2.64a1.88,1.88,0,0,1-1.89,1.68,1.65,1.65,0,0,1-1.62-1.62c0-2.22,3.24-3.48,5.64-3.48,3.06,0,5,.9,5,4.11v7.41c0,1.29.18,1.95.84,1.95s1-.72,1.26-1.29l.57.36a3.56,3.56,0,0,1-3.24,2.34,2.6,2.6,0,0,1-2.88-2.16A3.84,3.84,0,0,1,1176.73,356.06Zm1.44-1.47c.87,0,1.5-.78,2-1.71V348.2a8.07,8.07,0,0,0-2,.48c-1.08.42-1.62,1.41-1.62,3.09C1176.49,353.21,1177.12,354.59,1178.17,354.59Z"/><path class="cls-3" d="M1192.24,343.4a4.29,4.29,0,0,1,8,2.34v5.91c0,2.61.15,3,1.8,3.33v.6l-3.42-.06-3.57.06V355c1.5-.3,1.65-.72,1.65-3.39v-5.67c0-1.68-.6-3.45-2-3.45-1.08,0-1.92.9-2.52,2.19V352c0,2.25.06,2.73,1.68,3v.6l-3.66-.06-3.57.06V355c1.77-.24,2-.63,2-3.18v-6.9c0-1.89-.21-2.31-2-2.43v-.57l5.49-.6.12.12Z"/><path class="cls-3" d="M1208.56,352c0,2.28.15,2.79,1.92,3.06v.57l-3.63-.06-3.87.06V355c1.83-.27,2-.69,2-3.21v-7c0-1.92-.21-2.25-2-2.37v-.57l5.46-.6.09.12Zm-1.92-17.13a2.16,2.16,0,1,1-2.19,2.16A2.2,2.2,0,0,1,1206.64,334.82Z"/><path class="cls-3" d="M1219.63,342a1.93,1.93,0,0,0,.69.33c.27,0,.48-.27.57-.87h.63l-.12,4.86h-.63c-.42-2.82-1.77-4.29-3.84-4.29a2.33,2.33,0,0,0-2.49,2.34c0,1.17.93,1.92,3,2.61,3.45,1.14,4.71,2.28,4.71,4.65,0,2.94-2,4.53-5.13,4.53a5.88,5.88,0,0,1-2.67-.72,2.43,2.43,0,0,0-.87-.36c-.36,0-.48.33-.54.84h-.63v-5h.63c.36,2.73,2,4.44,4.08,4.44,1.53,0,2.73-.72,2.73-2.22,0-1-.66-1.74-3.39-2.7s-4.32-2.22-4.32-4.74c0-2.79,2.28-4.47,4.86-4.47A5.28,5.28,0,0,1,1219.63,342Z"/><path class="cls-3" d="M1229,341.72h3.78v.84l-3.78-.06v10c0,1.65.36,2.43,1.29,2.43s1.59-.78,2.1-2.31l.57.24c-.57,1.92-1.65,3.24-3.57,3.24-2.64,0-4-1.47-4-4V342.5h-2v-.78h2v-4l3.57-.48Z"/><path class="cls-3" d="M1238.17,356.06a3.75,3.75,0,0,1-4-3.84c0-2.4,1.68-3.63,4.44-4.26a25.48,25.48,0,0,1,2.94-.45v-1.83c0-2.31-.18-3.72-1.65-3.72s-1.59.51-1.89,2.64a1.88,1.88,0,0,1-1.89,1.68,1.65,1.65,0,0,1-1.62-1.62c0-2.22,3.24-3.48,5.64-3.48,3.06,0,5,.9,5,4.11v7.41c0,1.29.18,1.95.84,1.95s1-.72,1.26-1.29l.57.36a3.56,3.56,0,0,1-3.24,2.34,2.6,2.6,0,0,1-2.88-2.16A3.84,3.84,0,0,1,1238.17,356.06Zm1.44-1.47c.87,0,1.5-.78,2-1.71V348.2a8.07,8.07,0,0,0-2,.48c-1.08.42-1.62,1.41-1.62,3.09C1237.93,353.21,1238.56,354.59,1239.61,354.59Z"/><path class="cls-3" d="M1253.68,343.4a4.29,4.29,0,0,1,8,2.34v5.91c0,2.61.15,3,1.79,3.33v.6l-3.42-.06-3.56.06V355c1.5-.3,1.65-.72,1.65-3.39v-5.67c0-1.68-.6-3.45-2-3.45-1.08,0-1.92.9-2.52,2.19V352c0,2.25.06,2.73,1.68,3v.6l-3.66-.06-3.57.06V355c1.77-.24,2-.63,2-3.18v-6.9c0-1.89-.21-2.31-2-2.43v-.57l5.49-.6.12.12Z"/><polygon class="cls-4" points="261.88 317.3 301.74 262.92 341.6 317.3 261.88 317.3"/><path class="cls-5" d="M301.74,264.61l37.88,51.69H263.86l37.88-51.69m0-3.38L259.91,318.3h83.66l-41.83-57.07Z"/><path class="cls-3" d="M267.69,349.31H261l-.6,1.68c-1.05,3-.69,3.57,1.77,3.93v.66h-6.27v-.66c1.89-.33,2.46-1.05,3.51-3.93l5.73-15.87h1.17l6.21,16.29c1.11,2.94,1.44,3.3,3.39,3.51v.66H267v-.66c2.28-.24,2.43-.78,1.47-3.33Zm-6.42-.87h6.12l-3.06-8.61Z"/><path class="cls-3" d="M278.4,338.15c0-1.86-.24-2.19-2-2.52v-.51l5.61-.72.21.24-.24,5.55v11.67c0,2.31.18,2.85,1.92,3.12v.6l-3.78-.06-3.66.06V355c1.77-.21,2-.75,2-3.3Z"/><path class="cls-3" d="M291.75,362c2,0,3.93-1.32,3.93-3.18,0-1.59-.87-2.1-4.23-2.61-4-.63-5-1.17-5-2.7,0-1,1.2-2.1,2.16-2.58a4.87,4.87,0,0,1-3.27-4.62c0-3.24,2.58-5.16,5.73-5.16a6,6,0,0,1,3.48.93,4.28,4.28,0,0,1,2.94-1.8,1.8,1.8,0,0,1,2,1.74,1.36,1.36,0,0,1-1.35,1.41c-1.26,0-1.17-1.68-1.83-1.68a2.08,2.08,0,0,0-1.32.72,5.14,5.14,0,0,1,2,3.93c0,3.18-2.73,4.95-5.85,4.95a8.75,8.75,0,0,1-1.83-.21,1.48,1.48,0,0,0-.48.93c0,.48.9.69,4.05,1.17,4,.63,5.85,1.47,5.85,4.26,0,3.24-3.93,5.28-7.2,5.28-3,0-6.51-.87-6.51-3.54,0-1.65,2.28-2.91,4.05-3l.15.39a3.28,3.28,0,0,0-1.44,2.58C287.76,361.22,289.5,362,291.75,362Zm-.66-20.13c-1.68,0-2,2.16-2,4.44s.3,4.32,2,4.32,2.13-1.86,2.13-4.2S292.74,341.9,291.09,341.9Z"/><path class="cls-3" d="M303.42,348.14v.69c0,3.42.87,6,3.48,6a5.07,5.07,0,0,0,4.14-2.31l.51.48a6.62,6.62,0,0,1-5.58,3c-4,0-6.36-3-6.36-7.2,0-4,2.16-7.68,6.36-7.68,3.81,0,5.76,2.82,5.76,7Zm0-.75h4.47c0-3.06-.3-5.43-2-5.43S303.66,344.09,303.45,347.39Z"/><path class="cls-3" d="M318.57,343.88c.6-1.62,1.62-2.76,3.39-2.76a2.5,2.5,0,0,1,2.55,2.52,2,2,0,0,1-1.86,2.07,1.8,1.8,0,0,1-1.77-1.8c-.06-.78-.12-1.23-.48-1.23-.72,0-1.41,1.44-1.8,3.27v5.85c0,2.46.3,2.88,2.91,3.21v.57l-5-.06-3.63.06V355c1.92-.24,2.13-.66,2.13-3.24v-6.6c0-2-.24-2.55-2.28-2.7v-.57l5.73-.6.12.12Z"/><path class="cls-3" d="M330.72,352c0,2.28.15,2.79,1.92,3.06v.57l-3.63-.06-3.87.06V355c1.83-.27,2-.69,2-3.21v-7c0-1.92-.21-2.25-2-2.37v-.57l5.46-.6.09.12Zm-1.92-17.13a2.16,2.16,0,1,1-2.19,2.16A2.2,2.2,0,0,1,328.8,334.82Z"/><path class="cls-3" d="M338,356.06a3.75,3.75,0,0,1-4-3.84c0-2.4,1.68-3.63,4.44-4.26a25.48,25.48,0,0,1,2.94-.45v-1.83c0-2.31-.18-3.72-1.65-3.72s-1.59.51-1.89,2.64a1.88,1.88,0,0,1-1.89,1.68,1.65,1.65,0,0,1-1.62-1.62c0-2.22,3.24-3.48,5.64-3.48,3.06,0,4.95.9,4.95,4.11v7.41c0,1.29.18,1.95.84,1.95s1-.72,1.26-1.29l.57.36a3.56,3.56,0,0,1-3.24,2.34,2.6,2.6,0,0,1-2.88-2.16A3.84,3.84,0,0,1,338,356.06Zm1.44-1.47c.87,0,1.5-.78,2-1.71V348.2a8.07,8.07,0,0,0-2,.48c-1.08.42-1.62,1.41-1.62,3.09C337.74,353.21,338.37,354.59,339.42,354.59Z"/><polygon class="cls-1" points="54.74 485.72 80.26 459.62 105.77 485.72 54.74 485.72"/><path class="cls-2" d="M80.26,461.05l23.13,23.67H57.12l23.14-23.67m0-2.87L52.37,486.72h55.77L80.26,458.18Z"/><path class="cls-3" d="M42.4,510.54v.06c3.39.42,5.4,2.31,5.4,4.95,0,3.84-2.67,5.61-6.9,5.61H31.33v-.63c2.52-.21,2.79-.78,2.79-4v-12c0-2.16-.39-2.58-2.79-2.76v-.63h8.82c3.36,0,6.54,1.71,6.54,4.86C46.69,508.65,44.8,510.15,42.4,510.54Zm-2.94-.27c2.52,0,3.48-1.41,3.48-4.11S41.59,502,39.46,502H37.84v8.28Zm-.06.84H37.84V518c0,1.53.51,2.34,2.43,2.34,2.43,0,3.72-1.44,3.72-4.71C44,512.7,42.55,511.11,39.4,511.11Z"/><path class="cls-3" d="M53.47,521.64a3.75,3.75,0,0,1-4-3.84c0-2.4,1.68-3.63,4.44-4.26a25.48,25.48,0,0,1,2.94-.45v-1.83c0-2.31-.18-3.72-1.65-3.72s-1.59.51-1.89,2.64a1.88,1.88,0,0,1-1.89,1.68,1.65,1.65,0,0,1-1.62-1.62c0-2.22,3.24-3.48,5.64-3.48,3.06,0,5,.9,5,4.11v7.41c0,1.29.18,2,.84,2s1-.72,1.26-1.29l.57.36a3.56,3.56,0,0,1-3.24,2.34A2.6,2.6,0,0,1,57,519.48,3.84,3.84,0,0,1,53.47,521.64Zm1.44-1.47c.87,0,1.5-.78,2-1.71v-4.68a8.07,8.07,0,0,0-2,.48c-1.08.42-1.62,1.41-1.62,3.09C53.23,518.79,53.86,520.17,54.91,520.17Z"/><path class="cls-3" d="M65.41,504c0-2.07-.21-2.49-2.19-2.76v-.54l5.67-.72.24.24L69,505.77v3.09a4.17,4.17,0,0,1,3.63-2.1A4.27,4.27,0,0,1,77,511.2v5.91c0,2.76.13,3.18,1.92,3.48v.57l-3.81-.06-3.35.06v-.57c1.53-.21,1.7-.54,1.7-3.72v-5.43c0-1.83-.65-3.45-2-3.45-1,0-1.92.75-2.58,2.1v7.26c0,2.58.15,3,1.71,3.24v.57l-3.87-.06-3.42.06v-.57c1.83-.27,2-.63,2-3.42Z"/><path class="cls-3" d="M85.42,509.46c.6-1.62,1.62-2.76,3.39-2.76a2.5,2.5,0,0,1,2.55,2.52,2,2,0,0,1-1.86,2.07,1.79,1.79,0,0,1-1.77-1.8c-.06-.78-.12-1.23-.48-1.23-.72,0-1.41,1.44-1.8,3.27v5.85c0,2.46.3,2.88,2.91,3.21v.57l-5-.06-3.63.06v-.57c1.92-.24,2.13-.66,2.13-3.24v-6.6c0-2-.24-2.55-2.28-2.7v-.57l5.73-.6.12.12Z"/><path class="cls-3" d="M95.77,513.72v.69c0,3.42.86,6,3.47,6a5.07,5.07,0,0,0,4.14-2.31l.51.48a6.62,6.62,0,0,1-5.57,3c-4,0-6.36-3-6.36-7.2,0-4,2.16-7.68,6.36-7.68,3.8,0,5.75,2.82,5.75,7Zm0-.75h4.47c0-3.06-.3-5.43-2-5.43S96,509.67,95.79,513Z"/><path class="cls-3" d="M110.94,517.53c0,2.28.15,2.79,1.92,3.06v.57l-3.63-.06-3.87.06v-.57c1.83-.27,2-.69,2-3.21v-7c0-1.92-.21-2.25-2-2.37v-.57l5.46-.6.08.12ZM109,500.4a2.16,2.16,0,1,1-2.18,2.16A2.2,2.2,0,0,1,109,500.4Z"/><path class="cls-3" d="M119.34,509a4.29,4.29,0,0,1,8,2.34v5.91c0,2.61.15,3,1.8,3.33v.6l-3.42-.06-3.57.06v-.6c1.5-.3,1.65-.72,1.65-3.39V511.5c0-1.68-.6-3.45-2-3.45-1.08,0-1.92.9-2.52,2.19v7.32c0,2.25.06,2.73,1.68,3v.6l-3.66-.06-3.57.06v-.6c1.77-.24,2-.63,2-3.18v-6.9c0-1.89-.21-2.31-2-2.43v-.57l5.49-.6.12.12Z"/><polygon class="cls-1" points="729.06 485.72 744.71 473.71 760.35 485.72 729.06 485.72"/><path class="cls-2" d="M744.71,475l12.7,9.75H732l12.7-9.75m0-2.52-18.59,14.27H763.3l-18.59-14.27Z"/><path class="cls-3" d="M698.58,517.5c-1.62,2.58-3.6,4.23-6.72,4.23-5.73,0-9.06-4.44-9.06-10.32,0-6,3.54-10.62,8.85-10.62,3.27,0,6.93,2.16,6.93,5a1.91,1.91,0,0,1-1.86,2,2.12,2.12,0,0,1-2-1.92c-.45-3.09-.78-4.14-3.15-4.14-3.33,0-4.41,4-4.41,8.7s1.2,10,5.34,10c2.34,0,3.9-1.26,5.28-3.42Z"/><path class="cls-3" d="M703.86,521.64a3.75,3.75,0,0,1-4-3.84c0-2.4,1.68-3.63,4.44-4.26a25.48,25.48,0,0,1,2.94-.45v-1.83c0-2.31-.18-3.72-1.65-3.72s-1.59.51-1.89,2.64a1.88,1.88,0,0,1-1.89,1.68,1.65,1.65,0,0,1-1.62-1.62c0-2.22,3.24-3.48,5.64-3.48,3.06,0,5,.9,5,4.11v7.41c0,1.29.18,2,.84,2s1-.72,1.26-1.29l.57.36a3.56,3.56,0,0,1-3.24,2.34,2.6,2.6,0,0,1-2.88-2.16A3.84,3.84,0,0,1,703.86,521.64Zm1.44-1.47c.87,0,1.5-.78,2-1.71v-4.68a8.07,8.07,0,0,0-2,.48c-1.08.42-1.62,1.41-1.62,3.09C703.62,518.79,704.25,520.17,705.3,520.17Z"/><path class="cls-3" d="M719.37,509.1a4.24,4.24,0,0,1,7.68.21,4.54,4.54,0,0,1,4-2.55,4.15,4.15,0,0,1,4.26,4.47v5.94c0,2.73.18,3.18,2,3.39v.6l-3.57-.06-3.63.06v-.6c1.56-.21,1.68-.72,1.68-3.66v-5.46c0-1.62-.54-3.36-1.8-3.36s-2.07,1-2.61,2.31v7.11c0,2.37.21,2.85,1.59,3.06v.6l-3.21-.06-3.51.06v-.6c1.38-.21,1.56-.72,1.56-2.91v-6.21c0-1.68-.51-3.36-1.77-3.36s-2.19,1-2.64,2.52v6.9c0,2.4.18,2.82,1.71,3.06v.6l-3.75-.06-3.45.06v-.6c1.86-.24,1.92-.6,1.92-3.24v-6.84c0-1.92-.15-2.25-2-2.43v-.57l5.46-.6.12.12Z"/><path class="cls-3" d="M745.86,521.7a13.31,13.31,0,0,1-6-1.35l.09-5.25V504.87c0-3.06-.18-3.36-2.25-3.63v-.54l5.88-.72.24.18a53.81,53.81,0,0,0-.33,6.51v12.78a2.68,2.68,0,0,0,2.34,1.44c2.28,0,2.88-3.75,2.88-7,0-2.76-.63-5.82-2.4-5.82a2.43,2.43,0,0,0-1.95,1.35l-.42-.42a4,4,0,0,1,3.45-2.25c3.27,0,5.16,3.06,5.16,6.93C752.55,518.52,750.06,521.7,745.86,521.7Z"/><path class="cls-3" d="M761.07,521.7c-3.75,0-6.63-2.85-6.63-7.47s3-7.47,6.63-7.47,6.6,2.85,6.6,7.47S764.76,521.7,761.07,521.7Zm0-14.1c-2.37,0-2.79,3.6-2.79,6.63s.45,6.63,2.82,6.63,2.76-3.6,2.76-6.63S763.38,507.6,761,507.6Z"/><path class="cls-3" d="M775.92,527.61c2,0,3.93-1.32,3.93-3.18,0-1.59-.87-2.1-4.23-2.61-4-.63-5-1.17-5-2.7,0-1,1.2-2.1,2.16-2.58a4.87,4.87,0,0,1-3.27-4.62c0-3.24,2.58-5.16,5.73-5.16a6,6,0,0,1,3.48.93,4.28,4.28,0,0,1,2.94-1.8,1.8,1.8,0,0,1,2,1.74,1.36,1.36,0,0,1-1.35,1.41c-1.26,0-1.17-1.68-1.83-1.68a2.08,2.08,0,0,0-1.32.72,5.14,5.14,0,0,1,2,3.93c0,3.18-2.73,5-5.85,5a8.75,8.75,0,0,1-1.83-.21,1.48,1.48,0,0,0-.48.93c0,.48.9.69,4,1.17,4,.63,5.85,1.47,5.85,4.26,0,3.24-3.93,5.28-7.2,5.28-3,0-6.51-.87-6.51-3.54,0-1.65,2.28-2.91,4.05-3l.15.39a3.28,3.28,0,0,0-1.44,2.58C771.93,526.8,773.67,527.61,775.92,527.61Zm-.66-20.13c-1.68,0-2,2.16-2,4.44,0,2.13.3,4.32,2,4.32s2.13-1.86,2.13-4.2S776.91,507.48,775.26,507.48Z"/><path class="cls-3" d="M789.72,517.53c0,2.28.15,2.79,1.92,3.06v.57L788,521.1l-3.87.06v-.57c1.83-.27,2-.69,2-3.21v-7c0-1.92-.21-2.25-2-2.37v-.57l5.46-.6.09.12ZM787.8,500.4a2.16,2.16,0,1,1-2.19,2.16A2.2,2.2,0,0,1,787.8,500.4Z"/><path class="cls-3" d="M797,521.64a3.75,3.75,0,0,1-4-3.84c0-2.4,1.68-3.63,4.44-4.26a25.48,25.48,0,0,1,2.94-.45v-1.83c0-2.31-.18-3.72-1.65-3.72s-1.59.51-1.89,2.64a1.88,1.88,0,0,1-1.89,1.68,1.65,1.65,0,0,1-1.62-1.62c0-2.22,3.24-3.48,5.64-3.48,3.06,0,5,.9,5,4.11v7.41c0,1.29.18,2,.84,2s1-.72,1.26-1.29l.57.36a3.56,3.56,0,0,1-3.24,2.34,2.6,2.6,0,0,1-2.88-2.16A3.84,3.84,0,0,1,797,521.64Zm1.44-1.47c.87,0,1.5-.78,2-1.71v-4.68a8.07,8.07,0,0,0-2,.48c-1.08.42-1.62,1.41-1.62,3.09C796.74,518.79,797.37,520.17,798.42,520.17Z"/><polygon class="cls-4" points="921.4 144.72 966.19 62.21 1010.99 144.72 921.4 144.72"/><path class="cls-5" d="M966.19,64.3l43.12,79.42H923.08L966.19,64.3m0-4.19-46.47,85.61h92.95L966.19,60.11Z"/><path class="cls-3" d="M941.7,169.21v6.87H941c-.45-2.55-.87-3.33-2.76-3.33H936v5.64c0,2.07.45,3.3,2.52,3.3h1.17c2.58,0,3.51-1.44,4.26-5.19h.84v6.06H929.67v-.66c2.37-.21,2.61-.87,2.61-4V166c0-2.13-.33-2.52-2.7-2.79v-.66h14.91l0,5.7h-.81c-.75-3.78-1.83-4.83-4.59-4.83H936v8.49h2.22c1.89,0,2.34-.45,2.76-2.7Z"/><path class="cls-3" d="M952.86,189c2,0,3.93-1.32,3.93-3.18,0-1.59-.87-2.1-4.23-2.61-4-.63-5-1.17-5-2.7,0-1,1.2-2.1,2.16-2.58a4.87,4.87,0,0,1-3.27-4.62c0-3.24,2.58-5.16,5.73-5.16a6,6,0,0,1,3.48.93,4.28,4.28,0,0,1,2.94-1.8,1.8,1.8,0,0,1,2,1.74,1.36,1.36,0,0,1-1.35,1.41c-1.26,0-1.17-1.68-1.83-1.68a2.08,2.08,0,0,0-1.32.72,5.14,5.14,0,0,1,2,3.93c0,3.18-2.73,5-5.85,5a8.75,8.75,0,0,1-1.83-.21,1.48,1.48,0,0,0-.48.93c0,.48.9.69,4.05,1.17,4,.63,5.85,1.47,5.85,4.26,0,3.24-3.93,5.28-7.2,5.28-3,0-6.51-.87-6.51-3.54,0-1.65,2.28-2.91,4-3l.15.39a3.28,3.28,0,0,0-1.44,2.58C948.87,188.2,950.61,189,952.86,189Zm-.66-20.13c-1.68,0-2,2.16-2,4.44,0,2.13.3,4.32,2,4.32s2.13-1.86,2.13-4.2S953.85,168.88,952.2,168.88Z"/><path class="cls-3" d="M966.66,178.93c0,2.28.15,2.79,1.92,3.06v.57L965,182.5l-3.87.06V182c1.83-.27,2-.69,2-3.21v-7c0-1.92-.21-2.25-2-2.37v-.57l5.46-.6.09.12Zm-1.92-17.13a2.16,2.16,0,1,1-2.19,2.16A2.2,2.2,0,0,1,964.74,161.8Z"/><path class="cls-3" d="M974.79,168.7h3.78v.84l-3.78-.06v10c0,1.65.36,2.43,1.29,2.43s1.59-.78,2.1-2.31l.57.24c-.57,1.92-1.65,3.24-3.57,3.24-2.64,0-4-1.47-4-4v-9.66h-2v-.78h2v-4l3.57-.48Z"/><path class="cls-3" d="M984.87,168.7h3.78v.84l-3.78-.06v10c0,1.65.36,2.43,1.29,2.43s1.59-.78,2.1-2.31l.57.24c-.57,1.92-1.65,3.24-3.57,3.24-2.64,0-4-1.47-4-4v-9.66h-2v-.78h2v-4l3.57-.48Z"/><path class="cls-3" d="M996.21,183.1c-3.75,0-6.63-2.85-6.63-7.47s3-7.47,6.63-7.47,6.6,2.85,6.6,7.47S999.9,183.1,996.21,183.1Zm0-14.1c-2.37,0-2.79,3.6-2.79,6.63s.45,6.63,2.82,6.63,2.76-3.6,2.76-6.63S998.52,169,996.18,169Z"/><polygon class="cls-1" points="1590.56 144.72 1630.64 76.36 1670.73 144.72 1590.56 144.72"/><path class="cls-2" d="M1630.64,78.33,1669,143.72h-76.67l38.33-65.39m0-4-41.82,71.34h83.65l-41.83-71.34Z"/><path class="cls-3" d="M1611.36,167.26v10.59c0,3.21.35,3.81,2.9,4v.69h-9.44v-.69c2.55-.21,2.81-.84,2.81-4V167.26c0-3.21-.26-3.81-2.81-4v-.69h9.42v.69C1611.66,163.45,1611.36,164,1611.36,167.26Z"/><path class="cls-3" d="M1620.86,170.86c.6-1.62,1.62-2.76,3.39-2.76a2.5,2.5,0,0,1,2.55,2.52,2,2,0,0,1-1.86,2.07,1.8,1.8,0,0,1-1.77-1.8c-.06-.78-.12-1.23-.48-1.23-.72,0-1.41,1.44-1.8,3.27v5.85c0,2.46.3,2.88,2.91,3.21v.57l-5-.06-3.63.06V182c1.92-.24,2.13-.66,2.13-3.24v-6.6c0-2-.24-2.55-2.28-2.7v-.57l5.73-.6.12.12Z"/><path class="cls-3" d="M1631.48,183a3.75,3.75,0,0,1-4-3.84c0-2.4,1.68-3.63,4.44-4.26a25.48,25.48,0,0,1,2.94-.45v-1.83c0-2.31-.18-3.72-1.65-3.72s-1.59.51-1.89,2.64a1.88,1.88,0,0,1-1.89,1.68,1.65,1.65,0,0,1-1.62-1.62c0-2.22,3.24-3.48,5.64-3.48,3.06,0,5,.9,5,4.11v7.41c0,1.29.18,1.95.84,1.95s1-.72,1.26-1.29l.57.36a3.56,3.56,0,0,1-3.24,2.34,2.6,2.6,0,0,1-2.88-2.16A3.84,3.84,0,0,1,1631.48,183Zm1.44-1.47c.87,0,1.5-.78,2-1.71v-4.68a8.07,8.07,0,0,0-2,.48c-1.08.42-1.62,1.41-1.62,3.09C1631.24,180.19,1631.87,181.57,1632.92,181.57Z"/><path class="cls-3" d="M1654.4,185.86c0,2.46.18,2.76,2.07,3v.6h-8.16v-.6c2.28-.24,2.55-.51,2.55-3.09v-4.41a3.81,3.81,0,0,1-3.3,1.71c-3.93,0-5.73-3.33-5.73-7.17,0-4.47,2.58-7.77,6.42-7.77a6,6,0,0,1,3.3,1l2.79-.81.33.18c-.21,1.5-.27,5.91-.27,7.53Zm-3.54-15.12a2.35,2.35,0,0,0-2.4-1.74c-2.19,0-2.82,3.42-2.82,6.42s.72,6.36,3,6.36a2.69,2.69,0,0,0,2.25-1.59Z"/><polygon class="cls-1" points="261.29 144.72 301.74 20.54 342.19 144.72 261.29 144.72"/><path class="cls-2" d="M301.74,23.76l39.07,120H262.67l39.07-120m0-6.45L259.91,145.72h83.66L301.74,17.31Z"/><path class="cls-3" d="M253.08,179.7c0-3.24-.3-3.75-3-4v-.69h8.22v.69c-1.68.18-1.83.57-1.83,4v1.53l.09,1.14a19,19,0,0,1-7.29,1.41c-5.94,0-9.33-4.56-9.33-10.44,0-6.15,3.81-10.5,9.6-10.5,3.45,0,7.53,2,7.53,5.13a1.8,1.8,0,0,1-1.86,2,2,2,0,0,1-2-2c-.36-3.18-1-4.11-3.75-4.11-4.23,0-5.19,4.2-5.19,9.39,0,4.53.93,9.57,5,9.57a5.56,5.56,0,0,0,3.84-1.29Z"/><path class="cls-3" d="M265,179.64c0,2.28.15,2.79,1.92,3.06v.57l-3.63-.06-3.87.06v-.57c1.83-.27,2-.69,2-3.21v-7c0-1.92-.21-2.25-2-2.37v-.57l5.46-.6.09.12Zm-1.92-17.13a2.16,2.16,0,1,1-2.19,2.16A2.2,2.2,0,0,1,263.1,162.51Z"/><path class="cls-3" d="M274.89,183.81c-3.75,0-6.63-2.85-6.63-7.47s3-7.47,6.63-7.47,6.6,2.85,6.6,7.47S278.58,183.81,274.89,183.81Zm0-14.1c-2.37,0-2.79,3.6-2.79,6.63s.45,6.63,2.82,6.63,2.76-3.6,2.76-6.63S277.2,169.71,274.86,169.71Z"/><path class="cls-3" d="M288.45,171.57c.6-1.62,1.62-2.76,3.39-2.76a2.5,2.5,0,0,1,2.55,2.52,2,2,0,0,1-1.86,2.07,1.8,1.8,0,0,1-1.77-1.8c-.06-.78-.12-1.23-.48-1.23-.72,0-1.41,1.44-1.8,3.27v5.85c0,2.46.3,2.88,2.91,3.21v.57l-5-.06-3.63.06v-.57c1.92-.24,2.13-.66,2.13-3.24v-6.6c0-2-.24-2.55-2.28-2.7v-.57l5.73-.6.12.12Z"/><path class="cls-3" d="M295,176.46c0-4.2,2.46-7.59,6.57-7.59a6,6,0,0,1,2.43.51v-3.57c0-1.95-.21-2.28-2.4-2.43v-.54l5.94-.69.24.18-.27,6.51v10.89c0,2.1.21,2.79,2.46,2.88l0,.54-5.58.66-.24-.18L304,182a4.35,4.35,0,0,1-3.36,1.74C296.67,183.75,295,180.57,295,176.46Zm9-5.46a2.53,2.53,0,0,0-2.22-1.35c-2.34,0-2.94,3.24-2.94,6.3s.63,6.45,2.91,6.45A2.82,2.82,0,0,0,304,181Z"/><path class="cls-3" d="M314.85,183.75a3.75,3.75,0,0,1-4-3.84c0-2.4,1.68-3.63,4.44-4.26a25.48,25.48,0,0,1,2.94-.45v-1.83c0-2.31-.18-3.72-1.65-3.72s-1.59.51-1.89,2.64a1.88,1.88,0,0,1-1.89,1.68,1.65,1.65,0,0,1-1.62-1.62c0-2.22,3.24-3.48,5.64-3.48,3.06,0,4.95.9,4.95,4.11v7.41c0,1.29.18,2,.84,2s1-.72,1.26-1.29l.57.36a3.56,3.56,0,0,1-3.24,2.34,2.6,2.6,0,0,1-2.88-2.16A3.84,3.84,0,0,1,314.85,183.75Zm1.44-1.47c.87,0,1.5-.78,2-1.71v-4.68a8.07,8.07,0,0,0-2,.48c-1.08.42-1.62,1.41-1.62,3.09C314.61,180.9,315.24,182.28,316.29,182.28Z"/><path class="cls-3" d="M330.36,171.09a4.29,4.29,0,0,1,8,2.34v5.91c0,2.61.15,3,1.8,3.33v.6l-3.42-.06-3.57.06v-.6c1.5-.3,1.65-.72,1.65-3.39v-5.67c0-1.68-.6-3.45-2-3.45-1.08,0-1.92.9-2.52,2.19v7.32c0,2.25.06,2.73,1.68,3v.6l-3.66-.06-3.57.06v-.6c1.77-.24,2-.63,2-3.18v-6.9c0-1.89-.21-2.31-2-2.43v-.57l5.49-.6.12.12Z"/><path class="cls-3" d="M346.68,179.64c0,2.28.15,2.79,1.92,3.06v.57l-3.63-.06-3.87.06v-.57c1.83-.27,2-.69,2-3.21v-7c0-1.92-.21-2.25-2-2.37v-.57l5.46-.6.09.12Zm-1.92-17.13a2.16,2.16,0,1,1-2.19,2.16A2.2,2.2,0,0,1,344.76,162.51Z"/><path class="cls-3" d="M353.94,183.75a3.75,3.75,0,0,1-4-3.84c0-2.4,1.68-3.63,4.44-4.26a25.48,25.48,0,0,1,2.94-.45v-1.83c0-2.31-.18-3.72-1.65-3.72s-1.59.51-1.89,2.64a1.88,1.88,0,0,1-1.89,1.68,1.65,1.65,0,0,1-1.62-1.62c0-2.22,3.24-3.48,5.64-3.48,3.06,0,4.95.9,4.95,4.11v7.41c0,1.29.18,2,.84,2s1-.72,1.26-1.29l.57.36a3.56,3.56,0,0,1-3.24,2.34,2.6,2.6,0,0,1-2.88-2.16A3.84,3.84,0,0,1,353.94,183.75Zm1.44-1.47c.87,0,1.5-.78,2-1.71v-4.68a8.07,8.07,0,0,0-2,.48c-1.08.42-1.62,1.41-1.62,3.09C353.7,180.9,354.33,182.28,355.38,182.28Z"/><polygon class="cls-1" points="1374.17 317.3 1409.16 277.02 1444.15 317.3 1374.17 317.3"/><path class="cls-2" d="M1409.16,278.54,1442,316.3h-65.58l32.79-37.76m0-3.05L1372,318.3h74.36l-37.18-42.81Z"/><path class="cls-3" d="M1371.2,340.28v10.59c0,3.15.3,3.81,2.72,4v.69h-9.05v-.69c2.22-.21,2.61-.57,2.61-4V340.28c0-3.45-.39-3.81-2.64-4v-.69h8.91v.69C1371.53,336.47,1371.2,337.13,1371.2,340.28Zm6.44-1.59c1.24-1.44,1.15-2.31-1.38-2.43v-.69h7.12v.69a5.78,5.78,0,0,0-4.26,2.49l-4.38,5.31,4.61,6.81c2.32,3.42,3,3.78,4.74,4v.69h-8.48v-.69c1.71-.21,1.71-.78-.52-4l-3.42-5Z"/><path class="cls-3" d="M1396.75,341.42c-.08.63-.17,5-.17,7.5v3.6c0,1.92.17,2.16,2.48,2.31v.57l-5.67.54-.14-.15-.16-2.1a4.32,4.32,0,0,1-8.21-1.95v-6.93c0-1.92-.18-2.28-2.22-2.43v-.57l5.82-.6.09.12c-.07.57-.12,4.71-.12,10.05,0,2.16.59,3.42,2,3.42,1.11,0,2-.9,2.54-2.4v-7.59c0-1.92-.21-2.28-2.12-2.43v-.57l5.72-.51Z"/><path class="cls-3" d="M1398.77,341.72l3.48.06,3.87-.06v.6c-1.45.09-1.8.54-1.53,1.29l2.91,8,2.37-6.18-.54-1.44a2.45,2.45,0,0,0-2.37-1.68v-.6l3.54.06,3.71-.06v.6c-1.46.12-2.12.63-1.79,1.44l3,8,2.7-7.71c.45-1.26,0-1.59-1.64-1.71v-.6l3,.06,2.43-.06v.6c-1.68.15-2.16.45-2.58,1.62L1415,356.12h-1l-3.53-9.33-3.57,9.33h-1L1401.25,344c-.41-1.11-.89-1.59-2.48-1.68Z"/><path class="cls-3" d="M1425.86,356.06a3.74,3.74,0,0,1-4-3.84c0-2.4,1.68-3.63,4.44-4.26a25.16,25.16,0,0,1,2.94-.45v-1.83c0-2.31-.19-3.72-1.65-3.72s-1.59.51-1.89,2.64a1.88,1.88,0,0,1-1.9,1.68,1.65,1.65,0,0,1-1.61-1.62c0-2.22,3.23-3.48,5.64-3.48,3.05,0,4.94.9,4.94,4.11v7.41c0,1.29.19,1.95.84,1.95s1-.72,1.27-1.29l.56.36a3.55,3.55,0,0,1-3.23,2.34,2.59,2.59,0,0,1-2.88-2.16A3.85,3.85,0,0,1,1425.86,356.06Zm1.43-1.47c.88,0,1.5-.78,2-1.71V348.2a7.88,7.88,0,0,0-2,.48c-1.08.42-1.62,1.41-1.62,3.09C1425.62,353.21,1426.25,354.59,1427.29,354.59Z"/><path class="cls-3" d="M1441.39,352c0,2.28.15,2.79,1.92,3.06v.57l-3.63-.06-3.87.06V355c1.83-.27,2-.69,2-3.21v-7c0-1.92-.21-2.25-2-2.37v-.57l5.46-.6.09.12Zm-1.92-17.13a2.16,2.16,0,1,1-2.18,2.16A2.2,2.2,0,0,1,1439.47,334.82Z"/><path class="cls-3" d="M1449.52,341.72h3.78v.84l-3.78-.06v10c0,1.65.36,2.43,1.29,2.43s1.59-.78,2.1-2.31l.57.24c-.57,1.92-1.65,3.24-3.57,3.24-2.64,0-4-1.47-4-4V342.5h-2v-.78h2v-4l3.57-.48Z"/><polygon class="cls-1" points="1373.51 144.72 1409.16 62.62 1444.82 144.72 1373.51 144.72"/><path class="cls-2" d="M1409.16,65.13l34.13,78.59H1375l34.13-78.59m0-5L1372,145.72h74.36l-37.18-85.61Z"/><path class="cls-3" d="M1369.34,177.85V167.26c0-3.21-.21-3.78-2.73-4v-.69h9.84v.69c-3,.27-3.39.87-3.39,4v11.52c0,2.16.36,2.91,2.37,2.91h.75c2.88,0,3.81-1.35,4.77-5.7h.9l-.15,6.57h-15.21v-.69C1369,181.66,1369.34,181.09,1369.34,177.85Z"/><path class="cls-3" d="M1388.78,178.93c0,2.28.15,2.79,1.92,3.06v.57l-3.63-.06-3.87.06V182c1.83-.27,2-.69,2-3.21v-7c0-1.92-.21-2.25-2-2.37v-.57l5.46-.6.09.12Zm-1.92-17.13a2.16,2.16,0,1,1-2.19,2.16A2.2,2.2,0,0,1,1386.86,161.8Z"/><path class="cls-3" d="M1399.37,183.1a13.31,13.31,0,0,1-6-1.35l.09-5.25V166.27c0-3.06-.18-3.36-2.25-3.63v-.54l5.88-.72.24.18a53.81,53.81,0,0,0-.33,6.51v12.78a2.68,2.68,0,0,0,2.34,1.44c2.28,0,2.88-3.75,2.88-7,0-2.76-.63-5.82-2.4-5.82a2.43,2.43,0,0,0-2,1.35l-.42-.42a4,4,0,0,1,3.45-2.25c3.27,0,5.16,3.06,5.16,6.93C1406.06,179.92,1403.57,183.1,1399.37,183.1Z"/><path class="cls-3" d="M1412,183a3.75,3.75,0,0,1-4-3.84c0-2.4,1.68-3.63,4.44-4.26a25.48,25.48,0,0,1,2.94-.45v-1.83c0-2.31-.18-3.72-1.65-3.72s-1.59.51-1.89,2.64a1.88,1.88,0,0,1-1.89,1.68,1.65,1.65,0,0,1-1.62-1.62c0-2.22,3.24-3.48,5.64-3.48,3.06,0,5,.9,5,4.11v7.41c0,1.29.18,1.95.84,1.95s1-.72,1.25-1.29l.58.36a3.56,3.56,0,0,1-3.24,2.34,2.6,2.6,0,0,1-2.88-2.16A3.84,3.84,0,0,1,1412,183Zm1.44-1.47c.86,0,1.5-.78,2-1.71v-4.68a8.07,8.07,0,0,0-2,.48c-1.08.42-1.62,1.41-1.62,3.09C1411.73,180.19,1412.36,181.57,1413.41,181.57Z"/><path class="cls-3" d="M1427.48,170.38a4.29,4.29,0,0,1,8,2.34v5.91c0,2.61.14,3,1.79,3.33v.6l-3.41-.06-3.58.06V182c1.5-.3,1.66-.72,1.66-3.39V172.9c0-1.68-.61-3.45-2-3.45-1.08,0-1.92.9-2.51,2.19V179c0,2.25,0,2.73,1.67,3v.6l-3.65-.06-3.57.06V182c1.76-.24,2-.63,2-3.18v-6.9c0-1.89-.21-2.31-2-2.43v-.57l5.49-.6.12.12Z"/><path class="cls-3" d="M1445.23,183.1c-3.75,0-6.62-2.85-6.62-7.47s3-7.47,6.62-7.47,6.6,2.85,6.6,7.47S1448.93,183.1,1445.23,183.1Zm0-14.1c-2.36,0-2.78,3.6-2.78,6.63s.44,6.63,2.81,6.63,2.76-3.6,2.76-6.63S1447.55,169,1445.2,169Z"/><polygon class="cls-4" points="1147.45 144.72 1187.68 62.39 1227.9 144.72 1147.45 144.72"/><path class="cls-5" d="M1187.68,64.67l38.62,79.05h-77.25l38.63-79m0-4.56-41.83,85.61h83.65l-41.82-85.61Z"/><path class="cls-3" d="M1158.76,177.85V167.26c0-3.21-.21-3.78-2.73-4v-.69h9.84v.69c-3,.27-3.39.87-3.39,4v11.52c0,2.16.36,2.91,2.37,2.91h.75c2.88,0,3.81-1.35,4.77-5.7h.9l-.15,6.57h-15.21v-.69C1158.43,181.66,1158.76,181.09,1158.76,177.85Z"/><path class="cls-3" d="M1178.2,178.93c0,2.28.15,2.79,1.92,3.06v.57l-3.63-.06-3.87.06V182c1.83-.27,2-.69,2-3.21v-7c0-1.92-.21-2.25-2-2.37v-.57l5.46-.6.09.12Zm-1.92-17.13a2.16,2.16,0,1,1-2.19,2.16A2.2,2.2,0,0,1,1176.28,161.8Z"/><path class="cls-3" d="M1188.79,183.1a13.31,13.31,0,0,1-6-1.35l.09-5.25V166.27c0-3.06-.18-3.36-2.25-3.63v-.54l5.88-.72.24.18a53.81,53.81,0,0,0-.33,6.51v12.78a2.68,2.68,0,0,0,2.34,1.44c2.28,0,2.88-3.75,2.88-7,0-2.76-.63-5.82-2.4-5.82a2.43,2.43,0,0,0-2,1.35l-.42-.42a4,4,0,0,1,3.45-2.25c3.27,0,5.16,3.06,5.16,6.93C1195.48,179.92,1193,183.1,1188.79,183.1Z"/><path class="cls-3" d="M1202.56,178.93c0,2.28.15,2.79,1.92,3.06v.57l-3.63-.06-3.87.06V182c1.83-.27,2-.69,2-3.21v-7c0-1.92-.21-2.25-2-2.37v-.57l5.46-.6.09.12Zm-1.92-17.13a2.16,2.16,0,1,1-2.19,2.16A2.2,2.2,0,0,1,1200.64,161.8Z"/><path class="cls-3" d="M1209.82,183a3.75,3.75,0,0,1-4-3.84c0-2.4,1.68-3.63,4.44-4.26a25.48,25.48,0,0,1,2.94-.45v-1.83c0-2.31-.18-3.72-1.65-3.72s-1.59.51-1.89,2.64a1.88,1.88,0,0,1-1.89,1.68,1.65,1.65,0,0,1-1.62-1.62c0-2.22,3.24-3.48,5.64-3.48,3.06,0,5,.9,5,4.11v7.41c0,1.29.18,1.95.84,1.95s1-.72,1.26-1.29l.57.36a3.56,3.56,0,0,1-3.24,2.34,2.6,2.6,0,0,1-2.88-2.16A3.84,3.84,0,0,1,1209.82,183Zm1.44-1.47c.87,0,1.5-.78,2-1.71v-4.68a8.07,8.07,0,0,0-2,.48c-1.08.42-1.62,1.41-1.62,3.09C1209.58,180.19,1210.21,181.57,1211.26,181.57Z"/><polygon class="cls-1" points="487.89 317.3 523.22 263.06 558.56 317.3 487.89 317.3"/><path class="cls-2" d="M523.22,264.89l33.49,51.41h-67l33.49-51.41m0-3.66L486,318.3H560.4l-37.18-57.07Z"/><path class="cls-3" d="M486.52,355.73h-.9l-7.71-18.06v13.08c0,3.42.15,4,3,4.2v.63H474V355c2.73-.21,2.82-.78,2.82-4.11V339.92c0-3.12-.18-3.42-2.85-3.66v-.69h7.26l6.3,15.18L491.83,340a44.68,44.68,0,0,0,1.44-4.41h6.84v.69c-2.7.3-2.85.69-2.85,3.57v11.43c0,2.94.21,3.45,2.94,3.69v.63h-9.3V355c2.25-.21,2.64-.9,2.64-3.6v-13Z"/><path class="cls-3" d="M505.48,356.06a3.75,3.75,0,0,1-4-3.84c0-2.4,1.68-3.63,4.44-4.26a25.48,25.48,0,0,1,2.94-.45v-1.83c0-2.31-.18-3.72-1.65-3.72s-1.59.51-1.89,2.64a1.88,1.88,0,0,1-1.89,1.68,1.65,1.65,0,0,1-1.62-1.62c0-2.22,3.24-3.48,5.64-3.48,3.06,0,5,.9,5,4.11v7.41c0,1.29.18,1.95.84,1.95s1-.72,1.26-1.29l.57.36a3.56,3.56,0,0,1-3.24,2.34A2.6,2.6,0,0,1,509,353.9,3.84,3.84,0,0,1,505.48,356.06Zm1.44-1.47c.87,0,1.5-.78,2-1.71V348.2a8.07,8.07,0,0,0-2,.48c-1.08.42-1.62,1.41-1.62,3.09C505.24,353.21,505.87,354.59,506.92,354.59Z"/><path class="cls-3" d="M517.45,338.15c0-1.86-.24-2.19-2-2.52v-.51l5.61-.72.21.24-.24,5.55v11.67c0,2.31.18,2.85,1.92,3.12v.6l-3.78-.06-3.66.06V355c1.77-.21,2-.75,2-3.3Z"/><path class="cls-3" d="M528.16,348.14v.69c0,3.42.87,6,3.48,6a5.07,5.07,0,0,0,4.14-2.31l.51.48a6.62,6.62,0,0,1-5.58,3c-4,0-6.36-3-6.36-7.2,0-4,2.16-7.68,6.36-7.68,3.81,0,5.76,2.82,5.76,7Zm0-.75h4.47c0-3.06-.3-5.43-2-5.43S528.4,344.09,528.19,347.39Z"/><path class="cls-3" d="M546,342a1.93,1.93,0,0,0,.69.33c.27,0,.48-.27.57-.87h.63l-.12,4.86h-.63c-.42-2.82-1.77-4.29-3.84-4.29a2.33,2.33,0,0,0-2.49,2.34c0,1.17.93,1.92,3,2.61,3.45,1.14,4.71,2.28,4.71,4.65,0,2.94-2,4.53-5.13,4.53a5.88,5.88,0,0,1-2.67-.72,2.43,2.43,0,0,0-.87-.36c-.36,0-.48.33-.54.84h-.63v-5h.63c.36,2.73,1.95,4.44,4.08,4.44,1.53,0,2.73-.72,2.73-2.22,0-1-.66-1.74-3.39-2.7s-4.32-2.22-4.32-4.74c0-2.79,2.28-4.47,4.86-4.47A5.28,5.28,0,0,1,546,342Z"/><path class="cls-3" d="M555.61,352c0,2.28.15,2.79,1.92,3.06v.57l-3.63-.06-3.87.06V355c1.83-.27,2-.69,2-3.21v-7c0-1.92-.21-2.25-2-2.37v-.57l5.46-.6.09.12Zm-1.92-17.13A2.16,2.16,0,1,1,551.5,337,2.2,2.2,0,0,1,553.69,334.82Z"/><path class="cls-3" d="M562.87,356.06a3.75,3.75,0,0,1-4-3.84c0-2.4,1.68-3.63,4.44-4.26a25.48,25.48,0,0,1,2.94-.45v-1.83c0-2.31-.18-3.72-1.65-3.72s-1.59.51-1.89,2.64a1.88,1.88,0,0,1-1.89,1.68,1.65,1.65,0,0,1-1.62-1.62c0-2.22,3.24-3.48,5.64-3.48,3.06,0,5,.9,5,4.11v7.41c0,1.29.18,1.95.84,1.95s1-.72,1.26-1.29l.57.36a3.56,3.56,0,0,1-3.24,2.34,2.6,2.6,0,0,1-2.88-2.16A3.84,3.84,0,0,1,562.87,356.06Zm1.44-1.47c.87,0,1.5-.78,2-1.71V348.2a8.07,8.07,0,0,0-2,.48c-1.08.42-1.62,1.41-1.62,3.09C562.63,353.21,563.26,354.59,564.31,354.59Z"/><polygon class="cls-1" points="58.4 317.3 80.26 250.19 102.11 317.3 58.4 317.3"/><path class="cls-2" d="M80.26,253.42l20.48,62.88h-41l20.49-62.88m0-6.46L57,318.3h46.47L80.26,247Z"/><path class="cls-3" d="M42.79,355.73h-.9l-7.71-18.06v13.08c0,3.42.15,4,3,4.2v.63h-6.9V355c2.73-.21,2.82-.78,2.82-4.11V339.92c0-3.12-.18-3.42-2.85-3.66v-.69h7.26l6.29,15.18L48.09,340a44.68,44.68,0,0,0,1.44-4.41h6.84v.69c-2.7.3-2.85.69-2.85,3.57v11.43c0,2.94.21,3.45,2.94,3.69v.63H47.17V355c2.25-.21,2.63-.9,2.63-3.6v-13Z"/><path class="cls-3" d="M61.75,356.06a3.74,3.74,0,0,1-4-3.84c0-2.4,1.67-3.63,4.44-4.26a25.48,25.48,0,0,1,2.94-.45v-1.83c0-2.31-.19-3.72-1.65-3.72s-1.6.51-1.89,2.64a1.88,1.88,0,0,1-1.9,1.68,1.65,1.65,0,0,1-1.61-1.62c0-2.22,3.24-3.48,5.63-3.48,3.07,0,5,.9,5,4.11v7.41c0,1.29.18,1.95.84,1.95s1-.72,1.26-1.29l.57.36a3.56,3.56,0,0,1-3.24,2.34,2.6,2.6,0,0,1-2.88-2.16A3.82,3.82,0,0,1,61.75,356.06Zm1.44-1.47c.86,0,1.5-.78,2-1.71V348.2a8,8,0,0,0-2,.48c-1.09.42-1.63,1.41-1.63,3.09C61.5,353.21,62.13,354.59,63.19,354.59Z"/><path class="cls-3" d="M73.72,338.15c0-1.86-.24-2.19-2-2.52v-.51l5.61-.72.21.24-.25,5.55v11.67c0,2.31.19,2.85,1.92,3.12v.6l-3.77-.06-3.66.06V355c1.77-.21,2-.75,2-3.3Z"/><path class="cls-3" d="M80.61,348.77c0-4.2,2.46-7.59,6.57-7.59a6,6,0,0,1,2.43.51v-3.57c0-1.95-.21-2.28-2.4-2.43v-.54l5.94-.69.24.18-.27,6.51V352c0,2.1.21,2.79,2.46,2.88l0,.54-5.58.66-.24-.18-.15-1.62a4.35,4.35,0,0,1-3.36,1.74C82.29,356.06,80.61,352.88,80.61,348.77Zm9-5.46A2.53,2.53,0,0,0,87.39,342c-2.34,0-2.94,3.24-2.94,6.3s.63,6.45,2.91,6.45a2.82,2.82,0,0,0,2.25-1.41Z"/><path class="cls-3" d="M101.65,352c0,2.28.14,2.79,1.92,3.06v.57l-3.63-.06-3.87.06V355c1.83-.27,2-.69,2-3.21v-7c0-1.92-.21-2.25-2-2.37v-.57l5.45-.6.1.12Zm-1.92-17.13A2.16,2.16,0,1,1,97.54,337,2.2,2.2,0,0,1,99.73,334.82Z"/><path class="cls-3" d="M103.5,341.72l3.48.06,4.32-.06v.6c-1.56.09-2.16.51-1.74,1.68l2.67,7.74,2.7-7.32c.57-1.59.18-2-1.74-2.1v-.6l3.06.06,2.28-.06v.6c-1.68.15-2.13.63-2.67,2.1l-4.29,11.7h-1L105.93,344a2.39,2.39,0,0,0-2.43-1.68Z"/><path class="cls-3" d="M122,348.14v.69c0,3.42.87,6,3.48,6a5.07,5.07,0,0,0,4.14-2.31l.51.48a6.62,6.62,0,0,1-5.58,3c-4,0-6.36-3-6.36-7.2,0-4,2.17-7.68,6.36-7.68,3.81,0,5.76,2.82,5.76,7Zm0-.75h4.47c0-3.06-.3-5.43-2-5.43S122.22,344.09,122,347.39Z"/><polygon class="cls-4" points="704.38 144.72 744.71 48.43 785.03 144.72 704.38 144.72"/><path class="cls-5" d="M744.71,51l38.82,92.7H705.89L744.71,51m0-5.18-41.83,99.88h83.66L744.71,45.84Z"/><path class="cls-3" d="M703.88,183.42H703l-7.71-18.06v13.08c0,3.42.15,4,3,4.2v.63h-6.9v-.63c2.73-.21,2.82-.78,2.82-4.11V167.61c0-3.12-.18-3.42-2.85-3.66v-.69h7.26l6.3,15.18,4.32-10.77a44.68,44.68,0,0,0,1.44-4.41h6.84V164c-2.7.3-2.85.69-2.85,3.57V179c0,2.94.21,3.45,2.94,3.69v.63h-9.3v-.63c2.25-.21,2.64-.9,2.64-3.6v-13Z"/><path class="cls-3" d="M722.84,183.75a3.75,3.75,0,0,1-4-3.84c0-2.4,1.68-3.63,4.44-4.26a25.48,25.48,0,0,1,2.94-.45v-1.83c0-2.31-.18-3.72-1.65-3.72s-1.59.51-1.89,2.64a1.88,1.88,0,0,1-1.89,1.68,1.65,1.65,0,0,1-1.62-1.62c0-2.22,3.24-3.48,5.64-3.48,3.06,0,4.95.9,4.95,4.11v7.41c0,1.29.18,2,.84,2s1-.72,1.26-1.29l.57.36a3.56,3.56,0,0,1-3.24,2.34,2.6,2.6,0,0,1-2.88-2.16A3.84,3.84,0,0,1,722.84,183.75Zm1.44-1.47c.87,0,1.5-.78,2-1.71v-4.68a8.07,8.07,0,0,0-2,.48c-1.08.42-1.62,1.41-1.62,3.09C722.6,180.9,723.23,182.28,724.28,182.28Z"/><path class="cls-3" d="M738.35,171.57c.6-1.62,1.62-2.76,3.39-2.76a2.5,2.5,0,0,1,2.55,2.52,2,2,0,0,1-1.86,2.07,1.8,1.8,0,0,1-1.77-1.8c-.06-.78-.12-1.23-.48-1.23-.72,0-1.41,1.44-1.8,3.27v5.85c0,2.46.3,2.88,2.91,3.21v.57l-5-.06-3.63.06v-.57c1.92-.24,2.13-.66,2.13-3.24v-6.6c0-2-.24-2.55-2.28-2.7v-.57l5.73-.6.12.12Z"/><path class="cls-3" d="M751.52,183.81c-3.75,0-6.63-2.85-6.63-7.47s3-7.47,6.63-7.47,6.6,2.85,6.6,7.47S755.21,183.81,751.52,183.81Zm0-14.1c-2.37,0-2.79,3.6-2.79,6.63s.45,6.63,2.82,6.63,2.76-3.6,2.76-6.63S753.83,169.71,751.49,169.71Z"/><path class="cls-3" d="M766.07,169.62c-1.77,0-2.31,2.67-2.31,6.3,0,3,.81,6.57,3.21,6.57a4.42,4.42,0,0,0,3.66-2l.54.54a6.08,6.08,0,0,1-4.95,2.82c-4.08,0-6.3-3.09-6.3-7.29s2.55-7.65,6.27-7.65c2.34,0,4.95,1.26,4.95,3.42a1.73,1.73,0,0,1-1.68,1.8,1.83,1.83,0,0,1-1.77-1.77C767.45,170.13,767.33,169.62,766.07,169.62Z"/><path class="cls-3" d="M778.55,169.62c-1.77,0-2.31,2.67-2.31,6.3,0,3,.81,6.57,3.21,6.57a4.42,4.42,0,0,0,3.66-2l.54.54a6.08,6.08,0,0,1-4.95,2.82c-4.08,0-6.3-3.09-6.3-7.29s2.55-7.65,6.27-7.65c2.34,0,5,1.26,5,3.42a1.73,1.73,0,0,1-1.68,1.8,1.83,1.83,0,0,1-1.77-1.77C779.93,170.13,779.81,169.62,778.55,169.62Z"/><path class="cls-3" d="M791.51,183.81c-3.75,0-6.63-2.85-6.63-7.47s3-7.47,6.63-7.47,6.6,2.85,6.6,7.47S795.2,183.81,791.51,183.81Zm0-14.1c-2.37,0-2.79,3.6-2.79,6.63s.45,6.63,2.82,6.63,2.76-3.6,2.76-6.63S793.82,169.71,791.48,169.71Z"/><polygon class="cls-1" points="695.82 317.3 744.71 262.73 793.59 317.3 695.82 317.3"/><path class="cls-2" d="M744.71,264.22l46.64,52.08H698.06l46.65-52.08m0-3L693.59,318.3H795.83l-51.12-57.07Z"/><path class="cls-3" d="M697.53,350.87c0,3.33.54,3.78,3.57,4v.69H690.87v-.69c2.13-.21,2.94-.69,2.94-4v-12c0-1.89-.63-2.37-2.94-2.64v-.69h9c4,0,7.14,1.68,7.14,5.61,0,4.26-3.51,6.42-8.25,6.6l-.18-.72c3.42-.36,4.47-2.19,4.47-5.58,0-3-1.38-5-4.08-5h-1.47Z"/><path class="cls-3" d="M711.87,356.06a3.75,3.75,0,0,1-4-3.84c0-2.4,1.68-3.63,4.44-4.26a25.48,25.48,0,0,1,2.94-.45v-1.83c0-2.31-.18-3.72-1.65-3.72s-1.59.51-1.89,2.64a1.88,1.88,0,0,1-1.89,1.68,1.65,1.65,0,0,1-1.62-1.62c0-2.22,3.24-3.48,5.64-3.48,3.06,0,5,.9,5,4.11v7.41c0,1.29.18,1.95.84,1.95s1-.72,1.26-1.29l.57.36a3.56,3.56,0,0,1-3.24,2.34,2.6,2.6,0,0,1-2.88-2.16A3.84,3.84,0,0,1,711.87,356.06Zm1.44-1.47c.87,0,1.5-.78,2-1.71V348.2a8.07,8.07,0,0,0-2,.48c-1.08.42-1.62,1.41-1.62,3.09C711.63,353.21,712.26,354.59,713.31,354.59Z"/><path class="cls-3" d="M723.84,338c0-1.8-.36-2.1-2.13-2.4v-.51l5.67-.72.21.24-.21,5.55v11.67c0,2.4.24,2.85,1.62,3.12v.6l-3.15-.06-4.08.06V355c1.71-.24,2.07-.75,2.07-3.3Zm3.78,9.93,3.72-3.51a2.13,2.13,0,0,0,.78-1.35c0-.42-.36-.66-1.41-.75v-.63h5.94v.63a6.84,6.84,0,0,0-4.2,2.13l-2.07,1.95,3.87,5.79c1.35,2,1.86,2.55,3.3,2.76v.6h-7V355c1-.15,1.17-.6.69-1.35Z"/><path class="cls-3" d="M743.58,352c0,2.28.15,2.79,1.92,3.06v.57l-3.63-.06-3.87.06V355c1.83-.27,2-.69,2-3.21v-7c0-1.92-.21-2.25-2-2.37v-.57l5.46-.6.09.12Zm-1.92-17.13a2.16,2.16,0,1,1-2.19,2.16A2.2,2.2,0,0,1,741.66,334.82Z"/><path class="cls-3" d="M754.65,342a1.93,1.93,0,0,0,.69.33c.27,0,.48-.27.57-.87h.63l-.12,4.86h-.63C755.37,343.46,754,342,752,342a2.33,2.33,0,0,0-2.49,2.34c0,1.17.93,1.92,3,2.61,3.45,1.14,4.71,2.28,4.71,4.65,0,2.94-2,4.53-5.13,4.53a5.88,5.88,0,0,1-2.67-.72,2.43,2.43,0,0,0-.87-.36c-.36,0-.48.33-.54.84h-.63v-5H748c.36,2.73,2,4.44,4.08,4.44,1.53,0,2.73-.72,2.73-2.22,0-1-.66-1.74-3.39-2.7s-4.32-2.22-4.32-4.74c0-2.79,2.28-4.47,4.86-4.47A5.28,5.28,0,0,1,754.65,342Z"/><path class="cls-3" d="M764,341.72h3.78v.84L764,342.5v10c0,1.65.36,2.43,1.29,2.43s1.59-.78,2.1-2.31l.57.24c-.57,1.92-1.65,3.24-3.57,3.24-2.64,0-4-1.47-4-4V342.5h-2v-.78h2v-4l3.57-.48Z"/><path class="cls-3" d="M773.19,356.06a3.75,3.75,0,0,1-4-3.84c0-2.4,1.68-3.63,4.44-4.26a25.48,25.48,0,0,1,2.94-.45v-1.83c0-2.31-.18-3.72-1.65-3.72s-1.59.51-1.89,2.64a1.88,1.88,0,0,1-1.89,1.68,1.65,1.65,0,0,1-1.62-1.62c0-2.22,3.24-3.48,5.64-3.48,3.06,0,4.95.9,4.95,4.11v7.41c0,1.29.18,1.95.84,1.95s1-.72,1.26-1.29l.57.36a3.56,3.56,0,0,1-3.24,2.34,2.6,2.6,0,0,1-2.88-2.16A3.84,3.84,0,0,1,773.19,356.06Zm1.44-1.47c.87,0,1.5-.78,2-1.71V348.2a8.07,8.07,0,0,0-2,.48c-1.08.42-1.62,1.41-1.62,3.09C773,353.21,773.58,354.59,774.63,354.59Z"/><path class="cls-3" d="M788.7,343.4a4.29,4.29,0,0,1,8,2.34v5.91c0,2.61.15,3,1.8,3.33v.6l-3.42-.06-3.57.06V355c1.5-.3,1.65-.72,1.65-3.39v-5.67c0-1.68-.6-3.45-2-3.45-1.08,0-1.92.9-2.52,2.19V352c0,2.25.06,2.73,1.68,3v.6l-3.66-.06-3.57.06V355c1.77-.24,2-.63,2-3.18v-6.9c0-1.89-.21-2.31-2-2.43v-.57l5.49-.6.12.12Z"/><polygon class="cls-1" points="271.86 485.72 301.74 459.51 331.62 485.72 271.86 485.72"/><path class="cls-2" d="M301.74,460.85,329,484.72H274.52l27.22-23.87m0-2.67-32.53,28.54h65.06l-32.53-28.54Z"/><path class="cls-3" d="M279.79,521c3.06,3,5.88,5,9.18,5a8,8,0,0,0,3.75-.9l.33.66a10.55,10.55,0,0,1-5.43,1.53c-4.56,0-7.2-1.65-11.49-5.55h-.36c-6,0-9.44-4.56-9.44-10.47s3.54-10.47,9.44-10.47,9.51,4.56,9.51,10.47C285.28,515.85,283.3,519.36,279.79,521Zm-4-19.14c-4.19,0-5.07,4.83-5.07,9.45s.9,9.45,5.07,9.45,5.13-4.83,5.13-9.45S279.94,501.81,275.77,501.81Z"/><path class="cls-3" d="M291.43,521.64a3.75,3.75,0,0,1-4-3.84c0-2.4,1.68-3.63,4.44-4.26a25.48,25.48,0,0,1,2.94-.45v-1.83c0-2.31-.18-3.72-1.65-3.72s-1.59.51-1.89,2.64a1.88,1.88,0,0,1-1.89,1.68,1.65,1.65,0,0,1-1.62-1.62c0-2.22,3.24-3.48,5.64-3.48,3.06,0,4.95.9,4.95,4.11v7.41c0,1.29.18,2,.84,2s1-.72,1.26-1.29l.57.36a3.56,3.56,0,0,1-3.24,2.34,2.6,2.6,0,0,1-2.88-2.16A3.84,3.84,0,0,1,291.43,521.64Zm1.44-1.47c.87,0,1.5-.78,2-1.71v-4.68a8.07,8.07,0,0,0-2,.48c-1.08.42-1.62,1.41-1.62,3.09C291.19,518.79,291.82,520.17,292.87,520.17Z"/><path class="cls-3" d="M306.49,507.3h3.78v.84l-3.78-.06v10c0,1.65.36,2.43,1.29,2.43s1.59-.78,2.1-2.31l.57.24c-.57,1.92-1.65,3.24-3.57,3.24-2.64,0-4-1.47-4-4v-9.66h-2v-.78h2v-4l3.57-.48Z"/><path class="cls-3" d="M315.7,521.64a3.75,3.75,0,0,1-4-3.84c0-2.4,1.68-3.63,4.44-4.26a25.48,25.48,0,0,1,2.94-.45v-1.83c0-2.31-.18-3.72-1.65-3.72s-1.59.51-1.89,2.64a1.88,1.88,0,0,1-1.89,1.68,1.65,1.65,0,0,1-1.62-1.62c0-2.22,3.24-3.48,5.64-3.48,3.06,0,5,.9,5,4.11v7.41c0,1.29.18,2,.84,2s1-.72,1.26-1.29l.57.36a3.56,3.56,0,0,1-3.24,2.34,2.6,2.6,0,0,1-2.88-2.16A3.84,3.84,0,0,1,315.7,521.64Zm1.44-1.47c.87,0,1.5-.78,2-1.71v-4.68a8.07,8.07,0,0,0-2,.48c-1.08.42-1.62,1.41-1.62,3.09C315.46,518.79,316.09,520.17,317.14,520.17Z"/><path class="cls-3" d="M331.21,509.46c.6-1.62,1.62-2.76,3.39-2.76a2.5,2.5,0,0,1,2.55,2.52,2,2,0,0,1-1.86,2.07,1.8,1.8,0,0,1-1.77-1.8c-.06-.78-.12-1.23-.48-1.23-.72,0-1.41,1.44-1.8,3.27v5.85c0,2.46.3,2.88,2.91,3.21v.57l-5-.06-3.63.06v-.57c1.92-.24,2.13-.66,2.13-3.24v-6.6c0-2-.24-2.55-2.28-2.7v-.57l5.73-.6.12.12Z"/><polygon class="cls-1" points="482.77 144.72 523.22 20.54 563.67 144.72 482.77 144.72"/><path class="cls-2" d="M523.22,23.76l39.08,120H484.15l39.07-120m0-6.45L481.4,145.72h83.65L523.22,17.31Z"/><path class="cls-3" d="M441.64,177h-6.72l-.6,1.68c-1.05,3-.69,3.57,1.77,3.93v.66h-6.27v-.66c1.89-.33,2.46-1.05,3.51-3.93l5.73-15.87h1.17l6.21,16.29c1.11,2.94,1.44,3.3,3.39,3.51v.66H441v-.66c2.28-.24,2.43-.78,1.47-3.33Zm-6.42-.87h6.12l-3.06-8.61Z"/><path class="cls-3" d="M455.89,171.57c.6-1.62,1.62-2.76,3.39-2.76a2.5,2.5,0,0,1,2.55,2.52A2,2,0,0,1,460,173.4a1.8,1.8,0,0,1-1.77-1.8c-.06-.78-.12-1.23-.48-1.23-.72,0-1.41,1.44-1.8,3.27v5.85c0,2.46.3,2.88,2.91,3.21v.57l-5-.06-3.63.06v-.57c1.92-.24,2.13-.66,2.13-3.24v-6.6c0-2-.24-2.55-2.28-2.7v-.57l5.73-.6.12.12Z"/><path class="cls-3" d="M466.51,183.75a3.75,3.75,0,0,1-4-3.84c0-2.4,1.68-3.63,4.44-4.26a25.48,25.48,0,0,1,2.94-.45v-1.83c0-2.31-.18-3.72-1.65-3.72s-1.59.51-1.89,2.64A1.88,1.88,0,0,1,464.5,174a1.65,1.65,0,0,1-1.62-1.62c0-2.22,3.24-3.48,5.64-3.48,3.06,0,5,.9,5,4.11v7.41c0,1.29.18,2,.84,2s1-.72,1.26-1.29l.57.36a3.56,3.56,0,0,1-3.24,2.34,2.6,2.6,0,0,1-2.88-2.16A3.84,3.84,0,0,1,466.51,183.75Zm1.44-1.47c.87,0,1.5-.78,2-1.71v-4.68a8.07,8.07,0,0,0-2,.48c-1.08.42-1.62,1.41-1.62,3.09C466.27,180.9,466.9,182.28,468,182.28Z"/><path class="cls-3" d="M483.73,183.81a13.31,13.31,0,0,1-6-1.35l.09-5.25V167c0-3.06-.18-3.36-2.25-3.63v-.54l5.88-.72.24.18a53.81,53.81,0,0,0-.33,6.51v12.78A2.68,2.68,0,0,0,483.7,183c2.28,0,2.88-3.75,2.88-7,0-2.76-.63-5.82-2.4-5.82a2.43,2.43,0,0,0-1.95,1.35l-.42-.42a4,4,0,0,1,3.45-2.25c3.27,0,5.16,3.06,5.16,6.93C490.42,180.63,487.93,183.81,483.73,183.81Z"/><path class="cls-3" d="M497.5,179.64c0,2.28.15,2.79,1.92,3.06v.57l-3.63-.06-3.87.06v-.57c1.83-.27,2-.69,2-3.21v-7c0-1.92-.21-2.25-2-2.37v-.57l5.46-.6.09.12Zm-1.92-17.13a2.16,2.16,0,1,1-2.19,2.16A2.2,2.2,0,0,1,495.58,162.51Z"/><path class="cls-3" d="M504.76,183.75a3.75,3.75,0,0,1-4-3.84c0-2.4,1.68-3.63,4.44-4.26a25.48,25.48,0,0,1,2.94-.45v-1.83c0-2.31-.18-3.72-1.65-3.72s-1.59.51-1.89,2.64a1.88,1.88,0,0,1-1.89,1.68,1.65,1.65,0,0,1-1.62-1.62c0-2.22,3.24-3.48,5.64-3.48,3.06,0,5,.9,5,4.11v7.41c0,1.29.18,2,.84,2s1-.72,1.26-1.29l.57.36a3.56,3.56,0,0,1-3.24,2.34,2.6,2.6,0,0,1-2.88-2.16A3.84,3.84,0,0,1,504.76,183.75Zm1.44-1.47c.87,0,1.5-.78,2-1.71v-4.68a8.07,8.07,0,0,0-2,.48c-1.08.42-1.62,1.41-1.62,3.09C504.52,180.9,505.15,182.28,506.2,182.28Z"/><path class="cls-3" d="M533.2,164.13a1,1,0,0,0,.54.24c.36,0,.6-.42.66-1.29h.9l0,6.69h-.84c-.63-3.78-2.13-6.06-5.31-6.06-2.4,0-3.84,1.53-3.84,3.48,0,1.68,1,2.61,4.35,3.9,4.41,1.68,6.24,3.27,6.24,6.6,0,3.84-2.88,6.15-6.54,6.15a7.07,7.07,0,0,1-4.38-1.59.94.94,0,0,0-.6-.33c-.33,0-.57.51-.63,1.44h-.9v-6.84h.9c.45,3.75,2.28,6.36,5.52,6.36,2.43,0,4-1.41,4-3.57,0-1.74-1.08-2.79-4.86-4.2s-5.67-3.15-5.67-6.54,2.61-5.79,6.3-5.79A7,7,0,0,1,533.2,164.13Z"/><path class="cls-3" d="M541.87,183.75a3.75,3.75,0,0,1-4-3.84c0-2.4,1.68-3.63,4.44-4.26a25.48,25.48,0,0,1,2.94-.45v-1.83c0-2.31-.18-3.72-1.65-3.72s-1.59.51-1.89,2.64a1.88,1.88,0,0,1-1.89,1.68,1.65,1.65,0,0,1-1.62-1.62c0-2.22,3.24-3.48,5.64-3.48,3.06,0,5,.9,5,4.11v7.41c0,1.29.18,2,.84,2s1-.72,1.26-1.29l.57.36a3.56,3.56,0,0,1-3.24,2.34,2.6,2.6,0,0,1-2.88-2.16A3.84,3.84,0,0,1,541.87,183.75Zm1.44-1.47c.87,0,1.5-.78,2-1.71v-4.68a8.07,8.07,0,0,0-2,.48c-1.08.42-1.62,1.41-1.62,3.09C541.63,180.9,542.26,182.28,543.31,182.28Z"/><path class="cls-3" d="M565.48,169.11c-.09.63-.18,5-.18,7.5v3.6c0,1.92.18,2.16,2.49,2.31v.57l-5.67.54-.15-.15-.15-2.1a4.33,4.33,0,0,1-8.22-1.95V172.5c0-1.92-.18-2.28-2.22-2.43v-.57l5.82-.6.09.12c-.06.57-.12,4.71-.12,10,0,2.16.6,3.42,2,3.42,1.11,0,2-.9,2.55-2.4V172.5c0-1.92-.21-2.28-2.13-2.43v-.57l5.73-.51Z"/><path class="cls-3" d="M568.63,176.46c0-4.2,2.46-7.59,6.57-7.59a6,6,0,0,1,2.43.51v-3.57c0-1.95-.21-2.28-2.4-2.43v-.54l5.94-.69.24.18-.27,6.51v10.89c0,2.1.21,2.79,2.46,2.88l0,.54-5.58.66-.24-.18-.15-1.62a4.35,4.35,0,0,1-3.36,1.74C570.31,183.75,568.63,180.57,568.63,176.46Zm9-5.46a2.53,2.53,0,0,0-2.22-1.35c-2.34,0-2.94,3.24-2.94,6.3s.63,6.45,2.91,6.45a2.82,2.82,0,0,0,2.25-1.41Z"/><path class="cls-3" d="M589.66,179.64c0,2.28.15,2.79,1.92,3.06v.57l-3.63-.06-3.87.06v-.57c1.83-.27,2-.69,2-3.21v-7c0-1.92-.21-2.25-2-2.37v-.57l5.46-.6.09.12Zm-1.92-17.13a2.16,2.16,0,1,1-2.19,2.16A2.2,2.2,0,0,1,587.74,162.51Z"/><path class="cls-3" d="M597.79,169.41h3.78v.84l-3.78-.06v10c0,1.65.36,2.43,1.29,2.43s1.59-.78,2.1-2.31l.57.24c-.57,1.92-1.65,3.24-3.57,3.24-2.64,0-4-1.47-4-4v-9.66h-2v-.78h2v-4l3.57-.48Z"/><path class="cls-3" d="M607,183.75a3.75,3.75,0,0,1-4-3.84c0-2.4,1.68-3.63,4.44-4.26a25.48,25.48,0,0,1,2.94-.45v-1.83c0-2.31-.18-3.72-1.65-3.72s-1.59.51-1.89,2.64A1.88,1.88,0,0,1,605,174a1.65,1.65,0,0,1-1.62-1.62c0-2.22,3.24-3.48,5.64-3.48,3.06,0,5,.9,5,4.11v7.41c0,1.29.18,2,.84,2s1-.72,1.26-1.29l.57.36a3.56,3.56,0,0,1-3.24,2.34,2.6,2.6,0,0,1-2.88-2.16A3.84,3.84,0,0,1,607,183.75Zm1.44-1.47c.87,0,1.5-.78,2-1.71v-4.68a8.07,8.07,0,0,0-2,.48c-1.08.42-1.62,1.41-1.62,3.09C606.76,180.9,607.39,182.28,608.44,182.28Z"/><polygon class="cls-4" points="1591.19 317.3 1630.64 276.93 1670.1 317.3 1591.19 317.3"/><path class="cls-5" d="M1630.64,278.36l37.08,37.94h-74.15l37.07-37.94m0-2.87-41.82,42.81h83.65l-41.83-42.81Z"/><path class="cls-3" d="M1591.24,336.44a1,1,0,0,0,.54.24c.36,0,.6-.42.66-1.29h.9l0,6.69h-.84c-.63-3.78-2.13-6.06-5.31-6.06-2.4,0-3.84,1.53-3.84,3.48,0,1.68,1,2.61,4.35,3.9,4.41,1.68,6.24,3.27,6.24,6.6,0,3.84-2.88,6.15-6.54,6.15a7.07,7.07,0,0,1-4.38-1.59.94.94,0,0,0-.6-.33c-.33,0-.57.51-.63,1.44h-.9v-6.84h.9c.45,3.75,2.28,6.36,5.52,6.36,2.43,0,4-1.41,4-3.57,0-1.74-1.08-2.79-4.86-4.2s-5.67-3.15-5.67-6.54,2.61-5.79,6.3-5.79A7,7,0,0,1,1591.24,336.44Z"/><path class="cls-3" d="M1602.82,356.12c-3.75,0-6.63-2.85-6.63-7.47s3-7.47,6.63-7.47,6.6,2.85,6.6,7.47S1606.51,356.12,1602.82,356.12Zm0-14.1c-2.37,0-2.79,3.6-2.79,6.63s.45,6.63,2.82,6.63,2.76-3.6,2.76-6.63S1605.13,342,1602.79,342Z"/><path class="cls-3" d="M1616.38,343.52a4.24,4.24,0,0,1,7.68.21,4.54,4.54,0,0,1,4-2.55,4.15,4.15,0,0,1,4.26,4.47v5.94c0,2.73.18,3.18,2,3.39v.6l-3.57-.06-3.63.06V355c1.56-.21,1.68-.72,1.68-3.66v-5.46c0-1.62-.54-3.36-1.8-3.36s-2.07,1-2.61,2.31v7.11c0,2.37.21,2.85,1.59,3.06v.6l-3.21-.06-3.51.06V355c1.38-.21,1.56-.72,1.56-2.91v-6.21c0-1.68-.51-3.36-1.77-3.36s-2.19,1-2.64,2.52v6.9c0,2.4.18,2.82,1.71,3.06v.6l-3.75-.06-3.45.06V355c1.86-.24,1.92-.6,1.92-3.24V344.9c0-1.92-.15-2.25-2-2.43v-.57l5.46-.6.12.12Z"/><path class="cls-3" d="M1639.54,356.06a3.75,3.75,0,0,1-4-3.84c0-2.4,1.68-3.63,4.44-4.26a25.48,25.48,0,0,1,2.94-.45v-1.83c0-2.31-.18-3.72-1.65-3.72s-1.59.51-1.89,2.64a1.88,1.88,0,0,1-1.89,1.68,1.65,1.65,0,0,1-1.62-1.62c0-2.22,3.24-3.48,5.64-3.48,3.06,0,5,.9,5,4.11v7.41c0,1.29.18,1.95.84,1.95s1-.72,1.26-1.29l.57.36a3.56,3.56,0,0,1-3.24,2.34,2.6,2.6,0,0,1-2.88-2.16A3.84,3.84,0,0,1,1639.54,356.06Zm1.44-1.47c.87,0,1.5-.78,2-1.71V348.2a8.07,8.07,0,0,0-2,.48c-1.08.42-1.62,1.41-1.62,3.09C1639.3,353.21,1639.93,354.59,1641,354.59Z"/><path class="cls-3" d="M1651.51,338.15c0-1.86-.24-2.19-2-2.52v-.51l5.61-.72.21.24-.24,5.55v11.67c0,2.31.18,2.85,1.92,3.12v.6l-3.78-.06-3.66.06V355c1.77-.21,2-.75,2-3.3Z"/><path class="cls-3" d="M1663.6,352c0,2.28.15,2.79,1.92,3.06v.57l-3.63-.06-3.87.06V355c1.83-.27,2-.69,2-3.21v-7c0-1.92-.21-2.25-2-2.37v-.57l5.46-.6.09.12Zm-1.92-17.13a2.16,2.16,0,1,1-2.19,2.16A2.2,2.2,0,0,1,1661.68,334.82Z"/><path class="cls-3" d="M1670.86,356.06a3.75,3.75,0,0,1-4-3.84c0-2.4,1.68-3.63,4.44-4.26a25.48,25.48,0,0,1,2.94-.45v-1.83c0-2.31-.18-3.72-1.65-3.72s-1.59.51-1.89,2.64a1.88,1.88,0,0,1-1.89,1.68,1.65,1.65,0,0,1-1.62-1.62c0-2.22,3.24-3.48,5.64-3.48,3.06,0,5,.9,5,4.11v7.41c0,1.29.18,1.95.84,1.95s1-.72,1.26-1.29l.57.36a3.56,3.56,0,0,1-3.24,2.34,2.6,2.6,0,0,1-2.88-2.16A3.84,3.84,0,0,1,1670.86,356.06Zm1.44-1.47c.87,0,1.5-.78,2-1.71V348.2a8.07,8.07,0,0,0-2,.48c-1.08.42-1.62,1.41-1.62,3.09C1670.62,353.21,1671.25,354.59,1672.3,354.59Z"/><polygon class="cls-4" points="44.37 144.72 80.26 7.01 116.14 144.72 44.37 144.72"/><path class="cls-5" d="M80.26,11l34.59,132.75H45.66L80.26,11m0-7.93L43.08,145.72h74.36L80.26,3Z"/><path class="cls-3" d="M39.86,163.51H38.45c-3,0-4,2-4.44,5.49h-.84l0-6.45H50.06l0,6.45h-.81c-.51-3.54-1.47-5.49-4.47-5.49H43.58v14.34c0,3.15.3,3.78,3.27,4v.69H36.59v-.69c3-.24,3.27-.87,3.27-4Z"/><path class="cls-3" d="M65.12,168.4c-.09.63-.18,5-.18,7.5v3.6c0,1.92.18,2.16,2.49,2.31v.57l-5.67.54-.15-.15-.15-2.1a4.33,4.33,0,0,1-8.22-1.95v-6.93c0-1.92-.18-2.28-2.22-2.43v-.57l5.82-.6.09.12c-.06.57-.12,4.71-.12,10.05,0,2.16.6,3.42,2,3.42,1.11,0,2-.9,2.55-2.4v-7.59c0-1.92-.21-2.28-2.13-2.43v-.57l5.73-.51Z"/><path class="cls-3" d="M73.43,170.38a4.29,4.29,0,0,1,8,2.34v5.91c0,2.61.15,3,1.8,3.33v.6l-3.42-.06-3.57.06V182c1.5-.3,1.65-.72,1.65-3.39V172.9c0-1.68-.6-3.45-2-3.45-1.08,0-1.92.9-2.52,2.19V179c0,2.25.06,2.73,1.68,3v.6l-3.66-.06-3.57.06V182c1.77-.24,2-.63,2-3.18v-6.9c0-1.89-.21-2.31-2-2.43v-.57l5.49-.6.12.12Z"/><path class="cls-3" d="M89.75,178.93c0,2.28.15,2.79,1.92,3.06v.57L88,182.5l-3.87.06V182c1.83-.27,2-.69,2-3.21v-7c0-1.92-.21-2.25-2-2.37v-.57l5.46-.6.09.12ZM87.83,161.8A2.16,2.16,0,1,1,85.64,164,2.2,2.2,0,0,1,87.83,161.8Z"/><path class="cls-3" d="M100.82,168.94a1.93,1.93,0,0,0,.69.33c.27,0,.48-.27.57-.87h.63l-.12,4.86H102c-.42-2.82-1.77-4.29-3.84-4.29a2.33,2.33,0,0,0-2.49,2.34c0,1.17.93,1.92,3,2.61,3.45,1.14,4.71,2.28,4.71,4.65,0,2.94-2,4.53-5.13,4.53a5.88,5.88,0,0,1-2.67-.72,2.43,2.43,0,0,0-.87-.36c-.36,0-.48.33-.54.84h-.63v-5h.63c.36,2.73,2,4.44,4.08,4.44,1.53,0,2.73-.72,2.73-2.22,0-1-.66-1.74-3.39-2.7s-4.32-2.22-4.32-4.74c0-2.79,2.28-4.47,4.86-4.47A5.28,5.28,0,0,1,100.82,168.94Z"/><path class="cls-3" d="M110.45,178.93c0,2.28.15,2.79,1.92,3.06v.57l-3.63-.06-3.87.06V182c1.83-.27,2-.69,2-3.21v-7c0-1.92-.21-2.25-2-2.37v-.57l5.46-.6.09.12Zm-1.92-17.13a2.16,2.16,0,1,1-2.19,2.16A2.2,2.2,0,0,1,108.53,161.8Z"/><path class="cls-3" d="M117.71,183a3.75,3.75,0,0,1-4-3.84c0-2.4,1.68-3.63,4.44-4.26a25.48,25.48,0,0,1,2.94-.45v-1.83c0-2.31-.18-3.72-1.65-3.72s-1.59.51-1.89,2.64a1.88,1.88,0,0,1-1.89,1.68,1.65,1.65,0,0,1-1.62-1.62c0-2.22,3.24-3.48,5.64-3.48,3.06,0,5,.9,5,4.11v7.41c0,1.29.18,1.95.84,1.95s1-.72,1.26-1.29l.57.36A3.56,3.56,0,0,1,124.1,183a2.6,2.6,0,0,1-2.88-2.16A3.84,3.84,0,0,1,117.71,183Zm1.44-1.47c.87,0,1.5-.78,2-1.71v-4.68a8.07,8.07,0,0,0-2,.48c-1.08.42-1.62,1.41-1.62,3.09C117.47,180.19,118.1,181.57,119.15,181.57Z"/><polygon class="cls-1" points="488.99 485.72 523.22 459.45 557.46 485.72 488.99 485.72"/><path class="cls-2" d="M523.22,460.71l31.29,24H491.93l31.29-24m0-2.53L486,486.72H560.4l-37.18-28.54Z"/><path class="cls-3" d="M489.07,507.81v6.87h-.75c-.45-2.55-.87-3.33-2.76-3.33h-2.22V517c0,2.07.45,3.3,2.52,3.3H487c2.58,0,3.51-1.44,4.26-5.19h.84v6.06H477v-.66c2.37-.21,2.61-.87,2.61-4V504.6c0-2.13-.33-2.52-2.7-2.79v-.66h14.91l0,5.7h-.81c-.75-3.78-1.83-4.83-4.59-4.83h-3.15v8.49h2.22c1.89,0,2.34-.45,2.76-2.7Z"/><path class="cls-3" d="M499.42,509.1a4.24,4.24,0,0,1,7.68.21,4.54,4.54,0,0,1,4-2.55,4.15,4.15,0,0,1,4.26,4.47v5.94c0,2.73.18,3.18,2,3.39v.6l-3.57-.06-3.63.06v-.6c1.56-.21,1.68-.72,1.68-3.66v-5.46c0-1.62-.54-3.36-1.8-3.36s-2.07,1-2.61,2.31v7.11c0,2.37.21,2.85,1.59,3.06v.6l-3.21-.06-3.51.06v-.6c1.38-.21,1.56-.72,1.56-2.91v-6.21c0-1.68-.51-3.36-1.77-3.36s-2.19,1-2.64,2.52v6.9c0,2.4.18,2.82,1.71,3.06v.6l-3.75-.06-3.45.06v-.6c1.86-.24,1.92-.6,1.92-3.24v-6.84c0-1.92-.15-2.25-2-2.43v-.57l5.46-.6.12.12Z"/><path class="cls-3" d="M523.75,517.53c0,2.28.15,2.79,1.92,3.06v.57L522,521.1l-3.87.06v-.57c1.83-.27,2-.69,2-3.21v-7c0-1.92-.21-2.25-2-2.37v-.57l5.46-.6.09.12Zm-1.92-17.13a2.16,2.16,0,1,1-2.19,2.16A2.2,2.2,0,0,1,521.83,500.4Z"/><path class="cls-3" d="M532.15,509.46c.6-1.62,1.62-2.76,3.39-2.76a2.5,2.5,0,0,1,2.55,2.52,2,2,0,0,1-1.86,2.07,1.8,1.8,0,0,1-1.77-1.8c-.06-.78-.12-1.23-.48-1.23-.72,0-1.41,1.44-1.8,3.27v5.85c0,2.46.3,2.88,2.91,3.21v.57l-5-.06-3.63.06v-.57c1.92-.24,2.13-.66,2.13-3.24v-6.6c0-2-.24-2.55-2.28-2.7v-.57l5.73-.6.12.12Z"/><path class="cls-3" d="M542.77,521.64a3.75,3.75,0,0,1-4-3.84c0-2.4,1.68-3.63,4.44-4.26a25.48,25.48,0,0,1,2.94-.45v-1.83c0-2.31-.18-3.72-1.65-3.72s-1.59.51-1.89,2.64a1.88,1.88,0,0,1-1.89,1.68,1.65,1.65,0,0,1-1.62-1.62c0-2.22,3.24-3.48,5.64-3.48,3.06,0,5,.9,5,4.11v7.41c0,1.29.18,2,.84,2s1-.72,1.26-1.29l.57.36a3.56,3.56,0,0,1-3.24,2.34,2.6,2.6,0,0,1-2.88-2.16A3.84,3.84,0,0,1,542.77,521.64Zm1.44-1.47c.87,0,1.5-.78,2-1.71v-4.68a8.07,8.07,0,0,0-2,.48c-1.08.42-1.62,1.41-1.62,3.09C542.53,518.79,543.16,520.17,544.21,520.17Z"/><path class="cls-3" d="M557.83,507.3h3.78v.84l-3.78-.06v10c0,1.65.36,2.43,1.29,2.43s1.59-.78,2.1-2.31l.57.24c-.57,1.92-1.65,3.24-3.57,3.24-2.64,0-4-1.47-4-4v-9.66h-2v-.78h2v-4l3.57-.48Z"/><path class="cls-3" d="M568.21,517.53c0,2.28.15,2.79,1.92,3.06v.57l-3.63-.06-3.87.06v-.57c1.83-.27,2-.69,2-3.21v-7c0-1.92-.21-2.25-2-2.37v-.57l5.46-.6.09.12Zm-1.92-17.13a2.16,2.16,0,1,1-2.19,2.16A2.2,2.2,0,0,1,566.29,500.4Z"/><path class="cls-3" d="M465.22,544.89H458.5l-.6,1.68c-1,3-.69,3.57,1.77,3.93v.66H453.4v-.66c1.89-.33,2.46-1,3.51-3.93l5.73-15.87h1.17L470,547c1.11,2.94,1.44,3.3,3.39,3.51v.66h-8.85v-.66c2.28-.24,2.43-.78,1.47-3.33ZM458.8,544h6.12l-3.06-8.61Z"/><path class="cls-3" d="M479.47,539.46c.6-1.62,1.62-2.76,3.39-2.76a2.5,2.5,0,0,1,2.55,2.52,2,2,0,0,1-1.86,2.07,1.8,1.8,0,0,1-1.77-1.8c-.06-.78-.12-1.23-.48-1.23-.72,0-1.41,1.44-1.8,3.27v5.85c0,2.46.3,2.88,2.91,3.21v.57l-5-.06-3.63.06v-.57c1.92-.24,2.13-.66,2.13-3.24v-6.6c0-2-.24-2.55-2.28-2.7v-.57l5.73-.6.12.12Z"/><path class="cls-3" d="M490.09,551.64a3.75,3.75,0,0,1-4-3.84c0-2.4,1.68-3.63,4.44-4.26a25.48,25.48,0,0,1,2.94-.45v-1.83c0-2.31-.18-3.72-1.65-3.72s-1.59.51-1.89,2.64a1.88,1.88,0,0,1-1.89,1.68,1.65,1.65,0,0,1-1.62-1.62c0-2.22,3.24-3.48,5.64-3.48,3.06,0,4.95.9,4.95,4.11v7.41c0,1.29.18,2,.84,2s1-.72,1.26-1.29l.57.36a3.56,3.56,0,0,1-3.24,2.34,2.6,2.6,0,0,1-2.88-2.16A3.84,3.84,0,0,1,490.09,551.64Zm1.44-1.47c.87,0,1.5-.78,2-1.71v-4.68a8.07,8.07,0,0,0-2,.48c-1.08.42-1.62,1.41-1.62,3.09C489.85,548.79,490.48,550.17,491.53,550.17Z"/><path class="cls-3" d="M507.31,551.7a13.31,13.31,0,0,1-6-1.35l.09-5.25V534.87c0-3.06-.18-3.36-2.25-3.63v-.54L505,530l.24.18a53.81,53.81,0,0,0-.33,6.51v12.78a2.68,2.68,0,0,0,2.34,1.44c2.28,0,2.88-3.75,2.88-7,0-2.76-.63-5.82-2.4-5.82a2.43,2.43,0,0,0-1.95,1.35l-.42-.42a4,4,0,0,1,3.45-2.25c3.27,0,5.16,3.06,5.16,6.93C514,548.52,511.51,551.7,507.31,551.7Z"/><path class="cls-3" d="M521.08,547.53c0,2.28.15,2.79,1.92,3.06v.57l-3.63-.06-3.87.06v-.57c1.83-.27,2-.69,2-3.21v-7c0-1.92-.21-2.25-2-2.37v-.57l5.46-.6.09.12Zm-1.92-17.13a2.16,2.16,0,1,1-2.19,2.16A2.2,2.2,0,0,1,519.16,530.4Z"/><path class="cls-3" d="M546.7,536.28c0-3.69-.3-4.17-3-4.44v-.69h6.9v.69c-2.58.27-2.82.75-2.82,4.44v8.16c0,4.29-1.92,7.26-6.93,7.26-4.68,0-7.44-2.79-7.44-7.44V535.8c0-3.24-.39-3.72-2.79-4v-.69h9.48v.69c-2.43.24-2.91.63-2.91,4v8.37c0,3.81,1.08,6.45,4.11,6.45,4,0,5.4-2.37,5.4-6.3Z"/><path class="cls-3" d="M556.3,539a4.29,4.29,0,0,1,8,2.34v5.91c0,2.61.15,3,1.8,3.33v.6l-3.42-.06-3.57.06v-.6c1.5-.3,1.65-.72,1.65-3.39V541.5c0-1.68-.6-3.45-2-3.45-1.08,0-1.92.9-2.52,2.19v7.32c0,2.25.06,2.73,1.68,3v.6l-3.66-.06-3.57.06v-.6c1.77-.24,2-.63,2-3.18v-6.9c0-1.89-.21-2.31-2-2.43v-.57l5.49-.6.12.12Z"/><path class="cls-3" d="M572.62,547.53c0,2.28.15,2.79,1.92,3.06v.57l-3.63-.06-3.87.06v-.57c1.83-.27,2-.69,2-3.21v-7c0-1.92-.21-2.25-2-2.37v-.57l5.46-.6.09.12ZM570.7,530.4a2.16,2.16,0,1,1-2.19,2.16A2.2,2.2,0,0,1,570.7,530.4Z"/><path class="cls-3" d="M580.75,537.3h3.78v.84l-3.78-.06v10c0,1.65.36,2.43,1.29,2.43s1.59-.78,2.1-2.31l.57.24c-.57,1.92-1.65,3.24-3.57,3.24-2.64,0-4-1.47-4-4v-9.66h-2v-.78h2v-4l3.57-.48Z"/><path class="cls-3" d="M591.13,547.53c0,2.28.15,2.79,1.92,3.06v.57l-3.63-.06-3.87.06v-.57c1.83-.27,2-.69,2-3.21v-7c0-1.92-.21-2.25-2-2.37v-.57l5.46-.6.09.12Zm-1.92-17.13a2.16,2.16,0,1,1-2.19,2.16A2.2,2.2,0,0,1,589.21,530.4Z"/><polygon class="cls-1" points="930.86 317.3 966.19 263.06 1001.53 317.3 930.86 317.3"/><path class="cls-2" d="M966.19,264.89l33.49,51.41h-67l33.49-51.41m0-3.66L929,318.3h74.36l-37.18-57.07Z"/><path class="cls-3" d="M924.4,335.57h9.21v.69c-2.22.12-2.46.63-1.62,2.1l3.81,6.48,3-5.85c1-2,.75-2.58-1.62-2.73v-.69h6.63v.69c-2.25.18-2.88.69-4,2.91l-3.48,6.69v5.07c0,2.94.3,3.75,3,4v.69h-9.66v-.69c2.67-.21,3-1,3-4v-4.62l-4.65-7.5c-1.17-1.86-1.77-2.43-3.54-2.55Z"/><path class="cls-3" d="M944.89,348.14v.69c0,3.42.87,6,3.48,6a5.07,5.07,0,0,0,4.14-2.31l.51.48a6.62,6.62,0,0,1-5.58,3c-4,0-6.36-3-6.36-7.2,0-4,2.16-7.68,6.36-7.68,3.81,0,5.76,2.82,5.76,7Zm0-.75h4.47c0-3.06-.3-5.43-2-5.43S945.13,344.09,944.92,347.39Z"/><path class="cls-3" d="M960,343.52a4.24,4.24,0,0,1,7.68.21,4.54,4.54,0,0,1,4-2.55,4.15,4.15,0,0,1,4.26,4.47v5.94c0,2.73.18,3.18,2,3.39v.6l-3.57-.06-3.63.06V355c1.56-.21,1.68-.72,1.68-3.66v-5.46c0-1.62-.54-3.36-1.8-3.36s-2.07,1-2.61,2.31v7.11c0,2.37.21,2.85,1.59,3.06v.6l-3.21-.06-3.51.06V355c1.38-.21,1.56-.72,1.56-2.91v-6.21c0-1.68-.51-3.36-1.77-3.36s-2.19,1-2.64,2.52v6.9c0,2.4.18,2.82,1.71,3.06v.6l-3.75-.06-3.45.06V355c1.86-.24,1.92-.6,1.92-3.24V344.9c0-1.92-.15-2.25-2-2.43v-.57l5.46-.6.12.12Z"/><path class="cls-3" d="M983,348.14v.69c0,3.42.87,6,3.48,6a5.07,5.07,0,0,0,4.14-2.31l.51.48a6.62,6.62,0,0,1-5.58,3c-4,0-6.36-3-6.36-7.2,0-4,2.16-7.68,6.36-7.68,3.81,0,5.76,2.82,5.76,7Zm0-.75h4.47c0-3.06-.3-5.43-2-5.43S983.23,344.09,983,347.39Z"/><path class="cls-3" d="M998.14,343.4a4.29,4.29,0,0,1,8,2.34v5.91c0,2.61.15,3,1.8,3.33v.6l-3.42-.06-3.57.06V355c1.5-.3,1.65-.72,1.65-3.39v-5.67c0-1.68-.6-3.45-2-3.45-1.08,0-1.92.9-2.52,2.19V352c0,2.25.06,2.73,1.68,3v.6l-3.66-.06-3.57.06V355c1.77-.24,2-.63,2-3.18v-6.9c0-1.89-.21-2.31-2-2.43v-.57l5.49-.6.12.12Z"/><line class="cls-6" y1="74.92" x2="1711.21" y2="74.92"/><line class="cls-6" y1="247.37" x2="1711.21" y2="247.37"/><line class="cls-6" y1="415.48" x2="1711.21" y2="415.48"/><line class="cls-7" y1="487.23" x2="1711.21" y2="487.23"/><line class="cls-7" y1="318.83" x2="1711.21" y2="318.83"/><line class="cls-7" y1="146.39" x2="1711.21" y2="146.39"/></svg>