<?xml version="1.0" encoding="utf-8"?>
<!-- Generator: Adobe Illustrator 22.1.0, SVG Export Plug-In . SVG Version: 6.00 Build 0)  -->
<svg version="1.1" id="Livello_1" xmlns="http://www.w3.org/2000/svg" xmlns:xlink="http://www.w3.org/1999/xlink" x="0px" y="0px"
	 viewBox="0 0 900 541" style="enable-background:new 0 0 900 541;" xml:space="preserve">
<style type="text/css">
	.st0{opacity:0.2;fill:none;stroke:#ABABAB;}
	.st1{font-family:'Brera-Regular';}
	.st2{font-size:10px;}
	.st3{fill:#FAC44D;fill-opacity:0.4;stroke:#FAC44D;}
	.st4{fill:#191919;}
	.st5{font-family:'SolferinoText-Regular';}
	.st6{font-size:12px;}
</style>
<path class="st0" d="M42.5,42v478.5h816V42"/>
<line class="st0" x1="156.3" y1="520" x2="156.3" y2="42"/>
<text transform="matrix(1 0 0 1 148.2736 530.1)" class="st1 st2">10k</text>
<line class="st0" x1="319.2" y1="520" x2="319.2" y2="42"/>
<text transform="matrix(1 0 0 1 308.3541 530.1)" class="st1 st2">100k</text>
<line class="st0" x1="482.1" y1="520" x2="482.1" y2="42"/>
<text transform="matrix(1 0 0 1 474.9419 530.1)" class="st1 st2">1M</text>
<line class="st0" x1="644.9" y1="520" x2="644.9" y2="42"/>
<text transform="matrix(1 0 0 1 635.1924 530.1)" class="st1 st2">10M</text>
<line class="st0" x1="807.8" y1="520" x2="807.8" y2="42"/>
<text transform="matrix(1 0 0 1 795.2728 530.1)" class="st1 st2">100M</text>
<line class="st0" x1="856.8" y1="520" x2="856.8" y2="42"/>
<text transform="matrix(1 0 0 1 844.299 530.1)" class="st1 st2">200M</text>
<text transform="matrix(1 0 0 1 33.4385 523.7)" class="st1 st2">0</text>
<line class="st0" x1="42" y1="472.7" x2="858" y2="472.7"/>
<text transform="matrix(1 0 0 1 27.877 475.9)" class="st1 st2">10</text>
<line class="st0" x1="42" y1="424.9" x2="858" y2="424.9"/>
<text transform="matrix(1 0 0 1 27.877 428.1)" class="st1 st2">20</text>
<line class="st0" x1="42" y1="377.1" x2="858" y2="377.1"/>
<text transform="matrix(1 0 0 1 27.877 380.3)" class="st1 st2">30</text>
<line class="st0" x1="42" y1="329.3" x2="858" y2="329.3"/>
<text transform="matrix(1 0 0 1 27.877 332.5)" class="st1 st2">40</text>
<line class="st0" x1="42" y1="281.5" x2="858" y2="281.5"/>
<text transform="matrix(1 0 0 1 27.877 284.7)" class="st1 st2">50</text>
<line class="st0" x1="42" y1="233.7" x2="858" y2="233.7"/>
<text transform="matrix(1 0 0 1 27.877 236.9)" class="st1 st2">60</text>
<line class="st0" x1="42" y1="185.9" x2="858" y2="185.9"/>
<text transform="matrix(1 0 0 1 27.877 189.1)" class="st1 st2">70</text>
<line class="st0" x1="42" y1="138.1" x2="858" y2="138.1"/>
<text transform="matrix(1 0 0 1 27.877 141.3)" class="st1 st2">80</text>
<line class="st0" x1="42" y1="90.3" x2="858" y2="90.3"/>
<text transform="matrix(1 0 0 1 27.877 93.5)" class="st1 st2">90</text>
<line class="st0" x1="42" y1="42.5" x2="858" y2="42.5"/>
<text transform="matrix(1 0 0 1 22.3154 45.7)" class="st1 st2">100</text>
<rect x="545.8" y="378" transform="matrix(0.7071 -0.7071 0.7071 0.7071 -108.8288 500.024)" class="st3" width="6.8" height="6.8"/>
<rect x="478.8" y="313.2" transform="matrix(0.7071 -0.7071 0.7071 0.7071 -82.3258 433.0359)" class="st3" width="5.5" height="5.5"/>
<rect x="406.1" y="342.7" transform="matrix(0.7071 -0.7071 0.7071 0.7071 -127.7236 398.004)" class="st3" width="21" height="21"/>
<rect x="413.6" y="358.9" transform="matrix(0.7071 -0.7071 0.7071 0.7071 -138.9835 412.8842)" class="st3" width="30.6" height="30.6"/>
<rect x="633.4" y="366.1" transform="matrix(0.7071 -0.7071 0.7071 0.7071 -74.1265 557.0347)" class="st3" width="3.8" height="3.8"/>
<rect x="433.2" y="371.5" transform="matrix(0.7071 -0.7071 0.7071 0.7071 -142.6736 431.6995)" class="st3" width="33.1" height="33.1"/>
<rect x="504.4" y="349.7" transform="matrix(0.7071 -0.7071 0.7071 0.7071 -103.1423 467.8645)" class="st3" width="17.5" height="17.5"/>
<rect x="367" y="271.7" transform="matrix(0.7071 -0.7071 0.7071 0.7071 -85.5134 341.2124)" class="st3" width="4.3" height="4.3"/>
<rect x="473.5" y="347.3" transform="matrix(0.7071 -0.7071 0.7071 0.7071 -107.1543 437.1466)" class="st3" width="1.3" height="1.3"/>
<rect x="379.6" y="371.7" transform="matrix(0.7071 -0.7071 0.7071 0.7071 -152.112 378.3212)" class="st3" width="2.1" height="2.1"/>
<rect x="470.1" y="351.9" transform="matrix(0.7071 -0.7071 0.7071 0.7071 -114.0274 442.5415)" class="st3" width="14.1" height="14.1"/>
<rect x="702.3" y="316.3" transform="matrix(0.7071 -0.7071 0.7071 0.7071 -18.7845 591.2182)" class="st3" width="4" height="4"/>
<rect x="275.3" y="362.3" transform="matrix(0.7071 -0.7071 0.7071 0.7071 -176.5142 303.1572)" class="st3" width="4.8" height="4.8"/>
<rect x="362.1" y="366.6" transform="matrix(0.7071 -0.7071 0.7071 0.7071 -159.1031 377.6953)" class="st3" width="28.6" height="28.6"/>
<rect x="28.4" y="347.7" transform="matrix(0.7071 -0.7071 0.7071 0.7071 -243.179 135.522)" class="st3" width="27.2" height="27.2"/>
<rect x="589" y="311.8" transform="matrix(0.7071 -0.7071 0.7071 0.7071 -49.0896 510.407)" class="st3" width="5.2" height="5.2"/>
<rect x="232.3" y="365.5" transform="matrix(0.7071 -0.7071 0.7071 0.7071 -200.7257 296.3293)" class="st3" width="50" height="50"/>
<rect x="579.6" y="350.3" transform="matrix(0.7071 -0.7071 0.7071 0.7071 -82.6962 523.9177)" class="st3" width="23" height="23"/>
<rect x="417.5" y="322" transform="matrix(0.7071 -0.7071 0.7071 0.7071 -108.0274 395.8427)" class="st3" width="12.7" height="12.7"/>
<rect x="573.5" y="368" transform="matrix(0.7071 -0.7071 0.7071 0.7071 -95.5873 521.4759)" class="st3" width="16.3" height="16.3"/>
<rect x="358.1" y="362.5" transform="matrix(0.7071 -0.7071 0.7071 0.7071 -153.1101 363.4834)" class="st3" width="8.2" height="8.2"/>
<polygon class="st3" points="847.8,351.7 847.8,351.7 847.8,351.7 "/>
<rect x="857.1" y="330.3" transform="matrix(0.7071 -0.7071 0.7071 0.7071 17.1157 703.7009)" class="st3" width="1.8" height="1.8"/>
<rect x="242.9" y="348.6" transform="matrix(0.7071 -0.7071 0.7071 0.7071 -181.9864 289.946)" class="st3" width="32.2" height="32.2"/>
<rect x="496" y="312" transform="matrix(0.7071 -0.7071 0.7071 0.7071 -76.7608 445.515)" class="st3" width="6.9" height="6.9"/>
<rect x="494.5" y="346.9" transform="matrix(0.7071 -0.7071 0.7071 0.7071 -102.4486 456.1552)" class="st3" width="9.7" height="9.7"/>
<rect x="608.8" y="390.3" transform="matrix(0.7071 -0.7071 0.7071 0.7071 -99.3115 548.8129)" class="st3" width="8" height="8"/>
<rect x="527.9" y="386.1" transform="matrix(0.7071 -0.7071 0.7071 0.7071 -120.9958 492.6384)" class="st3" width="12.5" height="12.5"/>
<rect x="591.8" y="389.3" transform="matrix(0.7071 -0.7071 0.7071 0.7071 -103.0305 535.0544)" class="st3" width="5.1" height="5.1"/>
<rect x="22.7" y="331" transform="matrix(0.7071 -0.7071 0.7071 0.7071 -235.4051 132.3019)" class="st3" width="38.6" height="38.6"/>
<rect x="321.1" y="349.3" transform="matrix(0.7071 -0.7071 0.7071 0.7071 -154.7541 333.7026)" class="st3" width="8.7" height="8.7"/>
<rect x="449" y="300.6" transform="matrix(0.7071 -0.7071 0.7071 0.7071 -84.6016 414.1576)" class="st3" width="17.2" height="17.2"/>
<rect x="372.4" y="313.8" transform="matrix(0.7071 -0.7071 0.7071 0.7071 -113.6929 357.3091)" class="st3" width="4.1" height="4.1"/>
<rect x="383" y="320.9" transform="matrix(0.7071 -0.7071 0.7071 0.7071 -121.1891 380.3195)" class="st3" width="31" height="31"/>
<rect x="681.3" y="297.4" transform="matrix(0.7071 -0.7071 0.7071 0.7071 -11.2956 570.1019)" class="st3" width="2.5" height="2.5"/>
<rect x="724" y="321.9" transform="matrix(0.7071 -0.7071 0.7071 0.7071 -17.0435 609.7615)" class="st3" width="7.1" height="7.1"/>
<rect x="179.7" y="387.1" transform="matrix(0.7071 -0.7071 0.7071 0.7071 -223.0695 245.2545)" class="st3" width="9.6" height="9.6"/>
<rect x="319.5" y="357.8" transform="matrix(0.7071 -0.7071 0.7071 0.7071 -163.4557 340.4189)" class="st3" width="19.4" height="19.4"/>
<rect x="330.1" y="381.8" transform="matrix(0.7071 -0.7071 0.7071 0.7071 -179.2563 359.6331)" class="st3" width="28.9" height="28.9"/>
<rect x="465.8" y="376.8" transform="matrix(0.7071 -0.7071 0.7071 0.7071 -133.8743 449.1189)" class="st3" width="18.7" height="18.7"/>
<rect x="847.9" y="373.1" transform="matrix(0.7071 -0.7071 0.7071 0.7071 -15.527 709.0225)" class="st3" width="0.3" height="0.3"/>
<rect x="181.2" y="342.9" transform="matrix(0.7071 -0.7071 0.7071 0.7071 -199.196 252.2223)" class="st3" width="47.4" height="47.4"/>
<rect x="280.1" y="339.7" transform="matrix(0.7071 -0.7071 0.7071 0.7071 -161.5968 305.7108)" class="st3" width="16.3" height="16.3"/>
<rect x="546.3" y="354.3" transform="matrix(0.7071 -0.7071 0.7071 0.7071 -94.6293 499.8886)" class="st3" width="19.7" height="19.7"/>
<rect x="294.4" y="386.5" transform="matrix(0.7071 -0.7071 0.7071 0.7071 -187.922 323.4163)" class="st3" width="4.1" height="4.1"/>
<rect x="672.1" y="313.9" transform="matrix(0.7071 -0.7071 0.7071 0.7071 -28.1211 574.4136)" class="st3" width="14.5" height="14.5"/>
<rect x="382.7" y="372.1" transform="matrix(0.7071 -0.7071 0.7071 0.7071 -154.6645 388.4109)" class="st3" width="17.6" height="17.6"/>
<rect x="67.3" y="371.5" transform="matrix(0.7071 -0.7071 0.7071 0.7071 -252.8174 180.1289)" class="st3" width="47.4" height="47.4"/>
<rect x="263.6" y="393" transform="matrix(0.7071 -0.7071 0.7071 0.7071 -202.6022 306.139)" class="st3" width="9.2" height="9.2"/>
<rect x="484.6" y="341.6" transform="matrix(0.7071 -0.7071 0.7071 0.7071 -102.4143 449.5461)" class="st3" width="13.7" height="13.7"/>
<rect x="544.5" y="319.1" transform="matrix(0.7071 -0.7071 0.7071 0.7071 -67.979 482.9681)" class="st3" width="9" height="9"/>
<rect x="459.5" y="216.4" transform="matrix(0.7071 -0.7071 0.7071 0.7071 -18.6824 388.7928)" class="st3" width="1" height="1"/>
<rect x="734" y="350.1" transform="matrix(0.7071 -0.7071 0.7071 0.7071 -32.8461 622.2786)" class="st3" width="1.4" height="1.4"/>
<rect x="409.5" y="373.8" transform="matrix(0.7071 -0.7071 0.7071 0.7071 -150.8735 414.7712)" class="st3" width="31.4" height="31.4"/>
<rect x="415.5" y="362.1" transform="matrix(0.7071 -0.7071 0.7071 0.7071 -137.1833 406.7141)" class="st3" width="13.7" height="13.7"/>
<rect x="614.9" y="368.4" transform="matrix(0.7071 -0.7071 0.7071 0.7071 -82.2177 547.0609)" class="st3" width="8.7" height="8.7"/>
<rect x="285.7" y="311.9" transform="matrix(0.7071 -0.7071 0.7071 0.7071 -143.2859 308.8093)" class="st3" width="30.8" height="30.8"/>
<rect x="632.2" y="334.2" transform="matrix(0.7071 -0.7071 0.7071 0.7071 -57.236 559.5721)" class="st3" width="29.3" height="29.3"/>
<rect x="783.6" y="324.8" transform="matrix(0.7071 -0.7071 0.7071 0.7071 -1.4277 652.2413)" class="st3" width="6.1" height="6.1"/>
<rect x="587.8" y="319.9" transform="matrix(0.7071 -0.7071 0.7071 0.7071 -56.1228 514.4595)" class="st3" width="10.2" height="10.2"/>
<rect x="408.8" y="398.1" transform="matrix(0.7071 -0.7071 0.7071 0.7071 -164.5411 412.3666)" class="st3" width="13.5" height="13.5"/>
<rect x="711.8" y="348.8" transform="matrix(0.7071 -0.7071 0.7071 0.7071 -39.1887 607.9221)" class="st3" width="4.9" height="4.9"/>
<circle class="st4" cx="549.2" cy="381.4" r="1"/>
<circle class="st4" cx="481.6" cy="315.9" r="1"/>
<circle class="st4" cx="416.6" cy="353.2" r="1"/>
<circle class="st4" cx="428.9" cy="374.2" r="1"/>
<circle class="st4" cx="635.3" cy="368" r="1"/>
<circle class="st4" cx="449.8" cy="388.1" r="1"/>
<circle class="st4" cx="513.2" cy="358.4" r="1"/>
<circle class="st4" cx="369.1" cy="273.8" r="1"/>
<circle class="st4" cx="474.1" cy="347.9" r="1"/>
<circle class="st4" cx="380.6" cy="372.8" r="1"/>
<circle class="st4" cx="477.2" cy="358.9" r="1"/>
<circle class="st4" cx="704.3" cy="318.3" r="1"/>
<circle class="st4" cx="277.7" cy="364.6" r="1"/>
<circle class="st4" cx="376.4" cy="380.9" r="1"/>
<circle class="st4" cx="42" cy="361.3" r="1"/>
<circle class="st4" cx="591.6" cy="314.5" r="1"/>
<circle class="st4" cx="257.3" cy="390.5" r="1"/>
<circle class="st4" cx="591.1" cy="361.8" r="1"/>
<circle class="st4" cx="423.8" cy="328.3" r="1"/>
<circle class="st4" cx="581.7" cy="376.1" r="1"/>
<circle class="st4" cx="362.2" cy="366.6" r="1"/>
<circle class="st4" cx="847.8" cy="351.7" r="1"/>
<circle class="st4" cx="858" cy="331.2" r="1"/>
<circle class="st4" cx="259" cy="364.6" r="1"/>
<circle class="st4" cx="499.4" cy="315.4" r="1"/>
<circle class="st4" cx="499.4" cy="351.7" r="1"/>
<circle class="st4" cx="612.8" cy="394.3" r="1"/>
<circle class="st4" cx="534.2" cy="392.4" r="1"/>
<circle class="st4" cx="594.4" cy="391.9" r="1"/>
<circle class="st4" cx="42" cy="350.3" r="1"/>
<circle class="st4" cx="325.4" cy="353.7" r="1"/>
<circle class="st4" cx="457.6" cy="309.2" r="1"/>
<circle class="st4" cx="374.5" cy="315.9" r="1"/>
<circle class="st4" cx="398.5" cy="336.4" r="1"/>
<circle class="st4" cx="682.5" cy="298.7" r="1"/>
<circle class="st4" cx="727.5" cy="325.5" r="1"/>
<circle class="st4" cx="184.5" cy="391.9" r="1"/>
<circle class="st4" cx="329.2" cy="367.5" r="1"/>
<circle class="st4" cx="344.5" cy="396.2" r="1"/>
<circle class="st4" cx="475.2" cy="386.2" r="1"/>
<circle class="st4" cx="848.1" cy="373.3" r="1"/>
<circle class="st4" cx="204.9" cy="366.6" r="1"/>
<circle class="st4" cx="288.2" cy="347.9" r="1"/>
<circle class="st4" cx="556.1" cy="364.2" r="1"/>
<circle class="st4" cx="296.4" cy="388.5" r="1"/>
<circle class="st4" cx="679.3" cy="321.2" r="1"/>
<circle class="st4" cx="391.5" cy="380.9" r="1"/>
<circle class="st4" cx="91" cy="395.2" r="1"/>
<circle class="st4" cx="268.2" cy="397.6" r="1"/>
<circle class="st4" cx="491.4" cy="348.4" r="1"/>
<circle class="st4" cx="549" cy="323.5" r="1"/>
<circle class="st4" cx="460" cy="216.9" r="1"/>
<circle class="st4" cx="734.7" cy="350.8" r="1"/>
<circle class="st4" cx="425.2" cy="389.5" r="1"/>
<circle class="st4" cx="422.4" cy="369" r="1"/>
<circle class="st4" cx="619.3" cy="372.8" r="1"/>
<circle class="st4" cx="301.1" cy="327.4" r="1"/>
<circle class="st4" cx="646.8" cy="348.9" r="1"/>
<circle class="st4" cx="786.6" cy="327.8" r="1"/>
<circle class="st4" cx="592.9" cy="325" r="1"/>
<circle class="st4" cx="415.5" cy="404.8" r="1"/>
<circle class="st4" cx="714.2" cy="351.3" r="1"/>
<text transform="matrix(1 0 0 1 549.168 379.38)" class="st5 st2">Albania</text>
<text transform="matrix(1 0 0 1 481.5576 313.894)" class="st5 st2">Argentina</text>
<text transform="matrix(1 0 0 1 416.5716 351.178)" class="st5 st2">Australia</text>
<text transform="matrix(1 0 0 1 428.9036 372.21)" class="st5 st2">Austria</text>
<text transform="matrix(1 0 0 1 635.3371 365.996)" class="st5 st2">Azerbaijan</text>
<text transform="matrix(1 0 0 1 449.7705 386.072)" class="st5 st2">Belgio</text>
<text transform="matrix(1 0 0 1 513.1913 356.436)" class="st5 st2">Bosnia-Herzegovina</text>
<text transform="matrix(1 0 0 1 369.1232 271.83)" class="st5 st2">Brasile</text>
<text transform="matrix(1 0 0 1 474.1055 345.92)" class="st5 st2">Bulgaria</text>
<text transform="matrix(1 0 0 1 380.6181 370.776)" class="st5 st2">Cambogia</text>
<text transform="matrix(1 0 0 1 477.1812 356.914)" class="st5 st2">Canada</text>
<text transform="matrix(1 0 0 1 704.2712 316.284)" class="st5 st2">Cina</text>
<text transform="matrix(1 0 0 1 277.686 362.65)" class="st5 st2">Croazia</text>
<text transform="matrix(1 0 0 1 376.3669 378.902)" class="st5 st2">Danimarca</text>
<text transform="matrix(1 0 0 1 42 359.304)" class="st5 st2">Estonia</text>
<text transform="matrix(1 0 0 1 591.571 312.46)" class="st5 st2">Filippine</text>
<text transform="matrix(1 0 0 1 257.3383 388.462)" class="st5 st2">Finlandia</text>
<text transform="matrix(1 0 0 1 591.0765 359.782)" class="st5 st2">Francia</text>
<text transform="matrix(1 0 0 1 423.8107 326.322)" class="st5 st2">Georgia</text>
<text transform="matrix(1 0 0 1 581.6834 374.122)" class="st5 st2">Germania</text>
<text transform="matrix(1 0 0 1 362.2083 364.562)" class="st5 st2">Giappone</text>
<text transform="matrix(1 0 0 1 847.7796 349.744)" class="st5 st2">India</text>
<text transform="matrix(1 0 0 1 858 329.19)" class="st5 st2">Indonesia</text>
<text transform="matrix(1 0 0 1 259.0026 362.65)" class="st5 st2">Irlanda</text>
<text transform="matrix(1 0 0 1 499.4037 313.416)" class="st5 st2">Israele</text>
<text transform="matrix(1 0 0 1 499.4037 349.744)" class="st5 st2">Italia</text>
<text transform="matrix(1 0 0 1 612.82 392.286)" class="st5 st2">Kazakhstan</text>
<text transform="matrix(1 0 0 1 534.1693 390.374)" class="st5 st2">Kosovo</text>
<text transform="matrix(1 0 0 1 594.3525 389.896)" class="st5 st2">Kyrgyzstan</text>
<text transform="matrix(1 0 0 1 42 348.31)" class="st5 st2">Lettonia</text>
<text transform="matrix(1 0 0 1 325.4377 351.656)" class="st5 st2">Lussemburgo</text>
<text transform="matrix(1 0 0 1 457.6316 307.202)" class="st5 st2">Macedonia, FYROM</text>
<text transform="matrix(1 0 0 1 374.4638 313.894)" class="st5 st2">Madagascar</text>
<text transform="matrix(1 0 0 1 398.4917 334.448)" class="st5 st2">Maldive</text>
<text transform="matrix(1 0 0 1 682.5261 296.686)" class="st5 st2">Malesia</text>
<text transform="matrix(1 0 0 1 727.5255 323.454)" class="st5 st2">Marocco</text>
<text transform="matrix(1 0 0 1 184.5136 389.896)" class="st5 st2">Moldavia</text>
<text transform="matrix(1 0 0 1 329.1941 365.518)" class="st5 st2">Montenegro</text>
<text transform="matrix(1 0 0 1 344.4875 394.198)" class="st5 st2">Norvegia</text>
<text transform="matrix(1 0 0 1 475.1973 384.16)" class="st5 st2">Paesi Bassi</text>
<text transform="matrix(1 0 0 1 848.1024 371.254)" class="st5 st2">Pakistan</text>
<text transform="matrix(1 0 0 1 204.8613 364.562)" class="st5 st2">Polonia</text>
<text transform="matrix(1 0 0 1 288.2272 345.92)" class="st5 st2">Portogallo</text>
<text transform="matrix(1 0 0 1 556.1042 362.172)" class="st5 st2">Regno Unito</text>
<text transform="matrix(1 0 0 1 296.437 386.55)" class="st5 st2">Romania</text>
<text transform="matrix(1 0 0 1 679.3181 319.152)" class="st5 st2">Russia</text>
<text transform="matrix(1 0 0 1 391.5211 378.902)" class="st5 st2">Serbia</text>
<text transform="matrix(1 0 0 1 91.0261 393.242)" class="st5 st2">Slovacchia</text>
<text transform="matrix(1 0 0 1 268.2413 395.632)" class="st5 st2">Slovenia</text>
<text transform="matrix(1 0 0 1 491.443 346.398)" class="st5 st2">Spagna</text>
<text transform="matrix(1 0 0 1 549.0046 321.542)" class="st5 st2">Stati Uniti d&apos;America</text>
<text transform="matrix(1 0 0 1 459.9732 214.948)" class="st5 st2">Sud Africa</text>
<text transform="matrix(1 0 0 1 734.7336 348.788)" class="st5 st2">Sudan</text>
<text transform="matrix(1 0 0 1 425.2364 387.506)" class="st5 st2">Svezia</text>
<text transform="matrix(1 0 0 1 422.3556 366.952)" class="st5 st2">Svizzera</text>
<text transform="matrix(1 0 0 1 619.252 370.776)" class="st5 st2">Tajikistan</text>
<text transform="matrix(1 0 0 1 301.1228 325.366)" class="st5 st2">Trinidad e Tobago</text>
<text transform="matrix(1 0 0 1 646.8453 346.876)" class="st5 st2">Tunisia</text>
<text transform="matrix(1 0 0 1 786.6111 325.844)" class="st5 st2">Turchia</text>
<text transform="matrix(1 0 0 1 592.9462 322.976)" class="st5 st2">Turkmenistan</text>
<text transform="matrix(1 0 0 1 415.4999 402.802)" class="st5 st2">Ucraina</text>
<text transform="matrix(1 0 0 1 714.2325 349.266)" class="st5 st2">Uzbekistan</text>
<text transform="matrix(1 0 0 1 696.5859 514)" class="st1 st6">POPOLAZIONE MUSULMANA</text>
<text transform="matrix(6.123234e-17 -1 1 6.123234e-17 57 164.5)" class="st1 st6">COEFFICIENTE DI GINI</text>
</svg>
